VotoSerifGX-CondensedBoldDisplay.ufo
<glyph name="parenleft" format="2">
  <advance width="318"/>
  <unicode hex="0028"/>
  <outline>
    <contour>
      <point x="296" y="-139" type="curve"/>
      <point x="296" y="-129" type="line"/>
      <point x="212" y="-48"/>
      <point x="188" y="105"/>
      <point x="188" y="317" type="curve" smooth="yes"/>
      <point x="188" y="527"/>
      <point x="212" y="677"/>
      <point x="296" y="761" type="curve"/>
      <point x="296" y="771" type="line"/>
      <point x="113" y="683"/>
      <point x="40" y="533"/>
      <point x="40" y="317" type="curve" smooth="yes"/>
      <point x="40" y="101"/>
      <point x="113" y="-49"/>
    </contour>
  </outline>
</glyph>
<glyph name="two" format="2">
  <advance width="414"/>
  <unicode hex="0032"/>
  <outline>
    <contour>
      <point x="24" y="0" type="line"/>
      <point x="382" y="0" type="line"/>
      <point x="390" y="209" type="line"/>
      <point x="380" y="209" type="line"/>
      <point x="376" y="164" type="line" smooth="yes"/>
      <point x="374" y="122"/>
      <point x="355" y="109"/>
      <point x="325" y="109" type="curve" smooth="yes"/>
      <point x="45" y="109" type="line"/>
      <point x="161" y="227" type="line" smooth="yes"/>
      <point x="347" y="415"/>
      <point x="373" y="474"/>
      <point x="373" y="557" type="curve" smooth="yes"/>
      <point x="373" y="647"/>
      <point x="321" y="724"/>
      <point x="190" y="724" type="curve" smooth="yes"/>
      <point x="84" y="724"/>
      <point x="24" y="654"/>
      <point x="24" y="588" type="curve" smooth="yes"/>
      <point x="24" y="515"/>
      <point x="77" y="498"/>
      <point x="135" y="498" type="curve"/>
      <point x="135" y="663"/>
      <point x="144" y="714"/>
      <point x="185" y="714" type="curve" smooth="yes"/>
      <point x="219" y="714"/>
      <point x="230" y="680"/>
      <point x="230" y="548" type="curve" smooth="yes"/>
      <point x="230" y="489"/>
      <point x="249" y="375"/>
      <point x="141" y="242" type="curve" smooth="yes"/>
      <point x="24" y="95" type="line"/>
    </contour>
  </outline>
</glyph>
<glyph name="eight" format="2">
  <advance width="414"/>
  <unicode hex="0038"/>
  <outline>
    <contour>
      <point x="208" y="-10" type="curve" smooth="yes"/>
      <point x="327" y="-10"/>
      <point x="396" y="61"/>
      <point x="396" y="182" type="curve" smooth="yes"/>
      <point x="396" y="311"/>
      <point x="312" y="367"/>
      <point x="259" y="415" type="curve"/>
      <point x="335" y="442"/>
      <point x="368" y="480"/>
      <point x="368" y="556" type="curve" smooth="yes"/>
      <point x="368" y="650"/>
      <point x="317" y="724"/>
      <point x="208" y="724" type="curve" smooth="yes"/>
      <point x="83" y="724"/>
      <point x="36" y="629"/>
      <point x="36" y="542" type="curve" smooth="yes"/>
      <point x="36" y="447"/>
      <point x="92" y="393"/>
      <point x="135" y="352" type="curve"/>
      <point x="34" y="307"/>
      <point x="18" y="247"/>
      <point x="18" y="178" type="curve" smooth="yes"/>
      <point x="18" y="66"/>
      <point x="85" y="-10"/>
    </contour>
    <contour>
      <point x="218" y="0" type="curve" smooth="yes"/>
      <point x="151" y="0"/>
      <point x="131" y="57"/>
      <point x="131" y="182" type="curve" smooth="yes"/>
      <point x="131" y="263"/>
      <point x="141" y="325"/>
      <point x="145" y="343" type="curve"/>
      <point x="209" y="291"/>
      <point x="295" y="231"/>
      <point x="295" y="105" type="curve" smooth="yes"/>
      <point x="295" y="34"/>
      <point x="269" y="0"/>
    </contour>
    <contour>
      <point x="252" y="423" type="curve"/>
      <point x="205" y="468"/>
      <point x="140" y="530"/>
      <point x="140" y="625" type="curve" smooth="yes"/>
      <point x="140" y="678"/>
      <point x="161" y="714"/>
      <point x="201" y="714" type="curve" smooth="yes"/>
      <point x="250" y="714"/>
      <point x="265" y="667"/>
      <point x="265" y="571" type="curve" smooth="yes"/>
      <point x="265" y="533"/>
      <point x="263" y="452"/>
    </contour>
  </outline>
</glyph>
<glyph name="K" format="2">
  <advance width="566"/>
  <unicode hex="004B"/>
  <anchor x="283" y="0" name="bottom"/>
  <anchor x="283" y="714" name="top"/>
  <anchor x="546" y="714" name="topright"/>
  <outline>
    <contour>
      <point x="16" y="0" type="line"/>
      <point x="279" y="0" type="line"/>
      <point x="279" y="10" type="line"/>
      <point x="262" y="10" type="line" smooth="yes"/>
      <point x="243" y="10"/>
      <point x="228" y="24"/>
      <point x="228" y="66" type="curve" smooth="yes"/>
      <point x="228" y="303" type="line"/>
      <point x="241" y="321" type="line"/>
      <point x="325" y="124" type="line" smooth="yes"/>
      <point x="367" y="25"/>
      <point x="400" y="0"/>
      <point x="504" y="0" type="curve" smooth="yes"/>
      <point x="566" y="0" type="line"/>
      <point x="566" y="10" type="line"/>
      <point x="564" y="10" type="line" smooth="yes"/>
      <point x="557" y="10"/>
      <point x="531" y="50"/>
      <point x="464" y="171" type="curve" smooth="yes"/>
      <point x="319" y="446" type="line"/>
      <point x="432" y="617" type="line" smooth="yes"/>
      <point x="501" y="715"/>
      <point x="505" y="704"/>
      <point x="542" y="704" type="curve"/>
      <point x="542" y="714" type="line"/>
      <point x="357" y="714" type="line"/>
      <point x="357" y="704" type="line"/>
      <point x="467" y="704"/>
      <point x="461" y="705"/>
      <point x="461" y="681" type="curve" smooth="yes"/>
      <point x="461" y="680"/>
      <point x="466" y="676"/>
      <point x="468" y="674" type="curve" smooth="yes"/>
      <point x="228" y="319" type="line"/>
      <point x="228" y="648" type="line" smooth="yes"/>
      <point x="228" y="690"/>
      <point x="238" y="704"/>
      <point x="255" y="704" type="curve" smooth="yes"/>
      <point x="279" y="704" type="line"/>
      <point x="279" y="714" type="line"/>
      <point x="16" y="714" type="line"/>
      <point x="16" y="704" type="line"/>
      <point x="50" y="704" type="line" smooth="yes"/>
      <point x="68" y="704"/>
      <point x="81" y="690"/>
      <point x="81" y="649" type="curve" smooth="yes"/>
      <point x="81" y="67" type="line" smooth="yes"/>
      <point x="81" y="23"/>
      <point x="66" y="10"/>
      <point x="46" y="10" type="curve" smooth="yes"/>
      <point x="16" y="10" type="line"/>
    </contour>
  </outline>
</glyph>
<glyph name="P" format="2">
  <advance width="480"/>
  <unicode hex="0050"/>
  <anchor x="155" y="0" name="bottom"/>
  <anchor x="240" y="714" name="top"/>
  <anchor x="516" y="714" name="topright"/>
  <outline>
    <contour>
      <point x="16" y="0" type="line"/>
      <point x="309" y="0" type="line"/>
      <point x="309" y="10" type="line"/>
      <point x="261" y="10" type="line" smooth="yes"/>
      <point x="229" y="10"/>
      <point x="229" y="29"/>
      <point x="229" y="70" type="curve" smooth="yes"/>
      <point x="229" y="272" type="line"/>
      <point x="243" y="272" type="line" smooth="yes"/>
      <point x="414" y="272"/>
      <point x="478" y="374"/>
      <point x="478" y="502" type="curve" smooth="yes"/>
      <point x="478" y="641"/>
      <point x="410" y="714"/>
      <point x="259" y="714" type="curve" smooth="yes"/>
      <point x="16" y="714" type="line"/>
      <point x="16" y="704" type="line"/>
      <point x="48" y="704" type="line" smooth="yes"/>
      <point x="83" y="704"/>
      <point x="81" y="685"/>
      <point x="81" y="643" type="curve" smooth="yes"/>
      <point x="81" y="75" type="line" smooth="yes"/>
      <point x="81" y="30"/>
      <point x="81" y="10"/>
      <point x="44" y="10" type="curve" smooth="yes"/>
      <point x="16" y="10" type="line"/>
    </contour>
    <contour>
      <point x="229" y="282" type="line"/>
      <point x="229" y="704" type="line"/>
      <point x="248" y="704" type="line" smooth="yes"/>
      <point x="311" y="704"/>
      <point x="329" y="658"/>
      <point x="329" y="501" type="curve" smooth="yes"/>
      <point x="329" y="332"/>
      <point x="309" y="282"/>
      <point x="238" y="282" type="curve" smooth="yes"/>
    </contour>
  </outline>
</glyph>
<glyph name="m" format="2">
  <advance width="734"/>
  <unicode hex="006D"/>
  <anchor x="368" y="0" name="bottom"/>
  <anchor x="368" y="536" name="top"/>
  <anchor x="721" y="536" name="topright"/>
  <outline>
    <contour>
      <point x="9" y="0" type="line"/>
      <point x="252" y="0" type="line"/>
      <point x="252" y="10" type="line"/>
      <point x="250" y="10" type="line"/>
      <point x="218" y="10"/>
      <point x="204" y="18"/>
      <point x="204" y="76" type="curve" smooth="yes"/>
      <point x="204" y="382" type="line" smooth="yes"/>
      <point x="204" y="464"/>
      <point x="228" y="517"/>
      <point x="252" y="517" type="curve" smooth="yes"/>
      <point x="287" y="517"/>
      <point x="296" y="481"/>
      <point x="296" y="396" type="curve" smooth="yes"/>
      <point x="296" y="0" type="line"/>
      <point x="483" y="0" type="line"/>
      <point x="483" y="10" type="line"/>
      <point x="479" y="10" type="line" smooth="yes"/>
      <point x="447" y="10"/>
      <point x="436" y="19"/>
      <point x="436" y="80" type="curve" smooth="yes"/>
      <point x="436" y="395" type="line" smooth="yes"/>
      <point x="436" y="471"/>
      <point x="458" y="517"/>
      <point x="485" y="517" type="curve" smooth="yes"/>
      <point x="520" y="517"/>
      <point x="531" y="481"/>
      <point x="531" y="396" type="curve" smooth="yes"/>
      <point x="531" y="0" type="line"/>
      <point x="717" y="0" type="line"/>
      <point x="717" y="10" type="line"/>
      <point x="715" y="10" type="line" smooth="yes"/>
      <point x="683" y="10"/>
      <point x="672" y="19"/>
      <point x="672" y="80" type="curve" smooth="yes"/>
      <point x="672" y="355" type="line" smooth="yes"/>
      <point x="672" y="491"/>
      <point x="626" y="549"/>
      <point x="546" y="549" type="curve" smooth="yes"/>
      <point x="484" y="549"/>
      <point x="445" y="514"/>
      <point x="437" y="473" type="curve"/>
      <point x="435" y="473" type="line"/>
      <point x="412" y="522"/>
      <point x="383" y="549"/>
      <point x="330" y="549" type="curve" smooth="yes"/>
      <point x="257" y="549"/>
      <point x="221" y="516"/>
      <point x="206" y="476" type="curve"/>
      <point x="204" y="476" type="line"/>
      <point x="204" y="536" type="line"/>
      <point x="12" y="536" type="line"/>
      <point x="12" y="526" type="line"/>
      <point x="14" y="526" type="line" smooth="yes"/>
      <point x="46" y="526"/>
      <point x="64" y="517"/>
      <point x="64" y="460" type="curve" smooth="yes"/>
      <point x="64" y="79" type="line" smooth="yes"/>
      <point x="64" y="19"/>
      <point x="45" y="10"/>
      <point x="13" y="10" type="curve" smooth="yes"/>
      <point x="9" y="10" type="line"/>
    </contour>
  </outline>
</glyph>
<glyph name="w" format="2">
  <advance width="615"/>
  <unicode hex="0077"/>
  <anchor x="308" y="0" name="bottom"/>
  <anchor x="308" y="536" name="top"/>
  <anchor x="625" y="536" name="topright"/>
  <outline>
    <contour>
      <point x="140" y="0" type="line"/>
      <point x="203" y="0" type="line"/>
      <point x="297" y="422" type="line"/>
      <point x="393" y="0" type="line"/>
      <point x="471" y="0" type="line"/>
      <point x="550" y="490" type="line" smooth="yes"/>
      <point x="555" y="531"/>
      <point x="557" y="526"/>
      <point x="608" y="526" type="curve" smooth="yes"/>
      <point x="617" y="526" type="line"/>
      <point x="617" y="536" type="line"/>
      <point x="474" y="536" type="line"/>
      <point x="474" y="526" type="line"/>
      <point x="508" y="526" type="line" smooth="yes"/>
      <point x="541" y="526"/>
      <point x="539" y="520"/>
      <point x="539" y="513" type="curve" smooth="yes"/>
      <point x="539" y="501"/>
      <point x="534" y="471"/>
      <point x="527" y="431" type="curve" smooth="yes"/>
      <point x="497" y="223" type="line" smooth="yes"/>
      <point x="488" y="177"/>
      <point x="483" y="145"/>
      <point x="480" y="118" type="curve"/>
      <point x="478" y="118" type="line"/>
      <point x="472" y="159"/>
      <point x="465" y="195"/>
      <point x="460" y="224" type="curve" smooth="yes"/>
      <point x="385" y="540" type="line"/>
      <point x="311" y="540" type="line"/>
      <point x="252" y="250" type="line"/>
      <point x="247" y="226"/>
      <point x="238" y="187"/>
      <point x="227" y="139" type="curve"/>
      <point x="225" y="139" type="line"/>
      <point x="223" y="160"/>
      <point x="220" y="171"/>
      <point x="218" y="184" type="curve" smooth="yes"/>
      <point x="168" y="419" type="line" smooth="yes"/>
      <point x="157" y="462"/>
      <point x="149" y="490"/>
      <point x="149" y="506" type="curve" smooth="yes"/>
      <point x="149" y="521"/>
      <point x="157" y="526"/>
      <point x="187" y="526" type="curve" smooth="yes"/>
      <point x="234" y="526" type="line"/>
      <point x="234" y="536" type="line"/>
      <point x="-4" y="536" type="line"/>
      <point x="-4" y="526" type="line"/>
      <point x="-2" y="526" type="line" smooth="yes"/>
      <point x="38" y="526"/>
      <point x="42" y="526"/>
      <point x="53" y="468" type="curve" smooth="yes"/>
    </contour>
  </outline>
</glyph>
<glyph name="guillemotleft" format="2">
  <advance width="421"/>
  <unicode hex="00AB"/>
  <outline>
    <contour>
      <point x="362" y="75" type="line"/>
      <point x="376" y="75" type="line"/>
      <point x="290" y="270" type="line"/>
      <point x="376" y="465" type="line"/>
      <point x="362" y="465" type="line"/>
      <point x="209" y="275" type="line"/>
      <point x="209" y="265" type="line"/>
    </contour>
    <contour>
      <point x="211" y="75" type="line"/>
      <point x="225" y="75" type="line"/>
      <point x="139" y="270" type="line"/>
      <point x="225" y="465" type="line"/>
      <point x="211" y="465" type="line"/>
      <point x="58" y="275" type="line"/>
      <point x="58" y="265" type="line"/>
    </contour>
  </outline>
</glyph>
<glyph name="degree" format="2">
  <advance width="290"/>
  <unicode hex="00B0"/>
  <outline>
    <contour>
      <point x="144" y="453" type="curve" smooth="yes"/>
      <point x="199" y="453"/>
      <point x="229" y="502"/>
      <point x="229" y="587" type="curve" smooth="yes"/>
      <point x="229" y="675"/>
      <point x="199" y="723"/>
      <point x="144" y="723" type="curve" smooth="yes"/>
      <point x="89" y="723"/>
      <point x="60" y="675"/>
      <point x="60" y="587" type="curve" smooth="yes"/>
      <point x="60" y="502"/>
      <point x="89" y="453"/>
    </contour>
    <contour>
      <point x="147" y="473" type="curve" smooth="yes"/>
      <point x="101" y="473"/>
      <point x="78" y="517"/>
      <point x="78" y="591" type="curve" smooth="yes"/>
      <point x="78" y="661"/>
      <point x="100" y="703"/>
      <point x="147" y="703" type="curve" smooth="yes"/>
      <point x="190" y="703"/>
      <point x="211" y="661"/>
      <point x="211" y="591" type="curve" smooth="yes"/>
      <point x="211" y="517"/>
      <point x="189" y="473"/>
    </contour>
  </outline>
</glyph>
<glyph name="micro" format="2">
  <advance width="509"/>
  <unicode hex="00B5"/>
  <outline>
    <contour>
      <point x="120" y="-240" type="curve" smooth="yes"/>
      <point x="168" y="-240"/>
      <point x="197" y="-200"/>
      <point x="197" y="-153" type="curve"/>
      <point x="97" y="-143"/>
      <point x="72" y="-41"/>
      <point x="74" y="116" type="curve"/>
      <point x="95" y="27"/>
      <point x="113" y="-10"/>
      <point x="202" y="-10" type="curve" smooth="yes"/>
      <point x="283" y="-10"/>
      <point x="287" y="25"/>
      <point x="301" y="79" type="curve"/>
      <point x="303" y="79" type="line"/>
      <point x="323" y="20"/>
      <point x="351" y="0"/>
      <point x="416" y="0" type="curve" smooth="yes"/>
      <point x="497" y="0" type="line"/>
      <point x="497" y="10" type="line"/>
      <point x="495" y="10" type="line" smooth="yes"/>
      <point x="464" y="10"/>
      <point x="439" y="36"/>
      <point x="439" y="96" type="curve" smooth="yes"/>
      <point x="439" y="536" type="line"/>
      <point x="298" y="536" type="line"/>
      <point x="298" y="167" type="line" smooth="yes"/>
      <point x="298" y="72"/>
      <point x="283" y="15"/>
      <point x="247" y="15" type="curve" smooth="yes"/>
      <point x="219" y="15"/>
      <point x="206" y="26"/>
      <point x="206" y="128" type="curve" smooth="yes"/>
      <point x="206" y="536" type="line"/>
      <point x="64" y="536" type="line"/>
      <point x="64" y="226" type="line" smooth="yes"/>
      <point x="64" y="58"/>
      <point x="54" y="-35"/>
      <point x="54" y="-115" type="curve" smooth="yes"/>
      <point x="54" y="-218"/>
      <point x="92" y="-240"/>
    </contour>
  </outline>
</glyph>
<glyph name="onesuperior" format="2">
  <advance width="282"/>
  <unicode hex="00B9"/>
  <outline>
    <contour>
      <point x="39" y="387" type="line"/>
      <point x="274" y="387" type="line"/>
      <point x="274" y="397" type="line"/>
      <point x="251" y="397" type="line" smooth="yes"/>
      <point x="227" y="397"/>
      <point x="207" y="395"/>
      <point x="207" y="429" type="curve" smooth="yes"/>
      <point x="207" y="819" type="line"/>
      <point x="173" y="819" type="line"/>
      <point x="154" y="803" type="line" smooth="yes"/>
      <point x="102" y="754"/>
      <point x="86" y="739"/>
      <point x="21" y="739" type="curve"/>
      <point x="21" y="719"/>
      <point x="32" y="703"/>
      <point x="53" y="703" type="curve" smooth="yes"/>
      <point x="79" y="703"/>
      <point x="102" y="728"/>
      <point x="111" y="738" type="curve"/>
      <point x="111" y="429" type="line" smooth="yes"/>
      <point x="111" y="395"/>
      <point x="96" y="397"/>
      <point x="72" y="397" type="curve" smooth="yes"/>
      <point x="39" y="397" type="line"/>
    </contour>
  </outline>
</glyph>
<glyph name="thorn" format="2">
  <advance width="483"/>
  <unicode hex="00FE"/>
  <anchor x="242" y="-240" name="bottom"/>
  <anchor x="242" y="760" name="top"/>
  <outline>
    <contour>
      <point x="6" y="-253" type="line"/>
      <point x="262" y="-253" type="line"/>
      <point x="262" y="-243" type="line"/>
      <point x="257" y="-243" type="line" smooth="yes"/>
      <point x="211" y="-243"/>
      <point x="205" y="-220"/>
      <point x="205" y="-157" type="curve" smooth="yes"/>
      <point x="205" y="-75" type="line" smooth="yes"/>
      <point x="205" y="-25"/>
      <point x="205" y="23"/>
      <point x="203" y="74" type="curve"/>
      <point x="205" y="74" type="line"/>
      <point x="220" y="21"/>
      <point x="236" y="-10"/>
      <point x="299" y="-10" type="curve" smooth="yes"/>
      <point x="395" y="-10"/>
      <point x="454" y="68"/>
      <point x="454" y="264" type="curve" smooth="yes"/>
      <point x="454" y="464"/>
      <point x="395" y="547"/>
      <point x="299" y="547" type="curve" smooth="yes"/>
      <point x="237" y="547"/>
      <point x="214" y="526"/>
      <point x="205" y="473" type="curve"/>
      <point x="203" y="473" type="line"/>
      <point x="205" y="516"/>
      <point x="205" y="557"/>
      <point x="205" y="600" type="curve" smooth="yes"/>
      <point x="205" y="760" type="line"/>
      <point x="16" y="760" type="line"/>
      <point x="16" y="750" type="line"/>
      <point x="23" y="750" type="line" smooth="yes"/>
      <point x="21" y="750"/>
      <point x="62" y="749"/>
      <point x="62" y="692" type="curve" smooth="yes"/>
      <point x="62" y="-157" type="line" smooth="yes"/>
      <point x="62" y="-220"/>
      <point x="56" y="-243"/>
      <point x="10" y="-243" type="curve" smooth="yes"/>
      <point x="6" y="-243" type="line"/>
    </contour>
    <contour>
      <point x="265" y="9" type="curve" smooth="yes"/>
      <point x="224" y="9"/>
      <point x="204" y="90"/>
      <point x="204" y="261" type="curve" smooth="yes"/>
      <point x="204" y="438"/>
      <point x="211" y="532"/>
      <point x="259" y="532" type="curve" smooth="yes"/>
      <point x="303" y="532"/>
      <point x="311" y="485"/>
      <point x="311" y="258" type="curve" smooth="yes"/>
      <point x="311" y="45"/>
      <point x="302" y="9"/>
    </contour>
  </outline>
</glyph>
<glyph name="hbar" format="2">
  <advance width="499"/>
  <unicode hex="0127"/>
  <anchor x="249" y="0" name="bottom"/>
  <anchor x="249" y="760" name="top"/>
  <outline>
    <contour>
      <point x="16" y="0" type="line"/>
      <point x="258" y="0" type="line"/>
      <point x="258" y="10" type="line"/>
      <point x="255" y="10" type="line" smooth="yes"/>
      <point x="218" y="10"/>
      <point x="209" y="30"/>
      <point x="209" y="76" type="curve" smooth="yes"/>
      <point x="209" y="327" type="line" smooth="yes"/>
      <point x="209" y="449"/>
      <point x="237" y="487"/>
      <point x="265" y="487" type="curve" smooth="yes"/>
      <point x="286" y="487"/>
      <point x="296" y="460"/>
      <point x="296" y="345" type="curve" smooth="yes"/>
      <point x="296" y="0" type="line"/>
      <point x="481" y="0" type="line"/>
      <point x="481" y="10" type="line"/>
      <point x="479" y="10" type="line" smooth="yes"/>
      <point x="447" y="10"/>
      <point x="436" y="32"/>
      <point x="436" y="80" type="curve" smooth="yes"/>
      <point x="436" y="323" type="line" smooth="yes"/>
      <point x="436" y="459"/>
      <point x="396" y="518"/>
      <point x="319" y="518" type="curve" smooth="yes"/>
      <point x="256" y="518"/>
      <point x="224" y="483"/>
      <point x="211" y="437" type="curve"/>
      <point x="209" y="437" type="line"/>
      <point x="211" y="454"/>
      <point x="211" y="477"/>
      <point x="211" y="494" type="curve" smooth="yes"/>
      <point x="211" y="599" type="line"/>
      <point x="312" y="599" type="line"/>
      <point x="312" y="609" type="line"/>
      <point x="211" y="609" type="line"/>
      <point x="211" y="760" type="line"/>
      <point x="11" y="760" type="line"/>
      <point x="11" y="750" type="line"/>
      <point x="22" y="750" type="line" smooth="yes"/>
      <point x="59" y="750"/>
      <point x="67" y="731"/>
      <point x="67" y="685" type="curve" smooth="yes"/>
      <point x="67" y="609" type="line"/>
      <point x="7" y="609" type="line"/>
      <point x="7" y="599" type="line"/>
      <point x="67" y="599" type="line"/>
      <point x="67" y="79" type="line" smooth="yes"/>
      <point x="67" y="31"/>
      <point x="60" y="10"/>
      <point x="18" y="10" type="curve" smooth="yes"/>
      <point x="16" y="10" type="line"/>
    </contour>
  </outline>
</glyph>
<glyph name="kgreenlandic" format="2">
  <advance width="487"/>
  <unicode hex="0138"/>
  <anchor x="244" y="0" name="bottom"/>
  <anchor x="244" y="536" name="top"/>
  <outline>
    <contour>
      <point x="11" y="0" type="line"/>
      <point x="268" y="0" type="line"/>
      <point x="268" y="10" type="line"/>
      <point x="271" y="10" type="line" smooth="yes"/>
      <point x="251" y="10"/>
      <point x="211" y="18"/>
      <point x="211" y="76" type="curve" smooth="yes"/>
      <point x="211" y="221" type="line"/>
      <point x="226" y="246" type="line"/>
      <point x="287" y="84" type="line" smooth="yes"/>
      <point x="322" y="-7"/>
      <point x="385" y="0"/>
      <point x="514" y="0" type="curve" smooth="yes"/>
      <point x="486" y="0" type="line"/>
      <point x="486" y="10" type="line"/>
      <point x="484" y="10" type="line" smooth="yes"/>
      <point x="476" y="10"/>
      <point x="481" y="5"/>
      <point x="445" y="77" type="curve" smooth="yes"/>
      <point x="300" y="371" type="line"/>
      <point x="340" y="437" type="line" smooth="yes"/>
      <point x="392" y="519"/>
      <point x="409" y="526"/>
      <point x="447" y="526" type="curve"/>
      <point x="447" y="536" type="line"/>
      <point x="220" y="536" type="line"/>
      <point x="220" y="526" type="line"/>
      <point x="308" y="526"/>
      <point x="345" y="518"/>
      <point x="345" y="488" type="curve" smooth="yes"/>
      <point x="345" y="475"/>
      <point x="337" y="455"/>
      <point x="322" y="431" type="curve" smooth="yes"/>
      <point x="210" y="236" type="line"/>
      <point x="211" y="266"/>
      <point x="211" y="293"/>
      <point x="211" y="319" type="curve" smooth="yes"/>
      <point x="211" y="536" type="line"/>
      <point x="11" y="536" type="line"/>
      <point x="11" y="526" type="line"/>
      <point x="11" y="526" type="line" smooth="yes"/>
      <point x="47" y="526"/>
      <point x="67" y="517"/>
      <point x="67" y="462" type="curve" smooth="yes"/>
      <point x="67" y="78" type="line" smooth="yes"/>
      <point x="67" y="19"/>
      <point x="48" y="10"/>
      <point x="11" y="10" type="curve" smooth="yes"/>
      <point x="11" y="10" type="line"/>
    </contour>
  </outline>
</glyph>
<glyph name="uni0181" format="2">
  <advance width="648"/>
  <unicode hex="0181"/>
  <anchor x="313" y="0" name="bottom"/>
  <anchor x="313" y="714" name="top"/>
  <outline>
    <contour>
      <point x="143" y="0" type="line"/>
      <point x="402" y="0" type="line" smooth="yes"/>
      <point x="553" y="0"/>
      <point x="627" y="64"/>
      <point x="627" y="199" type="curve" smooth="yes"/>
      <point x="627" y="292"/>
      <point x="587" y="355"/>
      <point x="448" y="375" type="curve"/>
      <point x="448" y="377" type="line"/>
      <point x="563" y="391"/>
      <point x="606" y="457"/>
      <point x="606" y="539" type="curve" smooth="yes"/>
      <point x="606" y="670"/>
      <point x="519" y="714"/>
      <point x="381" y="714" type="curve" smooth="yes"/>
      <point x="170" y="714" type="line" smooth="yes"/>
      <point x="53" y="714"/>
      <point x="6" y="653"/>
      <point x="6" y="573" type="curve" smooth="yes"/>
      <point x="6" y="520"/>
      <point x="29" y="484"/>
      <point x="72" y="484" type="curve" smooth="yes"/>
      <point x="91" y="484"/>
      <point x="103" y="492"/>
      <point x="118" y="505" type="curve"/>
      <point x="105" y="521"/>
      <point x="95" y="555"/>
      <point x="95" y="594" type="curve" smooth="yes"/>
      <point x="95" y="662"/>
      <point x="123" y="704"/>
      <point x="165" y="704" type="curve" smooth="yes"/>
      <point x="193" y="704"/>
      <point x="210" y="677"/>
      <point x="210" y="613" type="curve" smooth="yes"/>
      <point x="210" y="72" type="line" smooth="yes"/>
      <point x="210" y="27"/>
      <point x="201" y="10"/>
      <point x="180" y="10" type="curve" smooth="yes"/>
      <point x="143" y="10" type="line"/>
    </contour>
    <contour>
      <point x="354" y="10" type="line"/>
      <point x="354" y="371" type="line"/>
      <point x="393" y="371" type="line" smooth="yes"/>
      <point x="453" y="371"/>
      <point x="472" y="322"/>
      <point x="472" y="183" type="curve" smooth="yes"/>
      <point x="472" y="53"/>
      <point x="453" y="10"/>
      <point x="391" y="10" type="curve" smooth="yes"/>
    </contour>
    <contour>
      <point x="354" y="381" type="line"/>
      <point x="354" y="704" type="line"/>
      <point x="373" y="704" type="line" smooth="yes"/>
      <point x="434" y="704"/>
      <point x="455" y="665"/>
      <point x="455" y="550" type="curve" smooth="yes"/>
      <point x="455" y="423"/>
      <point x="435" y="381"/>
      <point x="373" y="381" type="curve" smooth="yes"/>
    </contour>
  </outline>
</glyph>
<glyph name="uni019E" format="2">
  <advance width="493"/>
  <unicode hex="019E"/>
  <anchor x="247" y="-240" name="bottom"/>
  <anchor x="247" y="536" name="top"/>
  <outline>
    <contour>
      <point x="235" y="-240" type="line"/>
      <point x="482" y="-240" type="line"/>
      <point x="482" y="-230" type="line"/>
      <point x="479" y="-230" type="line" smooth="yes"/>
      <point x="440" y="-230"/>
      <point x="431" y="-210"/>
      <point x="431" y="-164" type="curve" smooth="yes"/>
      <point x="431" y="355" type="line" smooth="yes"/>
      <point x="431" y="491"/>
      <point x="391" y="549"/>
      <point x="314" y="549" type="curve" smooth="yes"/>
      <point x="251" y="549"/>
      <point x="219" y="515"/>
      <point x="205" y="469" type="curve"/>
      <point x="203" y="469" type="line"/>
      <point x="203" y="536" type="line"/>
      <point x="12" y="536" type="line"/>
      <point x="12" y="526" type="line"/>
      <point x="16" y="526" type="line" smooth="yes"/>
      <point x="54" y="526"/>
      <point x="62" y="507"/>
      <point x="62" y="461" type="curve" smooth="yes"/>
      <point x="62" y="79" type="line" smooth="yes"/>
      <point x="62" y="31"/>
      <point x="55" y="10"/>
      <point x="13" y="10" type="curve" smooth="yes"/>
      <point x="9" y="10" type="line"/>
      <point x="9" y="0" type="line"/>
      <point x="252" y="0" type="line"/>
      <point x="252" y="10" type="line"/>
      <point x="250" y="10" type="line" smooth="yes"/>
      <point x="213" y="10"/>
      <point x="204" y="30"/>
      <point x="204" y="76" type="curve" smooth="yes"/>
      <point x="204" y="359" type="line" smooth="yes"/>
      <point x="204" y="481"/>
      <point x="232" y="519"/>
      <point x="260" y="519" type="curve" smooth="yes"/>
      <point x="281" y="519"/>
      <point x="290" y="491"/>
      <point x="290" y="376" type="curve" smooth="yes"/>
      <point x="290" y="-161" type="line" smooth="yes"/>
      <point x="290" y="-209"/>
      <point x="283" y="-230"/>
      <point x="241" y="-230" type="curve" smooth="yes"/>
      <point x="235" y="-230" type="line"/>
    </contour>
  </outline>
</glyph>
<glyph name="uni01B9" format="2">
  <advance width="451"/>
  <unicode hex="01B9"/>
  <anchor x="225" y="-240" name="bottom"/>
  <anchor x="225" y="536" name="top"/>
  <outline>
    <contour>
      <point x="267" y="-240" type="curve" smooth="yes"/>
      <point x="375" y="-240"/>
      <point x="429" y="-173"/>
      <point x="429" y="-121" type="curve" smooth="yes"/>
      <point x="429" y="-79"/>
      <point x="398" y="-55"/>
      <point x="343" y="-55" type="curve"/>
      <point x="343" y="-167"/>
      <point x="331" y="-231"/>
      <point x="264" y="-231" type="curve" smooth="yes"/>
      <point x="210" y="-231"/>
      <point x="189" y="-173"/>
      <point x="189" y="-15" type="curve" smooth="yes"/>
      <point x="189" y="156"/>
      <point x="220" y="199"/>
      <point x="294" y="199" type="curve" smooth="yes"/>
      <point x="298" y="199" type="line"/>
      <point x="298" y="210" type="line"/>
      <point x="137" y="434" type="line"/>
      <point x="307" y="434" type="line" smooth="yes"/>
      <point x="368" y="434"/>
      <point x="388" y="418"/>
      <point x="393" y="366" type="curve" smooth="yes"/>
      <point x="396" y="341" type="line"/>
      <point x="404" y="341" type="line"/>
      <point x="391" y="536" type="line"/>
      <point x="80" y="536" type="line"/>
      <point x="80" y="500" type="line"/>
      <point x="286" y="210" type="line"/>
      <point x="133" y="210"/>
      <point x="47" y="127"/>
      <point x="47" y="-9" type="curve" smooth="yes"/>
      <point x="47" y="-160"/>
      <point x="124" y="-240"/>
    </contour>
  </outline>
</glyph>
<glyph name="uni01F7" format="2">
  <advance width="547"/>
  <unicode hex="01F7"/>
  <anchor x="274" y="-240" name="bottom"/>
  <anchor x="274" y="714" name="top"/>
  <outline>
    <contour>
      <point x="8" y="-240" type="line"/>
      <point x="266" y="-240" type="line"/>
      <point x="266" y="-230" type="line"/>
      <point x="245" y="-230" type="line" smooth="yes"/>
      <point x="190" y="-230"/>
      <point x="200" y="-210"/>
      <point x="200" y="-165" type="curve" smooth="yes"/>
      <point x="200" y="-8" type="line"/>
      <point x="332" y="30"/>
      <point x="500" y="145"/>
      <point x="500" y="465" type="curve" smooth="yes"/>
      <point x="500" y="610"/>
      <point x="455" y="724"/>
      <point x="331" y="724" type="curve" smooth="yes"/>
      <point x="248" y="724"/>
      <point x="213" y="677"/>
      <point x="201" y="561" type="curve"/>
      <point x="199" y="561" type="line"/>
      <point x="199" y="714" type="line"/>
      <point x="21" y="714" type="line"/>
      <point x="21" y="704" type="line"/>
      <point x="23" y="704" type="line" smooth="yes"/>
      <point x="52" y="704"/>
      <point x="62" y="689"/>
      <point x="62" y="642" type="curve" smooth="yes"/>
      <point x="62" y="-165" type="line" smooth="yes"/>
      <point x="62" y="-210"/>
      <point x="71" y="-230"/>
      <point x="16" y="-230" type="curve" smooth="yes"/>
      <point x="8" y="-230" type="line"/>
    </contour>
    <contour>
      <point x="200" y="2" type="curve"/>
      <point x="200" y="369" type="line" smooth="yes"/>
      <point x="200" y="583"/>
      <point x="222" y="704"/>
      <point x="296" y="704" type="curve" smooth="yes"/>
      <point x="352" y="704"/>
      <point x="365" y="632"/>
      <point x="365" y="537" type="curve" smooth="yes"/>
      <point x="365" y="205"/>
      <point x="328" y="34"/>
    </contour>
  </outline>
</glyph>
<glyph name="Aringacute" format="2">
  <advance width="570"/>
  <unicode hex="01FA"/>
  <anchor x="286" y="0" name="bottom"/>
  <anchor x="286" y="958" name="top"/>
  <outline>
    <contour>
      <point x="5" y="0" type="line"/>
      <point x="181" y="0" type="line"/>
      <point x="181" y="10" type="line"/>
      <point x="127" y="10" type="line" smooth="yes"/>
      <point x="106" y="10"/>
      <point x="100" y="24"/>
      <point x="100" y="47" type="curve" smooth="yes"/>
      <point x="100" y="63"/>
      <point x="105" y="86"/>
      <point x="111" y="112" type="curve" smooth="yes"/>
      <point x="150" y="260" type="line"/>
      <point x="327" y="260" type="line"/>
      <point x="365" y="97" type="line" smooth="yes"/>
      <point x="369" y="77"/>
      <point x="372" y="60"/>
      <point x="372" y="43" type="curve" smooth="yes"/>
      <point x="372" y="26"/>
      <point x="368" y="10"/>
      <point x="344" y="10" type="curve" smooth="yes"/>
      <point x="295" y="10" type="line"/>
      <point x="295" y="0" type="line"/>
      <point x="570" y="0" type="line"/>
      <point x="570" y="10" type="line"/>
      <point x="556" y="10" type="line" smooth="yes"/>
      <point x="537" y="10"/>
      <point x="531" y="24"/>
      <point x="519" y="69" type="curve" smooth="yes"/>
      <point x="361" y="634" type="line"/>
      <point x="377" y="650"/>
      <point x="387" y="674"/>
      <point x="387" y="706" type="curve" smooth="yes"/>
      <point x="387" y="774"/>
      <point x="341" y="806"/>
      <point x="293" y="806" type="curve" smooth="yes"/>
      <point x="247" y="806"/>
      <point x="201" y="774"/>
      <point x="201" y="706" type="curve" smooth="yes"/>
      <point x="201" y="666"/>
      <point x="216" y="640"/>
      <point x="238" y="624" type="curve"/>
      <point x="93" y="84" type="line" smooth="yes"/>
      <point x="77" y="27"/>
      <point x="69" y="10"/>
      <point x="35" y="10" type="curve" smooth="yes"/>
      <point x="5" y="10" type="line"/>
    </contour>
    <contour>
      <point x="152" y="270" type="line"/>
      <point x="217" y="510" type="line" smooth="yes"/>
      <point x="226" y="543"/>
      <point x="236" y="577"/>
      <point x="245" y="620" type="curve"/>
      <point x="253" y="579"/>
      <point x="261" y="547"/>
      <point x="268" y="516" type="curve" smooth="yes"/>
      <point x="325" y="270" type="line"/>
    </contour>
    <contour>
      <point x="293" y="617" type="curve" smooth="yes"/>
      <point x="247" y="617"/>
      <point x="213" y="643"/>
      <point x="213" y="706" type="curve" smooth="yes"/>
      <point x="213" y="770"/>
      <point x="247" y="796"/>
      <point x="293" y="796" type="curve" smooth="yes"/>
      <point x="340" y="796"/>
      <point x="375" y="770"/>
      <point x="375" y="706" type="curve" smooth="yes"/>
      <point x="375" y="643"/>
      <point x="340" y="617"/>
    </contour>
    <contour>
      <point x="228" y="830" type="line"/>
      <point x="235" y="830" type="line"/>
      <point x="285" y="859"/>
      <point x="392" y="922"/>
      <point x="436" y="950" type="curve"/>
      <point x="436" y="958" type="line"/>
      <point x="328" y="958" type="line"/>
      <point x="299" y="922"/>
      <point x="254" y="868"/>
      <point x="228" y="837" type="curve"/>
    </contour>
  </outline>
</glyph>
<glyph name="uni021D" format="2">
  <advance width="381"/>
  <unicode hex="021D"/>
  <anchor x="193" y="-191" name="bottom"/>
  <anchor x="169" y="536" name="top"/>
  <outline>
    <contour>
      <point x="19" y="-240" type="line"/>
      <point x="213" y="-192"/>
      <point x="359" y="-125"/>
      <point x="359" y="34" type="curve" smooth="yes"/>
      <point x="359" y="128"/>
      <point x="295" y="183"/>
      <point x="173" y="183" type="curve"/>
      <point x="314" y="238"/>
      <point x="352" y="293"/>
      <point x="352" y="384" type="curve" smooth="yes"/>
      <point x="352" y="477"/>
      <point x="284" y="548"/>
      <point x="193" y="548" type="curve" smooth="yes"/>
      <point x="64" y="548"/>
      <point x="17" y="494"/>
      <point x="17" y="429" type="curve" smooth="yes"/>
      <point x="17" y="372"/>
      <point x="60" y="360"/>
      <point x="111" y="360" type="curve"/>
      <point x="111" y="500"/>
      <point x="119" y="538"/>
      <point x="159" y="538" type="curve" smooth="yes"/>
      <point x="196" y="538"/>
      <point x="206" y="505"/>
      <point x="206" y="384" type="curve" smooth="yes"/>
      <point x="206" y="215"/>
      <point x="208" y="216"/>
      <point x="112" y="164" type="curve"/>
      <point x="115" y="154" type="line"/>
      <point x="168" y="180" type="line"/>
      <point x="187" y="159"/>
      <point x="207" y="128"/>
      <point x="207" y="45" type="curve" smooth="yes"/>
      <point x="207" y="-106"/>
      <point x="193" y="-171"/>
      <point x="19" y="-230" type="curve"/>
    </contour>
  </outline>
</glyph>
<glyph name="uni0223" format="2">
  <advance width="498"/>
  <unicode hex="0223"/>
  <anchor x="249" y="0" name="bottom"/>
  <anchor x="249" y="765" name="top"/>
  <outline>
    <contour>
      <point x="248" y="-10" type="curve" smooth="yes"/>
      <point x="391" y="-10"/>
      <point x="469" y="70"/>
      <point x="469" y="233" type="curve" smooth="yes"/>
      <point x="469" y="353"/>
      <point x="412" y="431"/>
      <point x="306" y="450" type="curve"/>
      <point x="409" y="467"/>
      <point x="447" y="539"/>
      <point x="447" y="609" type="curve" smooth="yes"/>
      <point x="447" y="689"/>
      <point x="386" y="748"/>
      <point x="287" y="765" type="curve"/>
      <point x="295" y="735"/>
      <point x="304" y="687"/>
      <point x="304" y="621" type="curve" smooth="yes"/>
      <point x="304" y="497"/>
      <point x="290" y="456"/>
      <point x="248" y="456" type="curve" smooth="yes"/>
      <point x="207" y="456"/>
      <point x="194" y="497"/>
      <point x="194" y="621" type="curve" smooth="yes"/>
      <point x="194" y="687"/>
      <point x="202" y="735"/>
      <point x="210" y="765" type="curve"/>
      <point x="110" y="748"/>
      <point x="51" y="688"/>
      <point x="51" y="609" type="curve" smooth="yes"/>
      <point x="51" y="530"/>
      <point x="91" y="468"/>
      <point x="193" y="451" type="curve"/>
      <point x="84" y="433"/>
      <point x="29" y="354"/>
      <point x="29" y="233" type="curve" smooth="yes"/>
      <point x="29" y="70"/>
      <point x="112" y="-10"/>
    </contour>
    <contour>
      <point x="248" y="0" type="curve" smooth="yes"/>
      <point x="191" y="0"/>
      <point x="175" y="54"/>
      <point x="175" y="235" type="curve" smooth="yes"/>
      <point x="175" y="396"/>
      <point x="191" y="446"/>
      <point x="249" y="446" type="curve" smooth="yes"/>
      <point x="306" y="446"/>
      <point x="323" y="396"/>
      <point x="323" y="235" type="curve" smooth="yes"/>
      <point x="323" y="54"/>
      <point x="306" y="0"/>
    </contour>
  </outline>
</glyph>
<glyph name="uni0225" format="2">
  <advance width="392"/>
  <unicode hex="0225"/>
  <anchor x="196" y="-182" name="bottom"/>
  <anchor x="196" y="536" name="top"/>
  <outline>
    <contour>
      <point x="298" y="-182" type="curve"/>
      <point x="360" y="-167"/>
      <point x="401" y="-147"/>
      <point x="401" y="-88" type="curve" smooth="yes"/>
      <point x="401" y="-30"/>
      <point x="365" y="10"/>
      <point x="209" y="10" type="curve" smooth="yes"/>
      <point x="144" y="10" type="line"/>
      <point x="376" y="526" type="line"/>
      <point x="376" y="536" type="line"/>
      <point x="36" y="536" type="line"/>
      <point x="25" y="384" type="line"/>
      <point x="35" y="384" type="line"/>
      <point x="38" y="403" type="line" smooth="yes"/>
      <point x="52" y="489"/>
      <point x="98" y="526"/>
      <point x="186" y="526" type="curve" smooth="yes"/>
      <point x="232" y="526" type="line"/>
      <point x="0" y="10" type="line"/>
      <point x="0" y="0" type="line"/>
      <point x="225" y="0" type="line" smooth="yes"/>
      <point x="283" y="0"/>
      <point x="318" y="-29"/>
      <point x="318" y="-89" type="curve" smooth="yes"/>
      <point x="318" y="-116"/>
      <point x="311" y="-151"/>
    </contour>
  </outline>
</glyph>
<glyph name="uni0234" format="2">
  <advance width="330"/>
  <unicode hex="0234"/>
  <anchor x="166" y="0" name="bottom"/>
  <anchor x="166" y="760" name="top"/>
  <outline>
    <contour>
      <point x="30" y="-58" type="line"/>
      <point x="41" y="3"/>
      <point x="58" y="56"/>
      <point x="81" y="98" type="curve"/>
      <point x="102" y="26"/>
      <point x="142" y="-10"/>
      <point x="225" y="-10" type="curve" smooth="yes"/>
      <point x="291" y="-10"/>
      <point x="329" y="34"/>
      <point x="329" y="110" type="curve" smooth="yes"/>
      <point x="329" y="185"/>
      <point x="293" y="231"/>
      <point x="234" y="231" type="curve" smooth="yes"/>
      <point x="226" y="231"/>
      <point x="218" y="230"/>
      <point x="209" y="227" type="curve"/>
      <point x="209" y="760" type="line"/>
      <point x="11" y="760" type="line"/>
      <point x="11" y="750" type="line"/>
      <point x="13" y="750" type="line" smooth="yes"/>
      <point x="71" y="750"/>
      <point x="67" y="730"/>
      <point x="67" y="689" type="curve" smooth="yes"/>
      <point x="67" y="231" type="line" smooth="yes"/>
      <point x="67" y="184"/>
      <point x="69" y="151"/>
      <point x="77" y="111" type="curve"/>
      <point x="51" y="66"/>
      <point x="32" y="10"/>
      <point x="20" y="-56" type="curve"/>
    </contour>
    <contour>
      <point x="267" y="23" type="curve" smooth="yes"/>
      <point x="224" y="23"/>
      <point x="209" y="68"/>
      <point x="209" y="217" type="curve"/>
      <point x="218" y="220"/>
      <point x="226" y="221"/>
      <point x="234" y="221" type="curve" smooth="yes"/>
      <point x="288" y="221"/>
      <point x="317" y="179"/>
      <point x="317" y="110" type="curve" smooth="yes"/>
      <point x="317" y="55"/>
      <point x="296" y="23"/>
    </contour>
  </outline>
</glyph>
<glyph name="uni0241" format="2">
  <advance width="424"/>
  <unicode hex="0241"/>
  <anchor x="213" y="0" name="bottom"/>
  <anchor x="213" y="714" name="top"/>
  <outline>
    <contour>
      <point x="62" y="0" type="line"/>
      <point x="341" y="0" type="line"/>
      <point x="341" y="10" type="line"/>
      <point x="326" y="10" type="line" smooth="yes"/>
      <point x="297" y="10"/>
      <point x="275" y="18"/>
      <point x="275" y="75" type="curve" smooth="yes"/>
      <point x="275" y="307" type="line"/>
      <point x="324" y="330"/>
      <point x="390" y="390"/>
      <point x="390" y="524" type="curve" smooth="yes"/>
      <point x="390" y="654"/>
      <point x="287" y="725"/>
      <point x="217" y="725" type="curve" smooth="yes"/>
      <point x="111" y="725"/>
      <point x="24" y="693"/>
      <point x="24" y="599" type="curve" smooth="yes"/>
      <point x="24" y="572"/>
      <point x="78" y="523"/>
      <point x="149" y="523" type="curve"/>
      <point x="149" y="670"/>
      <point x="159" y="715"/>
      <point x="195" y="715" type="curve" smooth="yes"/>
      <point x="226" y="715"/>
      <point x="237" y="676"/>
      <point x="237" y="553" type="curve" smooth="yes"/>
      <point x="237" y="373"/>
      <point x="196" y="303"/>
      <point x="128" y="292" type="curve"/>
      <point x="128" y="75" type="line" smooth="yes"/>
      <point x="128" y="18"/>
      <point x="106" y="10"/>
      <point x="77" y="10" type="curve" smooth="yes"/>
      <point x="62" y="10" type="line"/>
    </contour>
  </outline>
</glyph>
<glyph name="uni0263" format="2">
  <advance width="472"/>
  <unicode hex="0263"/>
  <anchor x="238" y="-240" name="bottom"/>
  <anchor x="220" y="536" name="top"/>
  <outline>
    <contour>
      <point x="250" y="-240" type="curve" smooth="yes"/>
      <point x="338" y="-240"/>
      <point x="379" y="-189"/>
      <point x="379" y="-119" type="curve" smooth="yes"/>
      <point x="379" y="-60"/>
      <point x="354" y="47"/>
      <point x="297" y="183" type="curve"/>
      <point x="401" y="454" type="line" smooth="yes"/>
      <point x="426" y="516"/>
      <point x="438" y="526"/>
      <point x="451" y="526" type="curve" smooth="yes"/>
      <point x="474" y="526" type="line"/>
      <point x="474" y="536" type="line"/>
      <point x="305" y="536" type="line"/>
      <point x="305" y="526" type="line"/>
      <point x="364" y="526" type="line" smooth="yes"/>
      <point x="387" y="526"/>
      <point x="398" y="513"/>
      <point x="398" y="493" type="curve" smooth="yes"/>
      <point x="398" y="483"/>
      <point x="397" y="468"/>
      <point x="389" y="449" type="curve" smooth="yes"/>
      <point x="314" y="259" type="line" smooth="yes"/>
      <point x="307" y="238"/>
      <point x="301" y="217"/>
      <point x="292" y="198" type="curve"/>
      <point x="283" y="223"/>
      <point x="273" y="249"/>
      <point x="267" y="267" type="curve" smooth="yes"/>
      <point x="203" y="452" type="line" smooth="yes"/>
      <point x="199" y="462"/>
      <point x="196" y="481"/>
      <point x="196" y="494" type="curve" smooth="yes"/>
      <point x="196" y="520"/>
      <point x="216" y="526"/>
      <point x="215" y="526" type="curve" smooth="yes"/>
      <point x="262" y="526" type="line"/>
      <point x="262" y="536" type="line"/>
      <point x="5" y="536" type="line"/>
      <point x="5" y="526" type="line"/>
      <point x="21" y="526"/>
      <point x="31" y="513"/>
      <point x="44" y="475" type="curve" smooth="yes"/>
      <point x="190" y="69" type="line"/>
      <point x="141" y="-25"/>
      <point x="122" y="-88"/>
      <point x="122" y="-138" type="curve" smooth="yes"/>
      <point x="122" y="-198"/>
      <point x="148" y="-240"/>
    </contour>
    <contour>
      <point x="191" y="-221" type="curve" smooth="yes"/>
      <point x="159" y="-221"/>
      <point x="131" y="-194"/>
      <point x="131" y="-138" type="curve" smooth="yes"/>
      <point x="131" y="-84"/>
      <point x="150" y="-30"/>
      <point x="194" y="55" type="curve"/>
      <point x="249" y="-97"/>
      <point x="248" y="-133"/>
      <point x="248" y="-150" type="curve" smooth="yes"/>
      <point x="248" y="-195"/>
      <point x="227" y="-221"/>
    </contour>
  </outline>
</glyph>
<glyph name="uni0270" format="2">
  <advance width="734"/>
  <unicode hex="0270"/>
  <anchor x="368" y="-228" name="bottom"/>
  <anchor x="368" y="536" name="top"/>
  <outline>
    <contour>
      <point x="521" y="-251" type="line"/>
      <point x="712" y="-251" type="line"/>
      <point x="712" y="-241" type="line"/>
      <point x="714" y="-241" type="line" smooth="yes"/>
      <point x="681" y="-241"/>
      <point x="664" y="-232"/>
      <point x="664" y="-175" type="curve" smooth="yes"/>
      <point x="664" y="457" type="line" smooth="yes"/>
      <point x="664" y="517"/>
      <point x="683" y="526"/>
      <point x="715" y="526" type="curve" smooth="yes"/>
      <point x="719" y="526" type="line"/>
      <point x="719" y="536" type="line"/>
      <point x="475" y="536" type="line"/>
      <point x="475" y="526" type="line"/>
      <point x="478" y="526" type="line"/>
      <point x="510" y="526"/>
      <point x="523" y="518"/>
      <point x="523" y="460" type="curve" smooth="yes"/>
      <point x="523" y="154" type="line" smooth="yes"/>
      <point x="523" y="72"/>
      <point x="500" y="19"/>
      <point x="476" y="19" type="curve" smooth="yes"/>
      <point x="440" y="19"/>
      <point x="432" y="55"/>
      <point x="432" y="140" type="curve" smooth="yes"/>
      <point x="432" y="536" type="line"/>
      <point x="245" y="536" type="line"/>
      <point x="245" y="526" type="line"/>
      <point x="249" y="526" type="line" smooth="yes"/>
      <point x="281" y="526"/>
      <point x="291" y="517"/>
      <point x="291" y="456" type="curve" smooth="yes"/>
      <point x="291" y="141" type="line" smooth="yes"/>
      <point x="291" y="65"/>
      <point x="270" y="19"/>
      <point x="243" y="19" type="curve" smooth="yes"/>
      <point x="207" y="19"/>
      <point x="197" y="55"/>
      <point x="197" y="140" type="curve" smooth="yes"/>
      <point x="197" y="536" type="line"/>
      <point x="11" y="536" type="line"/>
      <point x="11" y="526" type="line"/>
      <point x="13" y="526" type="line" smooth="yes"/>
      <point x="45" y="526"/>
      <point x="55" y="517"/>
      <point x="55" y="456" type="curve" smooth="yes"/>
      <point x="55" y="181" type="line" smooth="yes"/>
      <point x="55" y="45"/>
      <point x="102" y="-13"/>
      <point x="182" y="-13" type="curve" smooth="yes"/>
      <point x="244" y="-13"/>
      <point x="282" y="22"/>
      <point x="291" y="63" type="curve"/>
      <point x="293" y="63" type="line"/>
      <point x="316" y="14"/>
      <point x="345" y="-13"/>
      <point x="398" y="-13" type="curve" smooth="yes"/>
      <point x="470" y="-13"/>
      <point x="507" y="20"/>
      <point x="522" y="60" type="curve"/>
      <point x="524" y="60" type="line"/>
      <point x="521" y="27"/>
      <point x="521" y="-7"/>
      <point x="521" y="-39" type="curve" smooth="yes"/>
    </contour>
  </outline>
</glyph>
<glyph name="uni027D" format="2">
  <advance width="408"/>
  <unicode hex="027D"/>
  <anchor x="204" y="-240" name="bottom"/>
  <anchor x="204" y="536" name="top"/>
  <outline>
    <contour>
      <point x="198" y="-240" type="curve" smooth="yes"/>
      <point x="249" y="-240"/>
      <point x="281" y="-233"/>
      <point x="304" y="-224" type="curve"/>
      <point x="304" y="-214" type="line"/>
      <point x="293" y="-217"/>
      <point x="278" y="-221"/>
      <point x="255" y="-221" type="curve" smooth="yes"/>
      <point x="216" y="-221"/>
      <point x="204" y="-188"/>
      <point x="204" y="-134" type="curve" smooth="yes"/>
      <point x="204" y="345" type="line" smooth="yes"/>
      <point x="204" y="471"/>
      <point x="234" y="510"/>
      <point x="251" y="510" type="curve" smooth="yes"/>
      <point x="281" y="510"/>
      <point x="287" y="478"/>
      <point x="287" y="371" type="curve"/>
      <point x="366" y="371"/>
      <point x="394" y="400"/>
      <point x="394" y="459" type="curve" smooth="yes"/>
      <point x="394" y="520"/>
      <point x="361" y="547"/>
      <point x="307" y="547" type="curve" smooth="yes"/>
      <point x="249" y="547"/>
      <point x="224" y="520"/>
      <point x="207" y="462" type="curve"/>
      <point x="205" y="462" type="line"/>
      <point x="205" y="536" type="line"/>
      <point x="12" y="536" type="line"/>
      <point x="12" y="526" type="line"/>
      <point x="13" y="526" type="line" smooth="yes"/>
      <point x="52" y="526"/>
      <point x="61" y="507"/>
      <point x="61" y="470" type="curve" smooth="yes"/>
      <point x="61" y="-73" type="line" smooth="yes"/>
      <point x="61" y="-193"/>
      <point x="95" y="-240"/>
    </contour>
  </outline>
</glyph>
<glyph name="uni029B" format="2">
  <advance width="483"/>
  <unicode hex="029B"/>
  <anchor x="242" y="0" name="bottom"/>
  <anchor x="242" y="760" name="top"/>
  <outline>
    <contour>
      <point x="241" y="-12" type="curve" smooth="yes"/>
      <point x="345" y="-12"/>
      <point x="412" y="23"/>
      <point x="420" y="32" type="curve"/>
      <point x="420" y="181" type="line" smooth="yes"/>
      <point x="420" y="243"/>
      <point x="436" y="254"/>
      <point x="453" y="254" type="curve" smooth="yes"/>
      <point x="461" y="254" type="line"/>
      <point x="461" y="265" type="line"/>
      <point x="219" y="265" type="line"/>
      <point x="219" y="255" type="line"/>
      <point x="231" y="255" type="line" smooth="yes"/>
      <point x="253" y="255"/>
      <point x="283" y="257"/>
      <point x="283" y="190" type="curve" smooth="yes"/>
      <point x="283" y="2" type="line"/>
      <point x="277" y="0"/>
      <point x="270" y="-2"/>
      <point x="252" y="-2" type="curve" smooth="yes"/>
      <point x="185" y="-2"/>
      <point x="166" y="72"/>
      <point x="166" y="271" type="curve" smooth="yes"/>
      <point x="166" y="472"/>
      <point x="180" y="540"/>
      <point x="228" y="540" type="curve" smooth="yes"/>
      <point x="285" y="540"/>
      <point x="297" y="498"/>
      <point x="296" y="359" type="curve"/>
      <point x="422" y="359"/>
      <point x="421" y="392"/>
      <point x="421" y="426" type="curve" smooth="yes"/>
      <point x="421" y="594" type="line" smooth="yes"/>
      <point x="421" y="656"/>
      <point x="437" y="675"/>
      <point x="490" y="675" type="curve" smooth="yes"/>
      <point x="521" y="675"/>
      <point x="543" y="669"/>
      <point x="549" y="657" type="curve"/>
      <point x="554" y="664"/>
      <point x="558" y="679"/>
      <point x="558" y="694" type="curve" smooth="yes"/>
      <point x="558" y="736"/>
      <point x="539" y="760"/>
      <point x="493" y="760" type="curve" smooth="yes"/>
      <point x="435" y="760"/>
      <point x="411" y="722"/>
      <point x="411" y="583" type="curve" smooth="yes"/>
      <point x="411" y="422" type="line"/>
      <point x="386" y="497"/>
      <point x="348" y="550"/>
      <point x="217" y="550" type="curve" smooth="yes"/>
      <point x="100" y="550"/>
      <point x="23" y="459"/>
      <point x="23" y="258" type="curve" smooth="yes"/>
      <point x="23" y="64"/>
      <point x="120" y="-12"/>
    </contour>
  </outline>
</glyph>
<glyph name="uni02AA" format="2">
  <advance width="644"/>
  <unicode hex="02AA"/>
  <anchor x="322" y="0" name="bottom"/>
  <anchor x="322" y="760" name="top"/>
  <outline>
    <contour>
      <point x="450" y="-10" type="curve" smooth="yes"/>
      <point x="550" y="-10"/>
      <point x="614" y="57"/>
      <point x="614" y="163" type="curve" smooth="yes"/>
      <point x="614" y="257"/>
      <point x="561" y="296"/>
      <point x="483" y="333" type="curve" smooth="yes"/>
      <point x="415" y="365"/>
      <point x="377" y="383"/>
      <point x="377" y="449" type="curve" smooth="yes"/>
      <point x="377" y="526"/>
      <point x="430" y="538"/>
      <point x="452" y="538" type="curve" smooth="yes"/>
      <point x="497" y="538"/>
      <point x="518" y="494"/>
      <point x="518" y="388" type="curve"/>
      <point x="573" y="388"/>
      <point x="597" y="409"/>
      <point x="597" y="449" type="curve" smooth="yes"/>
      <point x="597" y="500"/>
      <point x="559" y="548"/>
      <point x="460" y="548" type="curve" smooth="yes"/>
      <point x="357" y="548"/>
      <point x="290" y="495"/>
      <point x="290" y="383" type="curve" smooth="yes"/>
      <point x="290" y="294"/>
      <point x="333" y="255"/>
      <point x="420" y="214" type="curve" smooth="yes"/>
      <point x="481" y="184"/>
      <point x="529" y="163"/>
      <point x="529" y="89" type="curve" smooth="yes"/>
      <point x="529" y="26"/>
      <point x="491" y="0"/>
      <point x="446" y="0" type="curve" smooth="yes"/>
      <point x="384" y="0"/>
      <point x="361" y="48"/>
      <point x="361" y="175" type="curve"/>
      <point x="319" y="175"/>
      <point x="286" y="159"/>
      <point x="286" y="97" type="curve" smooth="yes"/>
      <point x="286" y="61"/>
      <point x="297" y="29"/>
      <point x="335" y="10" type="curve"/>
      <point x="255" y="10" type="line" smooth="yes"/>
      <point x="228" y="10"/>
      <point x="209" y="24"/>
      <point x="209" y="82" type="curve" smooth="yes"/>
      <point x="209" y="760" type="line"/>
      <point x="13" y="760" type="line"/>
      <point x="13" y="750" type="line"/>
      <point x="23" y="750" type="line" smooth="yes"/>
      <point x="34" y="750"/>
      <point x="67" y="743"/>
      <point x="67" y="689" type="curve" smooth="yes"/>
      <point x="67" y="82" type="line" smooth="yes"/>
      <point x="67" y="24"/>
      <point x="48" y="10"/>
      <point x="23" y="10" type="curve" smooth="yes"/>
      <point x="13" y="10" type="line"/>
      <point x="13" y="0" type="line"/>
      <point x="362" y="0" type="line"/>
      <point x="384" y="-6"/>
      <point x="414" y="-10"/>
    </contour>
  </outline>
</glyph>
<glyph name="uni02C4" format="2">
  <advance width="224"/>
  <unicode hex="02C4"/>
  <outline>
    <contour>
      <point x="2" y="572" type="line"/>
      <point x="14" y="572" type="line"/>
      <point x="56" y="613"/>
      <point x="83" y="650"/>
      <point x="111" y="704" type="curve"/>
      <point x="139" y="650"/>
      <point x="167" y="613"/>
      <point x="210" y="572" type="curve"/>
      <point x="223" y="572" type="line"/>
      <point x="223" y="578" type="line"/>
      <point x="180" y="645"/>
      <point x="147" y="721"/>
      <point x="126" y="784" type="curve"/>
      <point x="96" y="784" type="line"/>
      <point x="76" y="721"/>
      <point x="44" y="645"/>
      <point x="2" y="578" type="curve"/>
    </contour>
  </outline>
</glyph>
<glyph name="dotaccent" format="2">
  <advance width="213"/>
  <unicode hex="02D9"/>
  <outline>
    <contour>
      <point x="106" y="629" type="curve" smooth="yes"/>
      <point x="143" y="629"/>
      <point x="173" y="650"/>
      <point x="173" y="698" type="curve" smooth="yes"/>
      <point x="173" y="747"/>
      <point x="143" y="767"/>
      <point x="106" y="767" type="curve" smooth="yes"/>
      <point x="69" y="767"/>
      <point x="40" y="747"/>
      <point x="40" y="698" type="curve" smooth="yes"/>
      <point x="40" y="650"/>
      <point x="69" y="629"/>
    </contour>
  </outline>
</glyph>
<glyph name="xabovecomb" format="2">
  <unicode hex="033D"/>
  <anchor x="2" y="536" name="_top"/>
  <anchor x="2" y="753" name="top"/>
  <outline>
    <contour>
      <point x="-58" y="584" type="line"/>
      <point x="0" y="654" type="line"/>
      <point x="58" y="584" type="line"/>
      <point x="71" y="596" type="line"/>
      <point x="12" y="667" type="line"/>
      <point x="72" y="738" type="line"/>
      <point x="56" y="752" type="line"/>
      <point x="0" y="683" type="line"/>
      <point x="-56" y="753" type="line"/>
      <point x="-72" y="739" type="line"/>
      <point x="-12" y="668" type="line"/>
      <point x="-72" y="596" type="line"/>
    </contour>
  </outline>
</glyph>
<glyph name="arrowheadrightabovecomb" format="2">
  <unicode hex="0350"/>
  <anchor x="-2" y="536" name="_top"/>
  <anchor x="-2" y="776" name="top"/>
  <outline>
    <contour>
      <point x="-76" y="569" type="line"/>
      <point x="-71" y="569" type="line"/>
      <point x="-25" y="609"/>
      <point x="14" y="638"/>
      <point x="76" y="663" type="curve"/>
      <point x="76" y="682" type="line"/>
      <point x="14" y="707"/>
      <point x="-25" y="736"/>
      <point x="-71" y="776" type="curve"/>
      <point x="-76" y="776" type="line"/>
      <point x="-76" y="754" type="line"/>
      <point x="-57" y="737"/>
      <point x="-16" y="702"/>
      <point x="50" y="673" type="curve"/>
      <point x="-16" y="643"/>
      <point x="-57" y="608"/>
      <point x="-76" y="591" type="curve"/>
    </contour>
  </outline>
</glyph>
<glyph name="righthalfringabovecomb" format="2">
  <unicode hex="0357"/>
  <anchor x="1" y="536" name="_top"/>
  <anchor x="1" y="816" name="top"/>
  <outline>
    <contour>
      <point x="-46" y="599" type="line"/>
      <point x="16" y="599"/>
      <point x="47" y="643"/>
      <point x="47" y="707" type="curve" smooth="yes"/>
      <point x="47" y="772"/>
      <point x="16" y="816"/>
      <point x="-46" y="816" type="curve" smooth="yes"/>
      <point x="-46" y="806" type="line"/>
      <point x="5" y="806"/>
      <point x="35" y="769"/>
      <point x="35" y="707" type="curve" smooth="yes"/>
      <point x="35" y="646"/>
      <point x="5" y="609"/>
      <point x="-46" y="609" type="curve"/>
    </contour>
  </outline>
</glyph>
<glyph name="anoteleia" format="2">
  <advance width="226"/>
  <unicode hex="0387"/>
  <outline>
    <contour>
      <point x="114" y="386" type="curve" smooth="yes"/>
      <point x="146" y="386"/>
      <point x="173" y="406"/>
      <point x="173" y="464" type="curve" smooth="yes"/>
      <point x="173" y="526"/>
      <point x="146" y="543"/>
      <point x="114" y="543" type="curve" smooth="yes"/>
      <point x="80" y="543"/>
      <point x="53" y="526"/>
      <point x="53" y="464" type="curve" smooth="yes"/>
      <point x="53" y="406"/>
      <point x="80" y="386"/>
    </contour>
  </outline>
</glyph>
<glyph name="Sigma" format="2">
  <advance width="475"/>
  <unicode hex="03A3"/>
  <anchor x="237" y="0" name="bottom"/>
  <anchor x="237" y="714" name="top"/>
  <outline>
    <contour>
      <point x="16" y="0" type="line"/>
      <point x="428" y="0" type="line"/>
      <point x="443" y="241" type="line"/>
      <point x="433" y="241" type="line"/>
      <point x="428" y="206" type="line" smooth="yes"/>
      <point x="418" y="138"/>
      <point x="382" y="116"/>
      <point x="273" y="116" type="curve" smooth="yes"/>
      <point x="68" y="116" type="line"/>
      <point x="299" y="397" type="line"/>
      <point x="299" y="413" type="line"/>
      <point x="167" y="704" type="line"/>
      <point x="298" y="704" type="line" smooth="yes"/>
      <point x="356" y="704"/>
      <point x="381" y="680"/>
      <point x="399" y="601" type="curve" smooth="yes"/>
      <point x="413" y="524" type="line"/>
      <point x="423" y="524" type="line"/>
      <point x="418" y="714" type="line"/>
      <point x="46" y="714" type="line"/>
      <point x="46" y="637" type="line"/>
      <point x="212" y="304" type="line"/>
      <point x="16" y="66" type="line"/>
    </contour>
  </outline>
</glyph>
<glyph name="Omega" format="2">
  <advance width="614"/>
  <unicode hex="03A9"/>
  <anchor x="307" y="0" name="bottom"/>
  <anchor x="307" y="714" name="top"/>
  <anchor x="20" y="714" name="topleft"/>
  <outline>
    <contour>
      <point x="39" y="0" type="line"/>
      <point x="285" y="0" type="line"/>
      <point x="278" y="198" type="line"/>
      <point x="219" y="217"/>
      <point x="205" y="268"/>
      <point x="205" y="458" type="curve" smooth="yes"/>
      <point x="205" y="656"/>
      <point x="227" y="715"/>
      <point x="308" y="715" type="curve" smooth="yes"/>
      <point x="385" y="715"/>
      <point x="407" y="656"/>
      <point x="407" y="458" type="curve" smooth="yes"/>
      <point x="407" y="270"/>
      <point x="392" y="215"/>
      <point x="333" y="196" type="curve"/>
      <point x="326" y="0" type="line"/>
      <point x="575" y="0" type="line"/>
      <point x="581" y="197" type="line"/>
      <point x="571" y="197" type="line"/>
      <point x="568" y="155" type="line" smooth="yes"/>
      <point x="564" y="115"/>
      <point x="540" y="102"/>
      <point x="469" y="102" type="curve" smooth="yes"/>
      <point x="340" y="102" type="line"/>
      <point x="343" y="190" type="line"/>
      <point x="518" y="229"/>
      <point x="566" y="320"/>
      <point x="566" y="449" type="curve" smooth="yes"/>
      <point x="566" y="617"/>
      <point x="473" y="725"/>
      <point x="311" y="725" type="curve" smooth="yes"/>
      <point x="130" y="725"/>
      <point x="47" y="617"/>
      <point x="47" y="449" type="curve" smooth="yes"/>
      <point x="47" y="321"/>
      <point x="94" y="229"/>
      <point x="268" y="190" type="curve"/>
      <point x="271" y="100" type="line"/>
      <point x="140" y="100" type="line" smooth="yes"/>
      <point x="72" y="100"/>
      <point x="49" y="113"/>
      <point x="45" y="153" type="curve" smooth="yes"/>
      <point x="42" y="195" type="line"/>
      <point x="32" y="195" type="line"/>
    </contour>
  </outline>
</glyph>
<glyph name="gamma" format="2">
  <advance width="448"/>
  <unicode hex="03B3"/>
  <anchor x="224" y="-240" name="bottom"/>
  <anchor x="224" y="536" name="top"/>
  <anchor x="428" y="536" name="topright"/>
  <outline>
    <contour>
      <point x="184" y="-240" type="curve" smooth="yes"/>
      <point x="261" y="-240"/>
      <point x="284" y="-124"/>
      <point x="284" y="-48" type="curve" smooth="yes"/>
      <point x="284" y="-19"/>
      <point x="281" y="1"/>
      <point x="276" y="10" type="curve"/>
      <point x="323" y="74"/>
      <point x="418" y="335"/>
      <point x="418" y="461" type="curve" smooth="yes"/>
      <point x="418" y="505"/>
      <point x="404" y="546"/>
      <point x="357" y="546" type="curve" smooth="yes"/>
      <point x="328" y="546"/>
      <point x="300" y="530"/>
      <point x="300" y="487" type="curve"/>
      <point x="317" y="479"/>
      <point x="375" y="467"/>
      <point x="375" y="368" type="curve" smooth="yes"/>
      <point x="375" y="252"/>
      <point x="325" y="98"/>
      <point x="276" y="18" type="curve"/>
      <point x="247" y="287"/>
      <point x="203" y="546"/>
      <point x="115" y="546" type="curve" smooth="yes"/>
      <point x="41" y="546"/>
      <point x="16" y="518"/>
      <point x="-9" y="495" type="curve"/>
      <point x="-4" y="486" type="line"/>
      <point x="3" y="493"/>
      <point x="14" y="499"/>
      <point x="24" y="499" type="curve" smooth="yes"/>
      <point x="67" y="499"/>
      <point x="126" y="264"/>
      <point x="168" y="7" type="curve"/>
      <point x="139" y="-36"/>
      <point x="120" y="-94"/>
      <point x="120" y="-150" type="curve" smooth="yes"/>
      <point x="120" y="-199"/>
      <point x="137" y="-240"/>
    </contour>
  </outline>
</glyph>
<glyph name="xi" format="2">
  <advance width="386"/>
  <unicode hex="03BE"/>
  <anchor x="164" y="-204" name="bottom"/>
  <anchor x="164" y="792" name="top"/>
  <outline>
    <contour>
      <point x="209" y="-204" type="line"/>
      <point x="323" y="-180"/>
      <point x="370" y="-115"/>
      <point x="370" y="-32" type="curve" smooth="yes"/>
      <point x="370" y="50"/>
      <point x="343" y="61"/>
      <point x="263" y="90" type="curve" smooth="yes"/>
      <point x="207" y="113"/>
      <point x="182" y="146"/>
      <point x="182" y="225" type="curve" smooth="yes"/>
      <point x="182" y="357"/>
      <point x="192" y="414"/>
      <point x="198" y="429" type="curve"/>
      <point x="215" y="425"/>
      <point x="249" y="416"/>
      <point x="286" y="416" type="curve" smooth="yes"/>
      <point x="337" y="416"/>
      <point x="358" y="434"/>
      <point x="358" y="455" type="curve" smooth="yes"/>
      <point x="358" y="470"/>
      <point x="349" y="483"/>
      <point x="323" y="483" type="curve" smooth="yes"/>
      <point x="290" y="483"/>
      <point x="242" y="464"/>
      <point x="196" y="440" type="curve"/>
      <point x="174" y="456"/>
      <point x="157" y="479"/>
      <point x="157" y="559" type="curve" smooth="yes"/>
      <point x="157" y="651"/>
      <point x="188" y="696"/>
      <point x="188" y="707" type="curve"/>
      <point x="207" y="705"/>
      <point x="235" y="702"/>
      <point x="264" y="702" type="curve" smooth="yes"/>
      <point x="315" y="702"/>
      <point x="341" y="714"/>
      <point x="341" y="738" type="curve" smooth="yes"/>
      <point x="341" y="754"/>
      <point x="332" y="762"/>
      <point x="310" y="762" type="curve" smooth="yes"/>
      <point x="280" y="762"/>
      <point x="229" y="745"/>
      <point x="187" y="717" type="curve"/>
      <point x="129" y="725"/>
      <point x="77" y="746"/>
      <point x="53" y="773" type="curve"/>
      <point x="49" y="765" type="line"/>
      <point x="78" y="732"/>
      <point x="131" y="716"/>
      <point x="178" y="709" type="curve"/>
      <point x="103" y="650"/>
      <point x="49" y="611"/>
      <point x="49" y="543" type="curve" smooth="yes"/>
      <point x="49" y="491"/>
      <point x="91" y="442"/>
      <point x="184" y="432" type="curve"/>
      <point x="184" y="430" type="line"/>
      <point x="68" y="366"/>
      <point x="24" y="292"/>
      <point x="24" y="184" type="curve" smooth="yes"/>
      <point x="24" y="52"/>
      <point x="97" y="12"/>
      <point x="191" y="-7" type="curve" smooth="yes"/>
      <point x="237" y="-16"/>
      <point x="281" y="-27"/>
      <point x="281" y="-86" type="curve" smooth="yes"/>
      <point x="281" y="-134"/>
      <point x="262" y="-179"/>
      <point x="209" y="-194" type="curve"/>
    </contour>
  </outline>
</glyph>
<glyph name="uni03FB" format="2">
  <advance width="586"/>
  <unicode hex="03FB"/>
  <anchor x="294" y="-240" name="bottom"/>
  <anchor x="294" y="536" name="top"/>
  <outline>
    <contour>
      <point x="134" y="-240" type="curve" smooth="yes"/>
      <point x="181" y="-240"/>
      <point x="203" y="-205"/>
      <point x="203" y="-161" type="curve"/>
      <point x="123" y="-158"/>
      <point x="80" y="-135"/>
      <point x="80" y="105" type="curve" smooth="yes"/>
      <point x="80" y="500" type="line"/>
      <point x="82" y="500" type="line"/>
      <point x="230" y="173" type="line"/>
      <point x="216" y="173" type="line"/>
      <point x="368" y="517" type="line"/>
      <point x="370" y="517" type="line"/>
      <point x="370" y="137" type="line" smooth="yes"/>
      <point x="370" y="25"/>
      <point x="409" y="-10"/>
      <point x="481" y="-10" type="curve" smooth="yes"/>
      <point x="511" y="-10"/>
      <point x="540" y="-7"/>
      <point x="566" y="3" type="curve"/>
      <point x="566" y="13" type="line"/>
      <point x="556" y="9"/>
      <point x="546" y="7"/>
      <point x="539" y="7" type="curve" smooth="yes"/>
      <point x="513" y="7"/>
      <point x="500" y="41"/>
      <point x="500" y="108" type="curve" smooth="yes"/>
      <point x="500" y="496" type="line" smooth="yes"/>
      <point x="500" y="522"/>
      <point x="507" y="526"/>
      <point x="525" y="526" type="curve" smooth="yes"/>
      <point x="544" y="526" type="line"/>
      <point x="544" y="536" type="line"/>
      <point x="365" y="536" type="line"/>
      <point x="276" y="335" type="line"/>
      <point x="186" y="536" type="line"/>
      <point x="10" y="536" type="line"/>
      <point x="10" y="526" type="line"/>
      <point x="39" y="526" type="line" smooth="yes"/>
      <point x="47" y="526"/>
      <point x="70" y="528"/>
      <point x="70" y="500" type="curve" smooth="yes"/>
      <point x="70" y="139" type="line" smooth="yes"/>
      <point x="70" y="15"/>
      <point x="60" y="-59"/>
      <point x="60" y="-152" type="curve" smooth="yes"/>
      <point x="60" y="-201"/>
      <point x="85" y="-240"/>
    </contour>
  </outline>
</glyph>
<glyph name="afii10029" format="2">
  <advance width="538"/>
  <unicode hex="041B"/>
  <anchor x="270" y="0" name="bottom"/>
  <anchor x="270" y="714" name="top"/>
  <outline>
    <contour>
      <point x="59" y="-7" type="curve" smooth="yes"/>
      <point x="107" y="-7"/>
      <point x="155" y="34"/>
      <point x="185" y="189" type="curve" smooth="yes"/>
      <point x="205" y="309"/>
      <point x="222" y="533"/>
      <point x="228" y="704" type="curve"/>
      <point x="313" y="704" type="line"/>
      <point x="313" y="78" type="line" smooth="yes"/>
      <point x="313" y="19"/>
      <point x="284" y="10"/>
      <point x="260" y="10" type="curve" smooth="yes"/>
      <point x="252" y="10" type="line"/>
      <point x="252" y="0" type="line"/>
      <point x="521" y="0" type="line"/>
      <point x="521" y="10" type="line"/>
      <point x="511" y="10" type="line" smooth="yes"/>
      <point x="485" y="10"/>
      <point x="458" y="19"/>
      <point x="458" y="84" type="curve" smooth="yes"/>
      <point x="458" y="636" type="line" smooth="yes"/>
      <point x="458" y="695"/>
      <point x="486" y="704"/>
      <point x="511" y="704" type="curve" smooth="yes"/>
      <point x="519" y="704" type="line"/>
      <point x="519" y="714" type="line"/>
      <point x="109" y="714" type="line"/>
      <point x="109" y="704" type="line"/>
      <point x="160" y="704" type="line" smooth="yes"/>
      <point x="221" y="704"/>
      <point x="212" y="672"/>
      <point x="212" y="602" type="curve" smooth="yes"/>
      <point x="212" y="551"/>
      <point x="198" y="385"/>
      <point x="190" y="295" type="curve" smooth="yes"/>
      <point x="161" y="104"/>
      <point x="108" y="83"/>
      <point x="81" y="83" type="curve" smooth="yes"/>
      <point x="51" y="83"/>
      <point x="36" y="106"/>
      <point x="38" y="136" type="curve"/>
      <point x="18" y="123"/>
      <point x="-1" y="103"/>
      <point x="-1" y="67" type="curve" smooth="yes"/>
      <point x="-1" y="27"/>
      <point x="21" y="-7"/>
    </contour>
  </outline>
</glyph>
<glyph name="afii10068" format="2">
  <advance width="385"/>
  <unicode hex="0433"/>
  <anchor x="192" y="0" name="bottom"/>
  <anchor x="192" y="536" name="top"/>
  <outline>
    <contour>
      <point x="10" y="0" type="line"/>
      <point x="259" y="0" type="line"/>
      <point x="259" y="10" type="line"/>
      <point x="243" y="10" type="line" smooth="yes"/>
      <point x="219" y="10"/>
      <point x="205" y="22"/>
      <point x="205" y="76" type="curve" smooth="yes"/>
      <point x="205" y="526" type="line"/>
      <point x="215" y="526" type="line" smooth="yes"/>
      <point x="314" y="526"/>
      <point x="347" y="490"/>
      <point x="358" y="374" type="curve" smooth="yes"/>
      <point x="361" y="348" type="line"/>
      <point x="371" y="348" type="line"/>
      <point x="371" y="536" type="line"/>
      <point x="10" y="536" type="line"/>
      <point x="10" y="526" type="line"/>
      <point x="17" y="526" type="line" smooth="yes"/>
      <point x="45" y="526"/>
      <point x="62" y="515"/>
      <point x="62" y="459" type="curve" smooth="yes"/>
      <point x="62" y="76" type="line" smooth="yes"/>
      <point x="62" y="23"/>
      <point x="52" y="10"/>
      <point x="17" y="10" type="curve" smooth="yes"/>
      <point x="10" y="10" type="line"/>
    </contour>
  </outline>
</glyph>
<glyph name="afii10074" format="2">
  <advance width="514"/>
  <unicode hex="0438"/>
  <anchor x="258" y="0" name="bottom"/>
  <anchor x="258" y="536" name="top"/>
  <outline>
    <contour>
      <point x="10" y="0" type="line"/>
      <point x="236" y="0" type="line"/>
      <point x="236" y="10" type="line"/>
      <point x="230" y="10" type="line" smooth="yes"/>
      <point x="212" y="10"/>
      <point x="205" y="21"/>
      <point x="205" y="64" type="curve" smooth="yes"/>
      <point x="205" y="149" type="line"/>
      <point x="310" y="368" type="line"/>
      <point x="310" y="69" type="line" smooth="yes"/>
      <point x="310" y="25"/>
      <point x="303" y="10"/>
      <point x="286" y="10" type="curve" smooth="yes"/>
      <point x="278" y="10" type="line"/>
      <point x="278" y="0" type="line"/>
      <point x="506" y="0" type="line"/>
      <point x="506" y="10" type="line"/>
      <point x="496" y="10" type="line" smooth="yes"/>
      <point x="470" y="10"/>
      <point x="452" y="25"/>
      <point x="452" y="82" type="curve" smooth="yes"/>
      <point x="452" y="458" type="line" smooth="yes"/>
      <point x="452" y="514"/>
      <point x="470" y="526"/>
      <point x="496" y="526" type="curve" smooth="yes"/>
      <point x="506" y="526" type="line"/>
      <point x="506" y="536" type="line"/>
      <point x="278" y="536" type="line"/>
      <point x="278" y="526" type="line"/>
      <point x="285" y="526" type="line" smooth="yes"/>
      <point x="302" y="526"/>
      <point x="310" y="512"/>
      <point x="310" y="476" type="curve" smooth="yes"/>
      <point x="310" y="392" type="line"/>
      <point x="205" y="173" type="line"/>
      <point x="205" y="474" type="line" smooth="yes"/>
      <point x="205" y="517"/>
      <point x="214" y="526"/>
      <point x="232" y="526" type="curve" smooth="yes"/>
      <point x="238" y="526" type="line"/>
      <point x="238" y="536" type="line"/>
      <point x="10" y="536" type="line"/>
      <point x="10" y="526" type="line"/>
      <point x="17" y="526" type="line" smooth="yes"/>
      <point x="45" y="526"/>
      <point x="62" y="516"/>
      <point x="62" y="458" type="curve" smooth="yes"/>
      <point x="62" y="78" type="line" smooth="yes"/>
      <point x="62" y="20"/>
      <point x="45" y="10"/>
      <point x="17" y="10" type="curve" smooth="yes"/>
      <point x="10" y="10" type="line"/>
    </contour>
  </outline>
</glyph>
<glyph name="afii10076" format="2">
  <advance width="479"/>
  <unicode hex="043A"/>
  <anchor x="239" y="0" name="bottom"/>
  <anchor x="239" y="536" name="top"/>
  <outline>
    <contour>
      <point x="11" y="0" type="line"/>
      <point x="244" y="0" type="line"/>
      <point x="244" y="10" type="line"/>
      <point x="248" y="10" type="line" smooth="yes"/>
      <point x="216" y="10"/>
      <point x="204" y="25"/>
      <point x="204" y="76" type="curve" smooth="yes"/>
      <point x="204" y="278" type="line"/>
      <point x="222" y="279"/>
      <point x="220" y="262"/>
      <point x="251" y="188" type="curve" smooth="yes"/>
      <point x="292" y="91" type="line" smooth="yes"/>
      <point x="325" y="15"/>
      <point x="366" y="0"/>
      <point x="462" y="0" type="curve" smooth="yes"/>
      <point x="484" y="0" type="line"/>
      <point x="484" y="10" type="line"/>
      <point x="480" y="10" type="line" smooth="yes"/>
      <point x="480" y="10"/>
      <point x="480" y="9"/>
      <point x="426" y="119" type="curve" smooth="yes"/>
      <point x="380" y="213" type="line" smooth="yes"/>
      <point x="356" y="265"/>
      <point x="336" y="292"/>
      <point x="251" y="292" type="curve"/>
      <point x="271" y="317"/>
      <point x="279" y="326"/>
      <point x="295" y="357" type="curve" smooth="yes"/>
      <point x="328" y="418"/>
      <point x="345" y="446"/>
      <point x="377" y="446" type="curve" smooth="yes"/>
      <point x="397" y="446"/>
      <point x="419" y="431"/>
      <point x="423" y="404" type="curve"/>
      <point x="443" y="408"/>
      <point x="473" y="427"/>
      <point x="473" y="483" type="curve" smooth="yes"/>
      <point x="473" y="517"/>
      <point x="464" y="542"/>
      <point x="426" y="542" type="curve" smooth="yes"/>
      <point x="390" y="542"/>
      <point x="372" y="520"/>
      <point x="330" y="445" type="curve" smooth="yes"/>
      <point x="298" y="386"/>
      <point x="277" y="339"/>
      <point x="253" y="312" type="curve" smooth="yes"/>
      <point x="241" y="298"/>
      <point x="227" y="287"/>
      <point x="204" y="288" type="curve"/>
      <point x="204" y="462" type="line" smooth="yes"/>
      <point x="204" y="509"/>
      <point x="214" y="526"/>
      <point x="248" y="526" type="curve" smooth="yes"/>
      <point x="244" y="526" type="line"/>
      <point x="244" y="536" type="line"/>
      <point x="11" y="536" type="line"/>
      <point x="11" y="526" type="line"/>
      <point x="2" y="526" type="line" smooth="yes"/>
      <point x="51" y="526"/>
      <point x="61" y="509"/>
      <point x="61" y="460" type="curve" smooth="yes"/>
      <point x="61" y="74" type="line" smooth="yes"/>
      <point x="61" y="28"/>
      <point x="52" y="10"/>
      <point x="5" y="10" type="curve" smooth="yes"/>
      <point x="11" y="10" type="line"/>
    </contour>
  </outline>
</glyph>
<glyph name="afii10086" format="2">
  <advance width="650"/>
  <unicode hex="0444"/>
  <anchor x="326" y="-241" name="bottom"/>
  <anchor x="326" y="760" name="top"/>
  <outline>
    <contour>
      <point x="205" y="-241" type="line"/>
      <point x="448" y="-241" type="line"/>
      <point x="448" y="-231" type="line"/>
      <point x="440" y="-231" type="line" smooth="yes"/>
      <point x="410" y="-231"/>
      <point x="394" y="-217"/>
      <point x="394" y="-159" type="curve" smooth="yes"/>
      <point x="394" y="-5" type="line"/>
      <point x="535" y="4"/>
      <point x="619" y="104"/>
      <point x="619" y="269" type="curve" smooth="yes"/>
      <point x="619" y="430"/>
      <point x="530" y="530"/>
      <point x="394" y="540" type="curve"/>
      <point x="394" y="760" type="line"/>
      <point x="205" y="760" type="line"/>
      <point x="205" y="750" type="line"/>
      <point x="213" y="750" type="line" smooth="yes"/>
      <point x="239" y="750"/>
      <point x="258" y="736"/>
      <point x="258" y="682" type="curve" smooth="yes"/>
      <point x="258" y="541" type="line"/>
      <point x="115" y="532"/>
      <point x="29" y="433"/>
      <point x="29" y="269" type="curve" smooth="yes"/>
      <point x="29" y="104"/>
      <point x="121" y="4"/>
      <point x="258" y="-5" type="curve"/>
      <point x="258" y="-159" type="line" smooth="yes"/>
      <point x="258" y="-217"/>
      <point x="243" y="-231"/>
      <point x="213" y="-231" type="curve" smooth="yes"/>
      <point x="205" y="-231" type="line"/>
    </contour>
    <contour>
      <point x="260" y="5" type="line"/>
      <point x="189" y="28"/>
      <point x="165" y="95"/>
      <point x="165" y="268" type="curve" smooth="yes"/>
      <point x="165" y="443"/>
      <point x="189" y="510"/>
      <point x="260" y="527" type="curve"/>
    </contour>
    <contour>
      <point x="394" y="8" type="curve"/>
      <point x="394" y="528" type="line"/>
      <point x="461" y="509"/>
      <point x="484" y="442"/>
      <point x="484" y="269" type="curve" smooth="yes"/>
      <point x="484" y="96"/>
      <point x="461" y="28"/>
    </contour>
  </outline>
</glyph>
<glyph name="afii10107" format="2">
  <advance width="674"/>
  <unicode hex="045A"/>
  <anchor x="338" y="0" name="bottom"/>
  <anchor x="338" y="536" name="top"/>
  <outline>
    <contour>
      <point x="10" y="0" type="line"/>
      <point x="240" y="0" type="line"/>
      <point x="240" y="10" type="line"/>
      <point x="236" y="10" type="line" smooth="yes"/>
      <point x="213" y="10"/>
      <point x="204" y="21"/>
      <point x="204" y="76" type="curve" smooth="yes"/>
      <point x="204" y="269" type="line"/>
      <point x="295" y="269" type="line"/>
      <point x="295" y="76" type="line" smooth="yes"/>
      <point x="295" y="21"/>
      <point x="286" y="10"/>
      <point x="262" y="10" type="curve" smooth="yes"/>
      <point x="259" y="10" type="line"/>
      <point x="259" y="0" type="line"/>
      <point x="499" y="0" type="line" smooth="yes"/>
      <point x="615" y="0"/>
      <point x="672" y="60"/>
      <point x="672" y="158" type="curve" smooth="yes"/>
      <point x="672" y="281"/>
      <point x="594" y="305"/>
      <point x="506" y="305" type="curve" smooth="yes"/>
      <point x="438" y="305" type="line"/>
      <point x="438" y="459" type="line" smooth="yes"/>
      <point x="438" y="507"/>
      <point x="449" y="526"/>
      <point x="488" y="526" type="curve" smooth="yes"/>
      <point x="498" y="526" type="line"/>
      <point x="498" y="536" type="line"/>
      <point x="259" y="536" type="line"/>
      <point x="259" y="526" type="line"/>
      <point x="262" y="526" type="line" smooth="yes"/>
      <point x="286" y="526"/>
      <point x="295" y="514"/>
      <point x="295" y="461" type="curve" smooth="yes"/>
      <point x="295" y="279" type="line"/>
      <point x="204" y="279" type="line"/>
      <point x="204" y="460" type="line" smooth="yes"/>
      <point x="204" y="514"/>
      <point x="211" y="526"/>
      <point x="236" y="526" type="curve" smooth="yes"/>
      <point x="240" y="526" type="line"/>
      <point x="240" y="536" type="line"/>
      <point x="10" y="536" type="line"/>
      <point x="10" y="526" type="line"/>
      <point x="19" y="526" type="line" smooth="yes"/>
      <point x="46" y="526"/>
      <point x="62" y="514"/>
      <point x="62" y="461" type="curve" smooth="yes"/>
      <point x="62" y="76" type="line" smooth="yes"/>
      <point x="62" y="21"/>
      <point x="47" y="10"/>
      <point x="19" y="10" type="curve" smooth="yes"/>
      <point x="10" y="10" type="line"/>
    </contour>
    <contour>
      <point x="438" y="10" type="line"/>
      <point x="438" y="295" type="line"/>
      <point x="461" y="295" type="line" smooth="yes"/>
      <point x="491" y="295"/>
      <point x="527" y="260"/>
      <point x="527" y="163" type="curve" smooth="yes"/>
      <point x="527" y="55"/>
      <point x="500" y="10"/>
      <point x="462" y="10" type="curve" smooth="yes"/>
    </contour>
  </outline>
</glyph>
<glyph name="uni0461" format="2">
  <advance width="649"/>
  <unicode hex="0461"/>
  <anchor x="325" y="0" name="bottom"/>
  <anchor x="325" y="536" name="top"/>
  <outline>
    <contour>
      <point x="178" y="0" type="curve"/>
      <point x="277" y="0" type="line"/>
      <point x="349" y="216" type="line"/>
      <point x="367" y="130"/>
      <point x="386" y="50"/>
      <point x="399" y="0" type="curve"/>
      <point x="458" y="0" type="line"/>
      <point x="496" y="14"/>
      <point x="625" y="293"/>
      <point x="625" y="439" type="curve" smooth="yes"/>
      <point x="625" y="515"/>
      <point x="597" y="546"/>
      <point x="562" y="546" type="curve" smooth="yes"/>
      <point x="535" y="546"/>
      <point x="504" y="522"/>
      <point x="504" y="477" type="curve"/>
      <point x="557" y="472"/>
      <point x="597" y="445"/>
      <point x="597" y="355" type="curve" smooth="yes"/>
      <point x="597" y="271"/>
      <point x="557" y="156"/>
      <point x="510" y="86" type="curve"/>
      <point x="451" y="296"/>
      <point x="417" y="444"/>
      <point x="388" y="536" type="curve"/>
      <point x="270" y="536" type="line"/>
      <point x="285" y="482"/>
      <point x="315" y="357"/>
      <point x="344" y="234" type="curve"/>
      <point x="286" y="59" type="line"/>
      <point x="216" y="448"/>
      <point x="182" y="545"/>
      <point x="95" y="545" type="curve" smooth="yes"/>
      <point x="67" y="545"/>
      <point x="28" y="521"/>
      <point x="0" y="495" type="curve"/>
      <point x="3" y="485" type="line"/>
      <point x="21" y="499"/>
      <point x="26" y="500"/>
      <point x="33" y="500" type="curve" smooth="yes"/>
      <point x="91" y="500"/>
      <point x="149" y="174"/>
    </contour>
  </outline>
</glyph>
<glyph name="uni0468" format="2">
  <advance width="876"/>
  <unicode hex="0468"/>
  <anchor x="459" y="0" name="bottom"/>
  <anchor x="459" y="714" name="top"/>
  <outline>
    <contour>
      <point x="16" y="0" type="line"/>
      <point x="266" y="0" type="line"/>
      <point x="266" y="10" type="line"/>
      <point x="252" y="10" type="line" smooth="yes"/>
      <point x="235" y="10"/>
      <point x="228" y="28"/>
      <point x="228" y="68" type="curve" smooth="yes"/>
      <point x="228" y="357" type="line"/>
      <point x="464" y="357" type="line"/>
      <point x="464" y="367" type="line"/>
      <point x="228" y="367" type="line"/>
      <point x="228" y="648" type="line" smooth="yes"/>
      <point x="228" y="690"/>
      <point x="235" y="704"/>
      <point x="252" y="704" type="curve" smooth="yes"/>
      <point x="279" y="704" type="line"/>
      <point x="279" y="714" type="line"/>
      <point x="16" y="714" type="line"/>
      <point x="16" y="704" type="line"/>
      <point x="47" y="704" type="line" smooth="yes"/>
      <point x="65" y="704"/>
      <point x="81" y="690"/>
      <point x="81" y="644" type="curve" smooth="yes"/>
      <point x="81" y="68" type="line" smooth="yes"/>
      <point x="81" y="28"/>
      <point x="70" y="10"/>
      <point x="54" y="10" type="curve" smooth="yes"/>
      <point x="16" y="10" type="line"/>
    </contour>
    <component base="uni0466" xOffset="291"/>
  </outline>
</glyph>
<glyph name="uni046E" format="2">
  <advance width="409"/>
  <unicode hex="046E"/>
  <anchor x="204" y="-236" name="bottom"/>
  <anchor x="204" y="857" name="top"/>
  <outline>
    <contour>
      <point x="309" y="-234" type="curve"/>
      <point x="349" y="-225"/>
      <point x="375" y="-189"/>
      <point x="375" y="-145" type="curve" smooth="yes"/>
      <point x="375" y="-94"/>
      <point x="337" y="-70"/>
      <point x="303" y="-70" type="curve" smooth="yes"/>
      <point x="222" y="-70"/>
      <point x="218" y="-193"/>
      <point x="151" y="-193" type="curve" smooth="yes"/>
      <point x="111" y="-193"/>
      <point x="86" y="-154"/>
      <point x="86" y="-92" type="curve" smooth="yes"/>
      <point x="86" y="-2"/>
      <point x="133" y="15"/>
      <point x="179" y="25" type="curve" smooth="yes"/>
      <point x="236" y="40"/>
      <point x="394" y="32"/>
      <point x="394" y="196" type="curve" smooth="yes"/>
      <point x="394" y="297"/>
      <point x="340" y="369"/>
      <point x="205" y="370" type="curve"/>
      <point x="324" y="385"/>
      <point x="375" y="461"/>
      <point x="375" y="559" type="curve" smooth="yes"/>
      <point x="375" y="685"/>
      <point x="280" y="716"/>
      <point x="205" y="722" type="curve"/>
      <point x="220" y="740"/>
      <point x="245" y="776"/>
      <point x="290" y="776" type="curve" smooth="yes"/>
      <point x="302" y="776"/>
      <point x="314" y="773"/>
      <point x="325" y="766" type="curve"/>
      <point x="327" y="773"/>
      <point x="333" y="786"/>
      <point x="333" y="803" type="curve" smooth="yes"/>
      <point x="333" y="832"/>
      <point x="316" y="850"/>
      <point x="292" y="850" type="curve" smooth="yes"/>
      <point x="254" y="850"/>
      <point x="225" y="802"/>
      <point x="198" y="732" type="curve"/>
      <point x="178" y="776"/>
      <point x="122" y="825"/>
      <point x="71" y="849" type="curve"/>
      <point x="62" y="849" type="line"/>
      <point x="62" y="838" type="line"/>
      <point x="63" y="828"/>
      <point x="112" y="769"/>
      <point x="135" y="721" type="curve"/>
      <point x="36" y="707"/>
      <point x="-7" y="647"/>
      <point x="-7" y="588" type="curve" smooth="yes"/>
      <point x="-7" y="524"/>
      <point x="60" y="510"/>
      <point x="110" y="510" type="curve"/>
      <point x="110" y="656"/>
      <point x="130" y="714"/>
      <point x="178" y="714" type="curve" smooth="yes"/>
      <point x="222" y="714"/>
      <point x="237" y="673"/>
      <point x="237" y="570" type="curve" smooth="yes"/>
      <point x="237" y="411"/>
      <point x="220" y="374"/>
      <point x="162" y="374" type="curve" smooth="yes"/>
      <point x="83" y="374" type="line"/>
      <point x="83" y="364" type="line"/>
      <point x="163" y="364" type="line" smooth="yes"/>
      <point x="235" y="364"/>
      <point x="257" y="326"/>
      <point x="257" y="216" type="curve" smooth="yes"/>
      <point x="257" y="41"/>
      <point x="191" y="45"/>
      <point x="123" y="28" type="curve" smooth="yes"/>
      <point x="85" y="16"/>
      <point x="6" y="20"/>
      <point x="6" y="-90" type="curve" smooth="yes"/>
      <point x="6" y="-159"/>
      <point x="26" y="-205"/>
      <point x="118" y="-205" type="curve" smooth="yes"/>
      <point x="194" y="-205"/>
      <point x="208" y="-179"/>
      <point x="249" y="-179" type="curve" smooth="yes"/>
      <point x="274" y="-179"/>
      <point x="303" y="-187"/>
    </contour>
  </outline>
</glyph>
<glyph name="uni0474" format="2">
  <advance width="570"/>
  <unicode hex="0474"/>
  <anchor x="282" y="0" name="bottom"/>
  <anchor x="282" y="714" name="top"/>
  <outline>
    <contour>
      <point x="213" y="0" type="line"/>
      <point x="290" y="0" type="line"/>
      <point x="413" y="505" type="line" smooth="yes"/>
      <point x="437" y="604"/>
      <point x="454" y="624"/>
      <point x="482" y="624" type="curve" smooth="yes"/>
      <point x="512" y="624"/>
      <point x="521" y="601"/>
      <point x="518" y="581" type="curve"/>
      <point x="542" y="584"/>
      <point x="570" y="615"/>
      <point x="570" y="654" type="curve" smooth="yes"/>
      <point x="570" y="680"/>
      <point x="556" y="720"/>
      <point x="512" y="720" type="curve" smooth="yes"/>
      <point x="472" y="720"/>
      <point x="452" y="688"/>
      <point x="447" y="664" type="curve" smooth="yes"/>
      <point x="354" y="296" type="line" smooth="yes"/>
      <point x="343" y="252"/>
      <point x="333" y="218"/>
      <point x="304" y="98" type="curve"/>
      <point x="292" y="163"/>
      <point x="280" y="223"/>
      <point x="272" y="274" type="curve" smooth="yes"/>
      <point x="207" y="627" type="line" smooth="yes"/>
      <point x="206" y="633"/>
      <point x="202" y="653"/>
      <point x="202" y="665" type="curve" smooth="yes"/>
      <point x="202" y="697"/>
      <point x="226" y="704"/>
      <point x="239" y="704" type="curve" smooth="yes"/>
      <point x="254" y="704" type="line"/>
      <point x="254" y="714" type="line"/>
      <point x="0" y="714" type="line"/>
      <point x="0" y="704" type="line"/>
      <point x="4" y="704" type="line" smooth="yes"/>
      <point x="19" y="704"/>
      <point x="45" y="693"/>
      <point x="55" y="653" type="curve" smooth="yes"/>
    </contour>
  </outline>
</glyph>
<glyph name="titlocomb.cy" format="2">
  <unicode hex="0483"/>
  <anchor x="-1" y="536" name="_top"/>
  <anchor x="-1" y="681" name="top"/>
  <outline>
    <contour>
      <point x="-112" y="568" type="curve" smooth="yes"/>
      <point x="-79" y="568"/>
      <point x="-75" y="583"/>
      <point x="-75" y="633" type="curve"/>
      <point x="112" y="633" type="line" smooth="yes"/>
      <point x="135" y="633"/>
      <point x="151" y="644"/>
      <point x="151" y="676" type="curve" smooth="yes"/>
      <point x="151" y="705"/>
      <point x="138" y="718"/>
      <point x="113" y="718" type="curve" smooth="yes"/>
      <point x="79" y="718"/>
      <point x="76" y="704"/>
      <point x="76" y="653" type="curve"/>
      <point x="-112" y="653" type="line" smooth="yes"/>
      <point x="-137" y="653"/>
      <point x="-150" y="640"/>
      <point x="-150" y="611" type="curve" smooth="yes"/>
      <point x="-150" y="582"/>
      <point x="-137" y="568"/>
    </contour>
  </outline>
</glyph>
<glyph name="uni048F" format="2">
  <advance width="483"/>
  <unicode hex="048F"/>
  <anchor x="242" y="-228" name="bottom"/>
  <anchor x="242" y="536" name="top"/>
  <anchor x="480" y="536" name="topright"/>
  <outline>
    <contour>
      <point x="382" y="-101" type="line"/>
      <point x="392" y="-96" type="line"/>
      <point x="252" y="184" type="line"/>
      <point x="242" y="179" type="line"/>
    </contour>
    <component base="p"/>
  </outline>
</glyph>
<glyph name="uni0495" format="2">
  <advance width="481"/>
  <unicode hex="0495"/>
  <anchor x="240" y="-240" name="bottom"/>
  <anchor x="240" y="536" name="top"/>
  <outline>
    <contour>
      <point x="247" y="-240" type="curve" smooth="yes"/>
      <point x="368" y="-240"/>
      <point x="457" y="-168"/>
      <point x="457" y="44" type="curve" smooth="yes"/>
      <point x="457" y="227"/>
      <point x="388" y="304"/>
      <point x="273" y="304" type="curve" smooth="yes"/>
      <point x="244" y="304"/>
      <point x="220" y="299"/>
      <point x="205" y="294" type="curve"/>
      <point x="205" y="526" type="line"/>
      <point x="209" y="526" type="line" smooth="yes"/>
      <point x="314" y="526"/>
      <point x="350" y="489"/>
      <point x="359" y="368" type="curve" smooth="yes"/>
      <point x="361" y="336" type="line"/>
      <point x="371" y="336" type="line"/>
      <point x="371" y="536" type="line"/>
      <point x="10" y="536" type="line"/>
      <point x="10" y="526" type="line"/>
      <point x="17" y="526" type="line" smooth="yes"/>
      <point x="45" y="526"/>
      <point x="62" y="515"/>
      <point x="62" y="459" type="curve" smooth="yes"/>
      <point x="62" y="76" type="line" smooth="yes"/>
      <point x="62" y="23"/>
      <point x="52" y="10"/>
      <point x="17" y="10" type="curve" smooth="yes"/>
      <point x="10" y="10" type="line"/>
      <point x="10" y="0" type="line"/>
      <point x="259" y="0" type="line"/>
      <point x="259" y="10" type="line"/>
      <point x="243" y="10" type="line" smooth="yes"/>
      <point x="219" y="10"/>
      <point x="205" y="22"/>
      <point x="205" y="76" type="curve" smooth="yes"/>
      <point x="205" y="282" type="line"/>
      <point x="215" y="286"/>
      <point x="227" y="289"/>
      <point x="241" y="289" type="curve" smooth="yes"/>
      <point x="285" y="289"/>
      <point x="314" y="240"/>
      <point x="314" y="41" type="curve" smooth="yes"/>
      <point x="314" y="-166"/>
      <point x="295" y="-230"/>
      <point x="251" y="-230" type="curve" smooth="yes"/>
      <point x="206" y="-230"/>
      <point x="196" y="-193"/>
      <point x="196" y="-68" type="curve"/>
      <point x="128" y="-68"/>
      <point x="111" y="-96"/>
      <point x="111" y="-133" type="curve" smooth="yes"/>
      <point x="111" y="-190"/>
      <point x="153" y="-240"/>
    </contour>
  </outline>
</glyph>
<glyph name="uni0498" format="2">
  <advance width="454"/>
  <unicode hex="0498"/>
  <anchor x="227" y="-218" name="bottom"/>
  <anchor x="227" y="714" name="top"/>
  <outline>
    <contour>
      <point x="198" y="-218" type="curve" smooth="yes"/>
      <point x="258" y="-218"/>
      <point x="299" y="-179"/>
      <point x="299" y="-123" type="curve" smooth="yes"/>
      <point x="299" y="-73"/>
      <point x="266" y="-29"/>
      <point x="223" y="-11" type="curve"/>
      <point x="323" y="-6"/>
      <point x="441" y="46"/>
      <point x="441" y="197" type="curve" smooth="yes"/>
      <point x="441" y="316"/>
      <point x="374" y="371"/>
      <point x="245" y="370" type="curve"/>
      <point x="367" y="385"/>
      <point x="421" y="460"/>
      <point x="421" y="560" type="curve" smooth="yes"/>
      <point x="421" y="690"/>
      <point x="314" y="724"/>
      <point x="216" y="724" type="curve" smooth="yes"/>
      <point x="111" y="724"/>
      <point x="40" y="666"/>
      <point x="40" y="585" type="curve" smooth="yes"/>
      <point x="40" y="546"/>
      <point x="62" y="510"/>
      <point x="155" y="510" type="curve"/>
      <point x="155" y="658"/>
      <point x="175" y="714"/>
      <point x="221" y="714" type="curve" smooth="yes"/>
      <point x="268" y="714"/>
      <point x="284" y="670"/>
      <point x="284" y="548" type="curve" smooth="yes"/>
      <point x="284" y="423"/>
      <point x="268" y="374"/>
      <point x="218" y="374" type="curve" smooth="yes"/>
      <point x="108" y="374" type="line"/>
      <point x="108" y="364" type="line"/>
      <point x="197" y="364" type="line" smooth="yes"/>
      <point x="279" y="364"/>
      <point x="306" y="334"/>
      <point x="306" y="200" type="curve" smooth="yes"/>
      <point x="306" y="50"/>
      <point x="282" y="-1"/>
      <point x="205" y="-1" type="curve" smooth="yes"/>
      <point x="136" y="-1"/>
      <point x="107" y="62"/>
      <point x="105" y="223" type="curve"/>
      <point x="49" y="223"/>
      <point x="14" y="191"/>
      <point x="14" y="130" type="curve" smooth="yes"/>
      <point x="14" y="60"/>
      <point x="69" y="-13"/>
      <point x="214" y="-11" type="curve"/>
      <point x="230" y="-28"/>
      <point x="240" y="-57"/>
      <point x="240" y="-87" type="curve" smooth="yes"/>
      <point x="240" y="-127"/>
      <point x="221" y="-156"/>
      <point x="184" y="-156" type="curve" smooth="yes"/>
      <point x="176" y="-156"/>
      <point x="166" y="-154"/>
      <point x="159" y="-151" type="curve"/>
      <point x="154" y="-158"/>
      <point x="152" y="-167"/>
      <point x="152" y="-176" type="curve" smooth="yes"/>
      <point x="152" y="-197"/>
      <point x="155" y="-218"/>
    </contour>
  </outline>
</glyph>
<glyph name="uni0499" format="2">
  <advance width="405"/>
  <unicode hex="0499"/>
  <anchor x="202" y="-218" name="bottom"/>
  <anchor x="202" y="536" name="top"/>
  <outline>
    <contour>
      <point x="179" y="-218" type="curve" smooth="yes"/>
      <point x="239" y="-218"/>
      <point x="280" y="-179"/>
      <point x="280" y="-123" type="curve" smooth="yes"/>
      <point x="280" y="-73"/>
      <point x="246" y="-29"/>
      <point x="204" y="-8" type="curve"/>
      <point x="329" y="-5"/>
      <point x="383" y="60"/>
      <point x="383" y="154" type="curve" smooth="yes"/>
      <point x="383" y="214"/>
      <point x="366" y="269"/>
      <point x="269" y="276" type="curve"/>
      <point x="269" y="278" type="line"/>
      <point x="363" y="298"/>
      <point x="374" y="367"/>
      <point x="374" y="412" type="curve" smooth="yes"/>
      <point x="374" y="498"/>
      <point x="309" y="547"/>
      <point x="196" y="547" type="curve" smooth="yes"/>
      <point x="83" y="547"/>
      <point x="42" y="496"/>
      <point x="42" y="448" type="curve" smooth="yes"/>
      <point x="42" y="400"/>
      <point x="85" y="375"/>
      <point x="133" y="375" type="curve"/>
      <point x="133" y="511"/>
      <point x="151" y="537"/>
      <point x="181" y="537" type="curve" smooth="yes"/>
      <point x="220" y="537"/>
      <point x="232" y="505"/>
      <point x="232" y="402" type="curve" smooth="yes"/>
      <point x="232" y="315"/>
      <point x="218" y="280"/>
      <point x="172" y="280" type="curve" smooth="yes"/>
      <point x="114" y="280" type="line"/>
      <point x="114" y="270" type="line"/>
      <point x="169" y="270" type="line" smooth="yes"/>
      <point x="222" y="270"/>
      <point x="242" y="234"/>
      <point x="242" y="148" type="curve" smooth="yes"/>
      <point x="242" y="34"/>
      <point x="230" y="2"/>
      <point x="182" y="2" type="curve" smooth="yes"/>
      <point x="126" y="2"/>
      <point x="111" y="40"/>
      <point x="111" y="180" type="curve"/>
      <point x="81" y="180"/>
      <point x="26" y="156"/>
      <point x="26" y="102" type="curve" smooth="yes"/>
      <point x="26" y="44"/>
      <point x="67" y="-8"/>
      <point x="195" y="-8" type="curve"/>
      <point x="211" y="-27"/>
      <point x="221" y="-57"/>
      <point x="221" y="-87" type="curve" smooth="yes"/>
      <point x="221" y="-127"/>
      <point x="202" y="-156"/>
      <point x="165" y="-156" type="curve" smooth="yes"/>
      <point x="157" y="-156"/>
      <point x="147" y="-154"/>
      <point x="140" y="-151" type="curve"/>
      <point x="135" y="-158"/>
      <point x="133" y="-167"/>
      <point x="133" y="-176" type="curve" smooth="yes"/>
      <point x="133" y="-197"/>
      <point x="136" y="-218"/>
    </contour>
  </outline>
</glyph>
<glyph name="uni04B8" format="2">
  <advance width="576"/>
  <unicode hex="04B8"/>
  <anchor x="289" y="0" name="bottom"/>
  <anchor x="289" y="714" name="top"/>
  <outline>
    <contour>
      <point x="277" y="117" type="line"/>
      <point x="287" y="117" type="line"/>
      <point x="287" y="483" type="line"/>
      <point x="277" y="483" type="line"/>
    </contour>
    <component base="afii10041"/>
  </outline>
</glyph>
<glyph name="uni04CE" format="2">
  <advance width="603"/>
  <unicode hex="04CE"/>
  <anchor x="302" y="0" name="bottom"/>
  <anchor x="302" y="536" name="top"/>
  <outline>
    <contour>
      <point x="481" y="-210" type="line"/>
      <point x="544" y="-210" type="line"/>
      <point x="592" y="2" type="line"/>
      <point x="589" y="10" type="line"/>
      <point x="584" y="10" type="line"/>
      <point x="584" y="0" type="line"/>
    </contour>
    <component base="afii10078"/>
  </outline>
</glyph>
<glyph name="uni04E1" format="2">
  <advance width="411"/>
  <unicode hex="04E1"/>
  <anchor x="206" y="-240" name="bottom"/>
  <anchor x="206" y="536" name="top"/>
  <outline>
    <contour>
      <point x="161" y="-240" type="curve" smooth="yes"/>
      <point x="310" y="-240"/>
      <point x="389" y="-149"/>
      <point x="389" y="7" type="curve" smooth="yes"/>
      <point x="389" y="154"/>
      <point x="286" y="231"/>
      <point x="117" y="231" type="curve"/>
      <point x="375" y="473" type="line"/>
      <point x="375" y="536" type="line"/>
      <point x="33" y="536" type="line"/>
      <point x="34" y="341" type="line"/>
      <point x="42" y="341" type="line"/>
      <point x="41" y="369" type="line" smooth="yes"/>
      <point x="40" y="419"/>
      <point x="54" y="434"/>
      <point x="95" y="434" type="curve" smooth="yes"/>
      <point x="317" y="434" type="line"/>
      <point x="104" y="231" type="line"/>
      <point x="104" y="221" type="line"/>
      <point x="119" y="221" type="line" smooth="yes"/>
      <point x="210" y="221"/>
      <point x="248" y="159"/>
      <point x="248" y="7" type="curve" smooth="yes"/>
      <point x="248" y="-174"/>
      <point x="228" y="-230"/>
      <point x="172" y="-230" type="curve" smooth="yes"/>
      <point x="112" y="-230"/>
      <point x="94" y="-185"/>
      <point x="94" y="-45" type="curve"/>
      <point x="46" y="-45"/>
      <point x="9" y="-77"/>
      <point x="9" y="-130" type="curve" smooth="yes"/>
      <point x="9" y="-194"/>
      <point x="73" y="-240"/>
    </contour>
  </outline>
</glyph>
<glyph name="uni0505" format="2">
  <advance width="665"/>
  <unicode hex="0505"/>
  <anchor x="332" y="0" name="bottom"/>
  <anchor x="332" y="536" name="top"/>
  <outline>
    <contour>
      <point x="369" y="-10" type="curve" smooth="yes"/>
      <point x="523" y="-10"/>
      <point x="594" y="56"/>
      <point x="594" y="158" type="curve" smooth="yes"/>
      <point x="594" y="268" type="line" smooth="yes"/>
      <point x="594" y="312"/>
      <point x="588" y="334"/>
      <point x="647" y="334" type="curve" smooth="yes"/>
      <point x="653" y="334" type="line"/>
      <point x="653" y="344" type="line"/>
      <point x="395" y="344" type="line"/>
      <point x="395" y="334" type="line"/>
      <point x="391" y="334" type="line" smooth="yes"/>
      <point x="459" y="334"/>
      <point x="454" y="312"/>
      <point x="454" y="266" type="curve" smooth="yes"/>
      <point x="454" y="141" type="line" smooth="yes"/>
      <point x="454" y="31"/>
      <point x="444" y="0"/>
      <point x="411" y="0" type="curve" smooth="yes"/>
      <point x="341" y="0"/>
      <point x="357" y="95"/>
      <point x="341" y="147" type="curve" smooth="yes"/>
      <point x="318" y="241"/>
      <point x="299" y="277"/>
      <point x="180" y="276" type="curve"/>
      <point x="180" y="278" type="line"/>
      <point x="272" y="300"/>
      <point x="337" y="336"/>
      <point x="337" y="419" type="curve" smooth="yes"/>
      <point x="337" y="503"/>
      <point x="273" y="547"/>
      <point x="160" y="547" type="curve" smooth="yes"/>
      <point x="36" y="547"/>
      <point x="6" y="496"/>
      <point x="6" y="446" type="curve" smooth="yes"/>
      <point x="6" y="395"/>
      <point x="46" y="380"/>
      <point x="95" y="380" type="curve"/>
      <point x="95" y="497"/>
      <point x="107" y="537"/>
      <point x="141" y="537" type="curve" smooth="yes"/>
      <point x="179" y="537"/>
      <point x="194" y="499"/>
      <point x="194" y="415" type="curve" smooth="yes"/>
      <point x="194" y="315"/>
      <point x="180" y="280"/>
      <point x="137" y="280" type="curve" smooth="yes"/>
      <point x="87" y="280" type="line"/>
      <point x="87" y="270" type="line"/>
      <point x="133" y="270" type="line" smooth="yes"/>
      <point x="202" y="270"/>
      <point x="197" y="221"/>
      <point x="207" y="143" type="curve" smooth="yes"/>
      <point x="208" y="131"/>
      <point x="173" y="-10"/>
    </contour>
  </outline>
</glyph>
<glyph name="uni0508" format="2">
  <advance width="800"/>
  <unicode hex="0508"/>
  <anchor x="400" y="0" name="bottom"/>
  <anchor x="400" y="714" name="top"/>
  <outline>
    <contour>
      <point x="524" y="-10" type="curve" smooth="yes"/>
      <point x="670" y="-10"/>
      <point x="727" y="74"/>
      <point x="727" y="194" type="curve" smooth="yes"/>
      <point x="727" y="328" type="line" smooth="yes"/>
      <point x="727" y="379"/>
      <point x="734" y="392"/>
      <point x="760" y="392" type="curve" smooth="yes"/>
      <point x="788" y="392" type="line"/>
      <point x="788" y="402" type="line"/>
      <point x="513" y="402" type="line"/>
      <point x="513" y="392" type="line"/>
      <point x="543" y="392" type="line" smooth="yes"/>
      <point x="572" y="392"/>
      <point x="581" y="375"/>
      <point x="581" y="327" type="curve" smooth="yes"/>
      <point x="581" y="124" type="line" smooth="yes"/>
      <point x="581" y="41"/>
      <point x="564" y="0"/>
      <point x="522" y="0" type="curve" smooth="yes"/>
      <point x="483" y="0"/>
      <point x="458" y="38"/>
      <point x="458" y="133" type="curve" smooth="yes"/>
      <point x="458" y="636" type="line" smooth="yes"/>
      <point x="458" y="695"/>
      <point x="486" y="704"/>
      <point x="511" y="704" type="curve" smooth="yes"/>
      <point x="519" y="704" type="line"/>
      <point x="519" y="714" type="line"/>
      <point x="109" y="714" type="line"/>
      <point x="109" y="704" type="line"/>
      <point x="160" y="704" type="line" smooth="yes"/>
      <point x="221" y="704"/>
      <point x="212" y="672"/>
      <point x="212" y="602" type="curve" smooth="yes"/>
      <point x="212" y="551"/>
      <point x="198" y="385"/>
      <point x="190" y="295" type="curve" smooth="yes"/>
      <point x="161" y="104"/>
      <point x="108" y="83"/>
      <point x="81" y="83" type="curve" smooth="yes"/>
      <point x="51" y="83"/>
      <point x="36" y="106"/>
      <point x="38" y="136" type="curve"/>
      <point x="18" y="123"/>
      <point x="-1" y="103"/>
      <point x="-1" y="67" type="curve" smooth="yes"/>
      <point x="-1" y="27"/>
      <point x="21" y="-7"/>
      <point x="59" y="-7" type="curve" smooth="yes"/>
      <point x="107" y="-7"/>
      <point x="155" y="34"/>
      <point x="185" y="189" type="curve" smooth="yes"/>
      <point x="205" y="309"/>
      <point x="222" y="533"/>
      <point x="228" y="704" type="curve"/>
      <point x="313" y="704" type="line"/>
      <point x="313" y="201" type="line" smooth="yes"/>
      <point x="313" y="62"/>
      <point x="366" y="-10"/>
    </contour>
  </outline>
</glyph>
<glyph name="uni050D" format="2">
  <advance width="487"/>
  <unicode hex="050D"/>
  <anchor x="244" y="0" name="bottom"/>
  <anchor x="244" y="536" name="top"/>
  <outline>
    <contour>
      <point x="262" y="-12" type="curve" smooth="yes"/>
      <point x="381" y="-12"/>
      <point x="437" y="47"/>
      <point x="449" y="177" type="curve" smooth="yes"/>
      <point x="457" y="248"/>
      <point x="480" y="235"/>
      <point x="486" y="235" type="curve" smooth="yes"/>
      <point x="482" y="235" type="line"/>
      <point x="482" y="245" type="line"/>
      <point x="294" y="245" type="line"/>
      <point x="294" y="235" type="line"/>
      <point x="280" y="235" type="line" smooth="yes"/>
      <point x="300" y="235"/>
      <point x="316" y="221"/>
      <point x="316" y="122" type="curve" smooth="yes"/>
      <point x="316" y="75"/>
      <point x="317" y="-2"/>
      <point x="251" y="-2" type="curve" smooth="yes"/>
      <point x="195" y="-2"/>
      <point x="172" y="79"/>
      <point x="172" y="265" type="curve" smooth="yes"/>
      <point x="172" y="463"/>
      <point x="194" y="538"/>
      <point x="249" y="538" type="curve" smooth="yes"/>
      <point x="317" y="538"/>
      <point x="333" y="474"/>
      <point x="332" y="351" type="curve"/>
      <point x="368" y="351"/>
      <point x="432" y="359"/>
      <point x="432" y="445" type="curve" smooth="yes"/>
      <point x="432" y="511"/>
      <point x="354" y="548"/>
      <point x="263" y="548" type="curve" smooth="yes"/>
      <point x="95" y="548"/>
      <point x="30" y="416"/>
      <point x="30" y="259" type="curve" smooth="yes"/>
      <point x="30" y="95"/>
      <point x="98" y="-12"/>
    </contour>
  </outline>
</glyph>
<glyph name="uni050E" format="2">
  <advance width="665"/>
  <unicode hex="050E"/>
  <anchor x="332" y="0" name="bottom"/>
  <anchor x="332" y="714" name="top"/>
  <outline>
    <contour>
      <point x="387" y="-10" type="curve" smooth="yes"/>
      <point x="535" y="-10"/>
      <point x="589" y="74"/>
      <point x="589" y="194" type="curve" smooth="yes"/>
      <point x="589" y="328" type="line" smooth="yes"/>
      <point x="589" y="379"/>
      <point x="599" y="392"/>
      <point x="624" y="392" type="curve" smooth="yes"/>
      <point x="652" y="392" type="line"/>
      <point x="652" y="402" type="line"/>
      <point x="375" y="402" type="line"/>
      <point x="375" y="392" type="line"/>
      <point x="406" y="392" type="line" smooth="yes"/>
      <point x="432" y="392"/>
      <point x="444" y="382"/>
      <point x="444" y="327" type="curve" smooth="yes"/>
      <point x="444" y="124" type="line" smooth="yes"/>
      <point x="444" y="28"/>
      <point x="432" y="0"/>
      <point x="383" y="0" type="curve" smooth="yes"/>
      <point x="333" y="0"/>
      <point x="321" y="41"/>
      <point x="321" y="133" type="curve" smooth="yes"/>
      <point x="321" y="704" type="line"/>
      <point x="319" y="704" type="line" smooth="yes"/>
      <point x="435" y="704"/>
      <point x="474" y="671"/>
      <point x="479" y="571" type="curve" smooth="yes"/>
      <point x="482" y="529" type="line"/>
      <point x="492" y="529" type="line"/>
      <point x="485" y="714" type="line"/>
      <point x="8" y="714" type="line"/>
      <point x="1" y="529" type="line"/>
      <point x="11" y="529" type="line"/>
      <point x="14" y="571" type="line" smooth="yes"/>
      <point x="21" y="671"/>
      <point x="58" y="704"/>
      <point x="174" y="704" type="curve" smooth="yes"/>
      <point x="174" y="704" type="line"/>
      <point x="174" y="201" type="line" smooth="yes"/>
      <point x="174" y="62"/>
      <point x="231" y="-10"/>
    </contour>
  </outline>
</glyph>
<glyph name="uni0516" format="2">
  <advance width="720"/>
  <unicode hex="0516"/>
  <anchor x="360" y="0" name="bottom"/>
  <anchor x="360" y="714" name="top"/>
  <outline>
    <contour>
      <point x="16" y="0" type="line"/>
      <point x="309" y="0" type="line"/>
      <point x="309" y="10" type="line"/>
      <point x="261" y="10" type="line" smooth="yes"/>
      <point x="229" y="10"/>
      <point x="228" y="29"/>
      <point x="228" y="70" type="curve" smooth="yes"/>
      <point x="228" y="272" type="line"/>
      <point x="243" y="272" type="line" smooth="yes"/>
      <point x="301" y="272"/>
      <point x="346" y="284"/>
      <point x="381" y="305" type="curve"/>
      <point x="477" y="111" type="line" smooth="yes"/>
      <point x="495" y="74"/>
      <point x="502" y="51"/>
      <point x="502" y="35" type="curve" smooth="yes"/>
      <point x="502" y="15"/>
      <point x="488" y="10"/>
      <point x="457" y="10" type="curve" smooth="yes"/>
      <point x="422" y="10" type="line"/>
      <point x="422" y="0" type="line"/>
      <point x="694" y="0" type="line"/>
      <point x="694" y="10" type="line"/>
      <point x="696" y="10" type="line" smooth="yes"/>
      <point x="693" y="10"/>
      <point x="695" y="6"/>
      <point x="618" y="150" type="curve" smooth="yes"/>
      <point x="487" y="424" type="line"/>
      <point x="647" y="634" type="line" smooth="yes"/>
      <point x="689" y="688"/>
      <point x="715" y="704"/>
      <point x="746" y="704" type="curve" smooth="yes"/>
      <point x="727" y="704" type="line"/>
      <point x="727" y="714" type="line"/>
      <point x="540" y="714" type="line"/>
      <point x="540" y="704" type="line"/>
      <point x="572" y="704" type="line" smooth="yes"/>
      <point x="626" y="704"/>
      <point x="653" y="696"/>
      <point x="653" y="675" type="curve" smooth="yes"/>
      <point x="653" y="661"/>
      <point x="641" y="641"/>
      <point x="618" y="611" type="curve" smooth="yes"/>
      <point x="466" y="416" type="line"/>
      <point x="475" y="442"/>
      <point x="478" y="471"/>
      <point x="478" y="502" type="curve" smooth="yes"/>
      <point x="478" y="641"/>
      <point x="410" y="714"/>
      <point x="259" y="714" type="curve" smooth="yes"/>
      <point x="16" y="714" type="line"/>
      <point x="16" y="704" type="line"/>
      <point x="48" y="704" type="line" smooth="yes"/>
      <point x="83" y="704"/>
      <point x="81" y="685"/>
      <point x="81" y="643" type="curve" smooth="yes"/>
      <point x="81" y="75" type="line" smooth="yes"/>
      <point x="81" y="30"/>
      <point x="81" y="10"/>
      <point x="44" y="10" type="curve" smooth="yes"/>
      <point x="16" y="10" type="line"/>
    </contour>
    <contour>
      <point x="229" y="282" type="line"/>
      <point x="229" y="704" type="line"/>
      <point x="248" y="704" type="line" smooth="yes"/>
      <point x="311" y="704"/>
      <point x="329" y="658"/>
      <point x="329" y="501" type="curve" smooth="yes"/>
      <point x="329" y="332"/>
      <point x="309" y="282"/>
      <point x="238" y="282" type="curve" smooth="yes"/>
    </contour>
  </outline>
</glyph>
<glyph name="uni051F" format="2">
  <advance width="479"/>
  <unicode hex="051F"/>
  <anchor x="239" y="0" name="bottom"/>
  <anchor x="239" y="536" name="top"/>
  <outline>
    <contour>
      <point x="389" y="342" type="line"/>
      <point x="394" y="350" type="line"/>
      <point x="253" y="442" type="line"/>
      <point x="248" y="434" type="line"/>
    </contour>
    <component base="afii10076"/>
  </outline>
</glyph>
<glyph name="uni1AB7" format="2">
  <unicode hex="1AB7"/>
  <anchor x="-127" y="0" name="_bottom"/>
  <anchor x="-127" y="-245" name="bottom"/>
  <outline>
    <contour>
      <point x="-119" y="-243" type="curve" smooth="yes"/>
      <point x="-86" y="-243"/>
      <point x="-66" y="-225"/>
      <point x="-66" y="-196" type="curve" smooth="yes"/>
      <point x="-66" y="-184"/>
      <point x="-69" y="-177"/>
      <point x="-73" y="-171" type="curve"/>
      <point x="-70" y="-170"/>
      <point x="-74" y="-173"/>
      <point x="-110" y="-173" type="curve" smooth="yes"/>
      <point x="-150" y="-173"/>
      <point x="-174" y="-171"/>
      <point x="-174" y="-141" type="curve" smooth="yes"/>
      <point x="-174" y="-40" type="line"/>
      <point x="-184" y="-40" type="line"/>
      <point x="-184" y="-147" type="line" smooth="yes"/>
      <point x="-184" y="-222"/>
      <point x="-151" y="-243"/>
    </contour>
  </outline>
</glyph>
<glyph name="uni1AB8" format="2">
  <unicode hex="1AB8"/>
  <anchor x="-198" y="0" name="_bottom"/>
  <anchor x="-198" y="-245" name="bottom"/>
  <outline>
    <contour>
      <point x="-119" y="-243" type="curve" smooth="yes"/>
      <point x="-86" y="-243"/>
      <point x="-66" y="-225"/>
      <point x="-66" y="-196" type="curve" smooth="yes"/>
      <point x="-66" y="-184"/>
      <point x="-69" y="-177"/>
      <point x="-73" y="-171" type="curve"/>
      <point x="-70" y="-170"/>
      <point x="-74" y="-173"/>
      <point x="-110" y="-173" type="curve" smooth="yes"/>
      <point x="-150" y="-173"/>
      <point x="-174" y="-171"/>
      <point x="-174" y="-141" type="curve" smooth="yes"/>
      <point x="-174" y="-40" type="line"/>
      <point x="-184" y="-40" type="line"/>
      <point x="-184" y="-147" type="line" smooth="yes"/>
      <point x="-184" y="-222"/>
      <point x="-151" y="-243"/>
    </contour>
    <contour>
      <point x="-263" y="-243" type="curve" smooth="yes"/>
      <point x="-230" y="-243"/>
      <point x="-210" y="-225"/>
      <point x="-210" y="-196" type="curve" smooth="yes"/>
      <point x="-210" y="-184"/>
      <point x="-213" y="-177"/>
      <point x="-217" y="-171" type="curve"/>
      <point x="-214" y="-170"/>
      <point x="-218" y="-173"/>
      <point x="-254" y="-173" type="curve" smooth="yes"/>
      <point x="-294" y="-173"/>
      <point x="-318" y="-171"/>
      <point x="-318" y="-141" type="curve" smooth="yes"/>
      <point x="-318" y="-40" type="line"/>
      <point x="-328" y="-40" type="line"/>
      <point x="-328" y="-147" type="line" smooth="yes"/>
      <point x="-328" y="-222"/>
      <point x="-295" y="-243"/>
    </contour>
  </outline>
</glyph>
<glyph name="uni1C82" format="2">
  <advance width="398"/>
  <unicode hex="1C82"/>
  <anchor x="200" y="0" name="bottom"/>
  <anchor x="200" y="536" name="top"/>
  <outline>
    <contour>
      <point x="197" y="-11" type="curve" smooth="yes"/>
      <point x="301" y="-11"/>
      <point x="370" y="67"/>
      <point x="370" y="269" type="curve" smooth="yes"/>
      <point x="370" y="469"/>
      <point x="290" y="550"/>
      <point x="201" y="550" type="curve" smooth="yes"/>
      <point x="102" y="550"/>
      <point x="29" y="469"/>
      <point x="29" y="268" type="curve" smooth="yes"/>
      <point x="29" y="67"/>
      <point x="112" y="-11"/>
    </contour>
    <contour>
      <point x="200" y="-1" type="curve" smooth="yes"/>
      <point x="180" y="-1"/>
      <point x="173" y="27"/>
      <point x="173" y="269" type="curve" smooth="yes"/>
      <point x="173" y="511"/>
      <point x="180" y="540"/>
      <point x="198" y="540" type="curve" smooth="yes"/>
      <point x="219" y="540"/>
      <point x="227" y="511"/>
      <point x="227" y="269" type="curve" smooth="yes"/>
      <point x="227" y="27"/>
      <point x="219" y="-1"/>
    </contour>
  </outline>
</glyph>
<glyph name="uni1C87" format="2">
  <advance width="508"/>
  <unicode hex="1C87"/>
  <anchor x="254" y="0" name="bottom"/>
  <anchor x="254" y="760" name="top"/>
  <outline>
    <contour>
      <point x="75" y="0" type="line"/>
      <point x="337" y="0" type="line" smooth="yes"/>
      <point x="446" y="0"/>
      <point x="501" y="65"/>
      <point x="501" y="153" type="curve" smooth="yes"/>
      <point x="501" y="283"/>
      <point x="424" y="305"/>
      <point x="329" y="305" type="curve" smooth="yes"/>
      <point x="269" y="305" type="line"/>
      <point x="269" y="597" type="line"/>
      <point x="295" y="597" type="line" smooth="yes"/>
      <point x="354" y="597"/>
      <point x="374" y="575"/>
      <point x="384" y="502" type="curve" smooth="yes"/>
      <point x="388" y="465" type="line"/>
      <point x="398" y="465" type="line"/>
      <point x="394" y="607" type="line"/>
      <point x="269" y="607" type="line"/>
      <point x="269" y="678" type="line" smooth="yes"/>
      <point x="269" y="735"/>
      <point x="280" y="750"/>
      <point x="321" y="750" type="curve" smooth="yes"/>
      <point x="321" y="750" type="line"/>
      <point x="321" y="760" type="line"/>
      <point x="74" y="760" type="line"/>
      <point x="74" y="750" type="line"/>
      <point x="73" y="750" type="line" smooth="yes"/>
      <point x="119" y="750"/>
      <point x="127" y="731"/>
      <point x="127" y="680" type="curve" smooth="yes"/>
      <point x="127" y="607" type="line"/>
      <point x="1" y="607" type="line"/>
      <point x="-3" y="465" type="line"/>
      <point x="7" y="465" type="line"/>
      <point x="11" y="502" type="line" smooth="yes"/>
      <point x="21" y="575"/>
      <point x="41" y="597"/>
      <point x="98" y="597" type="curve" smooth="yes"/>
      <point x="127" y="597" type="line"/>
      <point x="127" y="74" type="line" smooth="yes"/>
      <point x="127" y="26"/>
      <point x="117" y="10"/>
      <point x="83" y="10" type="curve" smooth="yes"/>
      <point x="75" y="10" type="line"/>
    </contour>
    <contour>
      <point x="269" y="10" type="line"/>
      <point x="269" y="295" type="line"/>
      <point x="285" y="295" type="line" smooth="yes"/>
      <point x="335" y="295"/>
      <point x="357" y="254"/>
      <point x="357" y="162" type="curve" smooth="yes"/>
      <point x="357" y="58"/>
      <point x="336" y="10"/>
      <point x="289" y="10" type="curve" smooth="yes"/>
    </contour>
  </outline>
</glyph>
<glyph name="uni1D0C" format="2">
  <advance width="399"/>
  <unicode hex="1D0C"/>
  <anchor x="199" y="0" name="bottom"/>
  <anchor x="199" y="536" name="top"/>
  <outline>
    <contour>
      <point x="10" y="0" type="line"/>
      <point x="390" y="0" type="line"/>
      <point x="395" y="182" type="line"/>
      <point x="385" y="182" type="line"/>
      <point x="376" y="103" type="line" smooth="yes"/>
      <point x="366" y="32"/>
      <point x="349" y="10"/>
      <point x="301" y="10" type="curve" smooth="yes"/>
      <point x="200" y="10" type="line"/>
      <point x="200" y="293" type="line"/>
      <point x="281" y="345" type="line"/>
      <point x="281" y="358" type="line"/>
      <point x="200" y="306" type="line"/>
      <point x="200" y="483" type="line" smooth="yes"/>
      <point x="200" y="519"/>
      <point x="203" y="526"/>
      <point x="223" y="526" type="curve" smooth="yes"/>
      <point x="244" y="526" type="line"/>
      <point x="244" y="536" type="line"/>
      <point x="12" y="536" type="line"/>
      <point x="12" y="526" type="line"/>
      <point x="39" y="526" type="line" smooth="yes"/>
      <point x="57" y="526"/>
      <point x="62" y="514"/>
      <point x="62" y="479" type="curve" smooth="yes"/>
      <point x="62" y="214" type="line"/>
      <point x="12" y="182" type="line"/>
      <point x="12" y="169" type="line"/>
      <point x="62" y="201" type="line"/>
      <point x="62" y="65" type="line" smooth="yes"/>
      <point x="62" y="37"/>
      <point x="50" y="10"/>
      <point x="32" y="10" type="curve" smooth="yes"/>
      <point x="10" y="10" type="line"/>
    </contour>
  </outline>
</glyph>
<glyph name="uni1D0D" format="2">
  <advance width="570"/>
  <unicode hex="1D0D"/>
  <anchor x="286" y="0" name="bottom"/>
  <anchor x="286" y="536" name="top"/>
  <outline>
    <contour>
      <point x="9" y="0" type="line"/>
      <point x="163" y="0" type="line"/>
      <point x="163" y="10" type="line"/>
      <point x="131" y="10" type="line" smooth="yes"/>
      <point x="97" y="10"/>
      <point x="86" y="21"/>
      <point x="86" y="57" type="curve" smooth="yes"/>
      <point x="86" y="508" type="line"/>
      <point x="88" y="508" type="line"/>
      <point x="219" y="0" type="line"/>
      <point x="274" y="0" type="line"/>
      <point x="384" y="477" type="line"/>
      <point x="386" y="477" type="line"/>
      <point x="386" y="49" type="line" smooth="yes"/>
      <point x="386" y="20"/>
      <point x="380" y="10"/>
      <point x="357" y="10" type="curve" smooth="yes"/>
      <point x="340" y="10" type="line"/>
      <point x="340" y="0" type="line"/>
      <point x="559" y="0" type="line"/>
      <point x="559" y="10" type="line"/>
      <point x="533" y="10" type="line" smooth="yes"/>
      <point x="519" y="10"/>
      <point x="516" y="19"/>
      <point x="516" y="47" type="curve" smooth="yes"/>
      <point x="516" y="485" type="line" smooth="yes"/>
      <point x="516" y="516"/>
      <point x="521" y="526"/>
      <point x="539" y="526" type="curve" smooth="yes"/>
      <point x="559" y="526" type="line"/>
      <point x="559" y="536" type="line"/>
      <point x="387" y="536" type="line"/>
      <point x="297" y="150" type="line"/>
      <point x="295" y="150" type="line"/>
      <point x="205" y="536" type="line"/>
      <point x="9" y="536" type="line"/>
      <point x="9" y="526" type="line"/>
      <point x="52" y="526" type="line" smooth="yes"/>
      <point x="71" y="526"/>
      <point x="76" y="517"/>
      <point x="76" y="488" type="curve" smooth="yes"/>
      <point x="76" y="51" type="line" smooth="yes"/>
      <point x="76" y="21"/>
      <point x="72" y="10"/>
      <point x="57" y="10" type="curve" smooth="yes"/>
      <point x="9" y="10" type="line"/>
    </contour>
  </outline>
</glyph>
<glyph name="uni1D0F" format="2">
  <advance width="494"/>
  <unicode hex="1D0F"/>
  <anchor x="248" y="0" name="bottom"/>
  <anchor x="248" y="536" name="top"/>
  <outline>
    <contour>
      <point x="248" y="-8" type="curve" smooth="yes"/>
      <point x="385" y="-8"/>
      <point x="463" y="103"/>
      <point x="463" y="268" type="curve" smooth="yes"/>
      <point x="463" y="435"/>
      <point x="385" y="544"/>
      <point x="248" y="544" type="curve" smooth="yes"/>
      <point x="94" y="544"/>
      <point x="31" y="435"/>
      <point x="31" y="268" type="curve" smooth="yes"/>
      <point x="31" y="103"/>
      <point x="95" y="-8"/>
    </contour>
    <contour>
      <point x="249" y="2" type="curve" smooth="yes"/>
      <point x="191" y="2"/>
      <point x="172" y="67"/>
      <point x="172" y="270" type="curve" smooth="yes"/>
      <point x="172" y="471"/>
      <point x="191" y="534"/>
      <point x="249" y="534" type="curve" smooth="yes"/>
      <point x="305" y="534"/>
      <point x="321" y="471"/>
      <point x="321" y="270" type="curve" smooth="yes"/>
      <point x="321" y="67"/>
      <point x="304" y="2"/>
    </contour>
  </outline>
</glyph>
<glyph name="uni1D15" format="2">
  <advance width="474"/>
  <unicode hex="1D15"/>
  <anchor x="238" y="0" name="bottom"/>
  <anchor x="238" y="536" name="top"/>
  <outline>
    <contour>
      <point x="234" y="-7" type="curve" smooth="yes"/>
      <point x="360" y="-7"/>
      <point x="448" y="49"/>
      <point x="448" y="171" type="curve" smooth="yes"/>
      <point x="448" y="242"/>
      <point x="403" y="308"/>
      <point x="298" y="323" type="curve"/>
      <point x="389" y="336"/>
      <point x="421" y="387"/>
      <point x="421" y="434" type="curve" smooth="yes"/>
      <point x="421" y="517"/>
      <point x="340" y="544"/>
      <point x="277" y="544" type="curve"/>
      <point x="282" y="518"/>
      <point x="288" y="473"/>
      <point x="288" y="455" type="curve" smooth="yes"/>
      <point x="288" y="366"/>
      <point x="271" y="327"/>
      <point x="236" y="327" type="curve" smooth="yes"/>
      <point x="201" y="327"/>
      <point x="185" y="366"/>
      <point x="185" y="455" type="curve" smooth="yes"/>
      <point x="185" y="473"/>
      <point x="191" y="518"/>
      <point x="196" y="544" type="curve"/>
      <point x="132" y="544"/>
      <point x="50" y="517"/>
      <point x="50" y="434" type="curve" smooth="yes"/>
      <point x="50" y="387"/>
      <point x="83" y="336"/>
      <point x="175" y="323" type="curve"/>
      <point x="68" y="308"/>
      <point x="25" y="242"/>
      <point x="25" y="171" type="curve" smooth="yes"/>
      <point x="25" y="49"/>
      <point x="112" y="-7"/>
    </contour>
    <contour>
      <point x="234" y="3" type="curve" smooth="yes"/>
      <point x="185" y="3"/>
      <point x="168" y="48"/>
      <point x="168" y="171" type="curve" smooth="yes"/>
      <point x="168" y="278"/>
      <point x="185" y="317"/>
      <point x="236" y="317" type="curve" smooth="yes"/>
      <point x="285" y="317"/>
      <point x="303" y="278"/>
      <point x="303" y="171" type="curve" smooth="yes"/>
      <point x="303" y="48"/>
      <point x="285" y="3"/>
    </contour>
  </outline>
</glyph>
<glyph name="uni1D21" format="2">
  <advance width="651"/>
  <unicode hex="1D21"/>
  <anchor x="360" y="0" name="bottom"/>
  <anchor x="360" y="536" name="top"/>
  <outline>
    <contour>
      <point x="148" y="0" type="line"/>
      <point x="214" y="0" type="line"/>
      <point x="312" y="416" type="line"/>
      <point x="314" y="416" type="line"/>
      <point x="415" y="0" type="line"/>
      <point x="498" y="0" type="line"/>
      <point x="579" y="488" type="line" smooth="yes"/>
      <point x="586" y="531"/>
      <point x="589" y="526"/>
      <point x="637" y="526" type="curve" smooth="yes"/>
      <point x="653" y="526" type="line"/>
      <point x="653" y="536" type="line"/>
      <point x="501" y="536" type="line"/>
      <point x="501" y="526" type="line"/>
      <point x="536" y="526" type="line" smooth="yes"/>
      <point x="571" y="526"/>
      <point x="570" y="521"/>
      <point x="570" y="514" type="curve" smooth="yes"/>
      <point x="570" y="502"/>
      <point x="565" y="472"/>
      <point x="558" y="429" type="curve" smooth="yes"/>
      <point x="524" y="222" type="line" smooth="yes"/>
      <point x="516" y="183"/>
      <point x="510" y="145"/>
      <point x="508" y="120" type="curve"/>
      <point x="506" y="120" type="line"/>
      <point x="499" y="159"/>
      <point x="492" y="195"/>
      <point x="485" y="224" type="curve" smooth="yes"/>
      <point x="407" y="540" type="line"/>
      <point x="329" y="540" type="line"/>
      <point x="266" y="250" type="line" smooth="yes"/>
      <point x="261" y="226"/>
      <point x="252" y="185"/>
      <point x="240" y="140" type="curve"/>
      <point x="239" y="140" type="line"/>
      <point x="236" y="160"/>
      <point x="234" y="171"/>
      <point x="232" y="185" type="curve" smooth="yes"/>
      <point x="177" y="419" type="line" smooth="yes"/>
      <point x="167" y="462"/>
      <point x="157" y="489"/>
      <point x="157" y="505" type="curve" smooth="yes"/>
      <point x="157" y="522"/>
      <point x="168" y="526"/>
      <point x="199" y="526" type="curve" smooth="yes"/>
      <point x="260" y="526" type="line"/>
      <point x="260" y="536" type="line"/>
      <point x="-4" y="536" type="line"/>
      <point x="-4" y="526" type="line"/>
      <point x="-2" y="526" type="line" smooth="yes"/>
      <point x="40" y="526"/>
      <point x="45" y="526"/>
      <point x="58" y="466" type="curve" smooth="yes"/>
    </contour>
  </outline>
</glyph>
<glyph name="uni1D6C" format="2">
  <advance width="488"/>
  <unicode hex="1D6C"/>
  <outline>
    <contour>
      <point x="305" y="-10" type="curve" smooth="yes"/>
      <point x="400" y="-10"/>
      <point x="460" y="84"/>
      <point x="460" y="264" type="curve" smooth="yes"/>
      <point x="460" y="431"/>
      <point x="400" y="514"/>
      <point x="304" y="514" type="curve" smooth="yes"/>
      <point x="242" y="514"/>
      <point x="220" y="492"/>
      <point x="210" y="440" type="curve"/>
      <point x="208" y="440" type="line"/>
      <point x="209" y="490"/>
      <point x="209" y="578"/>
      <point x="209" y="614" type="curve" smooth="yes"/>
      <point x="209" y="760" type="line"/>
      <point x="11" y="760" type="line"/>
      <point x="11" y="750" type="line"/>
      <point x="12" y="750" type="line" smooth="yes"/>
      <point x="39" y="750"/>
      <point x="67" y="746"/>
      <point x="67" y="692" type="curve" smooth="yes"/>
      <point x="67" y="96" type="line" smooth="yes"/>
      <point x="67" y="32"/>
      <point x="62" y="10"/>
      <point x="15" y="10" type="curve" smooth="yes"/>
      <point x="11" y="10" type="line"/>
      <point x="11" y="0" type="line"/>
      <point x="208" y="0" type="line"/>
      <point x="208" y="77" type="line"/>
      <point x="210" y="77" type="line"/>
      <point x="226" y="21"/>
      <point x="241" y="-10"/>
    </contour>
    <contour>
      <point x="270" y="2" type="curve" smooth="yes"/>
      <point x="229" y="2"/>
      <point x="209" y="95"/>
      <point x="209" y="261" type="curve" smooth="yes"/>
      <point x="209" y="405"/>
      <point x="216" y="498"/>
      <point x="264" y="498" type="curve" smooth="yes"/>
      <point x="308" y="498"/>
      <point x="316" y="452"/>
      <point x="316" y="258" type="curve" smooth="yes"/>
      <point x="316" y="50"/>
      <point x="307" y="2"/>
    </contour>
    <contour>
      <point x="-29" y="573" type="curve"/>
      <point x="-21" y="573" type="line"/>
      <point x="-21" y="578"/>
      <point x="-19" y="617"/>
      <point x="29" y="617" type="curve" smooth="yes"/>
      <point x="123" y="617"/>
      <point x="144" y="557"/>
      <point x="201" y="557" type="curve" smooth="yes"/>
      <point x="280" y="557"/>
      <point x="306" y="608"/>
      <point x="311" y="665" type="curve"/>
      <point x="303" y="665" type="line"/>
      <point x="303" y="660"/>
      <point x="296" y="623"/>
      <point x="251" y="623" type="curve" smooth="yes"/>
      <point x="158" y="623"/>
      <point x="127" y="680"/>
      <point x="80" y="680" type="curve" smooth="yes"/>
      <point x="-1" y="680"/>
      <point x="-27" y="626"/>
    </contour>
  </outline>
</glyph>
<glyph name="uni1D71" format="2">
  <advance width="483"/>
  <unicode hex="1D71"/>
  <outline>
    <contour>
      <point x="6" y="-228" type="line"/>
      <point x="275" y="-228" type="line"/>
      <point x="275" y="-218" type="line"/>
      <point x="257" y="-218" type="line" smooth="yes"/>
      <point x="211" y="-218"/>
      <point x="205" y="-195"/>
      <point x="205" y="-132" type="curve" smooth="yes"/>
      <point x="205" y="-100" type="line" smooth="yes"/>
      <point x="205" y="1"/>
      <point x="205" y="49"/>
      <point x="203" y="99" type="curve"/>
      <point x="205" y="99" type="line"/>
      <point x="221" y="47"/>
      <point x="236" y="15"/>
      <point x="299" y="15" type="curve" smooth="yes"/>
      <point x="395" y="15"/>
      <point x="454" y="93"/>
      <point x="454" y="278" type="curve" smooth="yes"/>
      <point x="454" y="464"/>
      <point x="395" y="547"/>
      <point x="299" y="547" type="curve" smooth="yes"/>
      <point x="237" y="547"/>
      <point x="214" y="526"/>
      <point x="205" y="473" type="curve"/>
      <point x="203" y="473" type="line"/>
      <point x="203" y="536" type="line"/>
      <point x="21" y="536" type="line"/>
      <point x="21" y="526" type="line"/>
      <point x="23" y="526" type="line" smooth="yes"/>
      <point x="21" y="526"/>
      <point x="62" y="525"/>
      <point x="62" y="468" type="curve" smooth="yes"/>
      <point x="62" y="-132" type="line" smooth="yes"/>
      <point x="62" y="-195"/>
      <point x="56" y="-218"/>
      <point x="10" y="-218" type="curve" smooth="yes"/>
      <point x="6" y="-218" type="line"/>
    </contour>
    <contour>
      <point x="206" y="-143" type="curve" smooth="yes"/>
      <point x="285" y="-143"/>
      <point x="311" y="-92"/>
      <point x="316" y="-36" type="curve"/>
      <point x="308" y="-36" type="line"/>
      <point x="308" y="-41"/>
      <point x="301" y="-78"/>
      <point x="257" y="-78" type="curve" smooth="yes"/>
      <point x="163" y="-78"/>
      <point x="132" y="-21"/>
      <point x="86" y="-21" type="curve" smooth="yes"/>
      <point x="5" y="-21"/>
      <point x="-22" y="-75"/>
      <point x="-24" y="-128" type="curve"/>
      <point x="-15" y="-128" type="line"/>
      <point x="-16" y="-123"/>
      <point x="-14" y="-84"/>
      <point x="34" y="-84" type="curve" smooth="yes"/>
      <point x="128" y="-84"/>
      <point x="150" y="-143"/>
    </contour>
    <contour>
      <point x="265" y="34" type="curve" smooth="yes"/>
      <point x="224" y="34"/>
      <point x="204" y="115"/>
      <point x="204" y="276" type="curve" smooth="yes"/>
      <point x="204" y="438"/>
      <point x="211" y="532"/>
      <point x="259" y="532" type="curve" smooth="yes"/>
      <point x="303" y="532"/>
      <point x="311" y="485"/>
      <point x="311" y="277" type="curve" smooth="yes"/>
      <point x="311" y="70"/>
      <point x="302" y="34"/>
    </contour>
  </outline>
</glyph>
<glyph name="uni1D83" format="2">
  <advance width="624"/>
  <unicode hex="1D83"/>
  <anchor x="244" y="381" name="top"/>
  <anchor x="244" y="-233" name="bottom"/>
  <outline>
    <contour>
      <point x="527" y="-204" type="curve" smooth="yes"/>
      <point x="585" y="-204"/>
      <point x="609" y="-165"/>
      <point x="609" y="-27" type="curve" smooth="yes"/>
      <point x="609" y="88" type="line"/>
      <point x="341" y="88" type="line"/>
      <point x="341" y="78" type="line"/>
      <point x="599" y="78" type="line"/>
      <point x="599" y="-37" type="line" smooth="yes"/>
      <point x="599" y="-100"/>
      <point x="583" y="-119"/>
      <point x="530" y="-119" type="curve" smooth="yes"/>
      <point x="499" y="-119"/>
      <point x="477" y="-113"/>
      <point x="471" y="-101" type="curve"/>
      <point x="466" y="-108"/>
      <point x="462" y="-123"/>
      <point x="462" y="-138" type="curve" smooth="yes"/>
      <point x="462" y="-179"/>
      <point x="481" y="-204"/>
    </contour>
    <component base="uni0261"/>
  </outline>
</glyph>
<glyph name="uni1D8C" format="2">
  <advance width="453"/>
  <unicode hex="1D8C"/>
  <outline>
    <contour>
      <point x="281" y="-204" type="curve" smooth="yes"/>
      <point x="339" y="-204"/>
      <point x="363" y="-165"/>
      <point x="363" y="-27" type="curve" smooth="yes"/>
      <point x="363" y="10" type="line"/>
      <point x="276" y="10" type="line"/>
      <point x="403" y="492" type="line" smooth="yes"/>
      <point x="414" y="534"/>
      <point x="415" y="526"/>
      <point x="449" y="526" type="curve" smooth="yes"/>
      <point x="431" y="526" type="line"/>
      <point x="431" y="536" type="line"/>
      <point x="342" y="536" type="line"/>
      <point x="342" y="526" type="line"/>
      <point x="343" y="526" type="line" smooth="yes"/>
      <point x="391" y="526"/>
      <point x="393" y="523"/>
      <point x="393" y="510" type="curve" smooth="yes"/>
      <point x="393" y="494"/>
      <point x="379" y="440"/>
      <point x="346" y="325" type="curve" smooth="yes"/>
      <point x="333" y="262" type="line" smooth="yes"/>
      <point x="307" y="169"/>
      <point x="292" y="112"/>
      <point x="283" y="81" type="curve"/>
      <point x="279" y="104"/>
      <point x="278" y="123"/>
      <point x="252" y="219" type="curve" smooth="yes"/>
      <point x="195" y="449" type="line" smooth="yes"/>
      <point x="193" y="459"/>
      <point x="188" y="475"/>
      <point x="188" y="495" type="curve" smooth="yes"/>
      <point x="188" y="513"/>
      <point x="194" y="526"/>
      <point x="218" y="526" type="curve" smooth="yes"/>
      <point x="266" y="526" type="line"/>
      <point x="266" y="536" type="line"/>
      <point x="5" y="536" type="line"/>
      <point x="5" y="526" type="line"/>
      <point x="29" y="526"/>
      <point x="38" y="515"/>
      <point x="48" y="479" type="curve" smooth="yes"/>
      <point x="173" y="0" type="line"/>
      <point x="353" y="0" type="line"/>
      <point x="353" y="-37" type="line" smooth="yes"/>
      <point x="353" y="-100"/>
      <point x="337" y="-119"/>
      <point x="284" y="-119" type="curve" smooth="yes"/>
      <point x="253" y="-119"/>
      <point x="231" y="-113"/>
      <point x="225" y="-101" type="curve"/>
      <point x="220" y="-108"/>
      <point x="216" y="-123"/>
      <point x="216" y="-138" type="curve" smooth="yes"/>
      <point x="216" y="-179"/>
      <point x="235" y="-204"/>
    </contour>
  </outline>
</glyph>
<glyph name="uni1D93" format="2">
  <advance width="412"/>
  <unicode hex="1D93"/>
  <anchor x="207" y="536" name="top"/>
  <anchor x="207" y="0" name="bottom"/>
  <outline>
    <contour>
      <point x="454" y="-204" type="curve" smooth="yes"/>
      <point x="500" y="-204"/>
      <point x="519" y="-179"/>
      <point x="519" y="-138" type="curve" smooth="yes"/>
      <point x="519" y="-123"/>
      <point x="516" y="-108"/>
      <point x="510" y="-101" type="curve"/>
      <point x="504" y="-113"/>
      <point x="482" y="-119"/>
      <point x="452" y="-119" type="curve" smooth="yes"/>
      <point x="399" y="-119"/>
      <point x="383" y="-100"/>
      <point x="383" y="-37" type="curve" smooth="yes"/>
      <point x="383" y="93" type="line"/>
      <point x="373" y="93" type="line"/>
      <point x="373" y="-27" type="line" smooth="yes"/>
      <point x="373" y="-165"/>
      <point x="397" y="-204"/>
    </contour>
    <component base="uni025B"/>
  </outline>
</glyph>
<glyph name="uni1D96" format="2">
  <advance width="271"/>
  <unicode hex="1D96"/>
  <anchor x="131" y="767" name="top"/>
  <anchor x="254" y="767" name="topright"/>
  <anchor x="136" y="0" name="bottom"/>
  <outline>
    <contour>
      <point x="328" y="-204" type="curve" smooth="yes"/>
      <point x="374" y="-204"/>
      <point x="393" y="-179"/>
      <point x="393" y="-138" type="curve" smooth="yes"/>
      <point x="393" y="-123"/>
      <point x="390" y="-108"/>
      <point x="384" y="-101" type="curve"/>
      <point x="378" y="-113"/>
      <point x="356" y="-119"/>
      <point x="325" y="-119" type="curve" smooth="yes"/>
      <point x="272" y="-119"/>
      <point x="257" y="-100"/>
      <point x="257" y="-37" type="curve" smooth="yes"/>
      <point x="257" y="10" type="line"/>
      <point x="247" y="10" type="line"/>
      <point x="247" y="-27" type="line" smooth="yes"/>
      <point x="247" y="-165"/>
      <point x="271" y="-204"/>
    </contour>
    <component base="i"/>
  </outline>
</glyph>
<glyph name="dottedgrave" format="2">
  <unicode hex="1DC0"/>
  <anchor x="10" y="536" name="_top"/>
  <anchor x="10" y="789" name="top"/>
  <outline>
    <contour>
      <point x="18" y="630" type="curve"/>
      <point x="31" y="630" type="line"/>
      <point x="31" y="645" type="line"/>
      <point x="16" y="679"/>
      <point x="-2" y="759"/>
      <point x="-7" y="802" type="curve"/>
      <point x="-60" y="802" type="line"/>
      <point x="-60" y="794" type="line"/>
      <point x="-63" y="775"/>
      <point x="-5" y="669"/>
    </contour>
    <contour>
      <point x="-115" y="619" type="curve" smooth="yes"/>
      <point x="-93" y="619"/>
      <point x="-77" y="635"/>
      <point x="-77" y="675" type="curve" smooth="yes"/>
      <point x="-77" y="716"/>
      <point x="-93" y="731"/>
      <point x="-115" y="731" type="curve" smooth="yes"/>
      <point x="-135" y="731"/>
      <point x="-152" y="716"/>
      <point x="-152" y="675" type="curve" smooth="yes"/>
      <point x="-152" y="635"/>
      <point x="-135" y="619"/>
    </contour>
    <contour>
      <point x="93" y="699" type="curve" smooth="yes"/>
      <point x="115" y="699"/>
      <point x="131" y="715"/>
      <point x="131" y="755" type="curve" smooth="yes"/>
      <point x="131" y="795"/>
      <point x="115" y="811"/>
      <point x="93" y="811" type="curve" smooth="yes"/>
      <point x="71" y="811"/>
      <point x="56" y="795"/>
      <point x="56" y="755" type="curve" smooth="yes"/>
      <point x="56" y="715"/>
      <point x="71" y="699"/>
    </contour>
  </outline>
</glyph>
<glyph name="acutegraveacute" format="2">
  <unicode hex="1DC9"/>
  <anchor x="1" y="536" name="_top"/>
  <anchor x="1" y="733" name="top"/>
  <outline>
    <contour>
      <point x="68" y="616" type="line"/>
      <point x="176" y="684" type="line"/>
      <point x="168" y="702" type="line"/>
      <point x="66" y="638" type="line"/>
      <point x="-61" y="706" type="line"/>
      <point x="-176" y="635" type="line"/>
      <point x="-168" y="615" type="line"/>
      <point x="-62" y="684" type="line"/>
    </contour>
  </outline>
</glyph>
<glyph name="brevemacron" format="2">
  <unicode hex="1DCB"/>
  <anchor x="-152" y="536" name="_top"/>
  <anchor x="-152" y="761" name="top"/>
  <outline>
    <contour>
      <point x="-227" y="606" type="curve" smooth="yes"/>
      <point x="-134" y="606"/>
      <point x="-98" y="710"/>
      <point x="-102" y="761" type="curve"/>
      <point x="-112" y="761" type="line"/>
      <point x="-114" y="713"/>
      <point x="-139" y="683"/>
      <point x="-228" y="683" type="curve" smooth="yes"/>
      <point x="-314" y="683"/>
      <point x="-340" y="713"/>
      <point x="-344" y="761" type="curve"/>
      <point x="-354" y="761" type="line"/>
      <point x="-357" y="711"/>
      <point x="-323" y="606"/>
    </contour>
    <contour>
      <point x="-110" y="741" type="line"/>
      <point x="50" y="741" type="line"/>
      <point x="50" y="761" type="line"/>
      <point x="-110" y="761" type="line"/>
    </contour>
  </outline>
</glyph>
<glyph name="longsdiagonalstroke" format="2">
  <advance width="320"/>
  <unicode hex="1E9C"/>
  <anchor x="160" y="0" name="bottom"/>
  <anchor x="160" y="770" name="top"/>
  <outline>
    <contour>
      <point x="10" y="0" type="line"/>
      <point x="303" y="0" type="line"/>
      <point x="303" y="10" type="line"/>
      <point x="264" y="10" type="line" smooth="yes"/>
      <point x="237" y="10"/>
      <point x="217" y="26"/>
      <point x="217" y="82" type="curve" smooth="yes"/>
      <point x="217" y="346" type="line"/>
      <point x="305" y="409" type="line"/>
      <point x="305" y="421" type="line"/>
      <point x="217" y="358" type="line"/>
      <point x="217" y="635" type="line" smooth="yes"/>
      <point x="217" y="729"/>
      <point x="226" y="760"/>
      <point x="253" y="760" type="curve" smooth="yes"/>
      <point x="280" y="760"/>
      <point x="289" y="724"/>
      <point x="289" y="635" type="curve"/>
      <point x="356" y="635"/>
      <point x="382" y="650"/>
      <point x="382" y="685" type="curve" smooth="yes"/>
      <point x="382" y="724"/>
      <point x="365" y="770"/>
      <point x="248" y="770" type="curve" smooth="yes"/>
      <point x="134" y="770"/>
      <point x="77" y="698"/>
      <point x="77" y="573" type="curve" smooth="yes"/>
      <point x="77" y="257" type="line"/>
      <point x="14" y="212" type="line"/>
      <point x="14" y="200" type="line"/>
      <point x="77" y="245" type="line"/>
      <point x="77" y="82" type="line" smooth="yes"/>
      <point x="77" y="24"/>
      <point x="59" y="10"/>
      <point x="32" y="10" type="curve" smooth="yes"/>
      <point x="10" y="10" type="line"/>
    </contour>
  </outline>
</glyph>
<glyph name="uni1FCE" format="2">
  <advance width="288"/>
  <unicode hex="1FCE"/>
  <anchor x="140" y="536" name="_top"/>
  <anchor x="140" y="724" name="top"/>
  <outline>
    <contour>
      <point x="28" y="547" type="line"/>
      <point x="112" y="561"/>
      <point x="133" y="615"/>
      <point x="133" y="657" type="curve" smooth="yes"/>
      <point x="133" y="700"/>
      <point x="113" y="724"/>
      <point x="77" y="724" type="curve" smooth="yes"/>
      <point x="54" y="724"/>
      <point x="35" y="710"/>
      <point x="35" y="679" type="curve" smooth="yes"/>
      <point x="35" y="627"/>
      <point x="87" y="649"/>
      <point x="87" y="608" type="curve" smooth="yes"/>
      <point x="87" y="583"/>
      <point x="65" y="561"/>
      <point x="28" y="557" type="curve"/>
    </contour>
    <contour>
      <point x="161" y="558" type="line"/>
      <point x="173" y="558" type="line"/>
      <point x="196" y="598"/>
      <point x="239" y="667"/>
      <point x="257" y="704" type="curve"/>
      <point x="257" y="714" type="line"/>
      <point x="178" y="714" type="line"/>
      <point x="176" y="671"/>
      <point x="168" y="608"/>
      <point x="161" y="562" type="curve"/>
    </contour>
  </outline>
</glyph>
<glyph name="uni1FDE" format="2">
  <advance width="290"/>
  <unicode hex="1FDE"/>
  <anchor x="142" y="536" name="_top"/>
  <anchor x="142" y="724" name="top"/>
  <outline>
    <contour>
      <point x="135" y="547" type="curve"/>
      <point x="135" y="557" type="line"/>
      <point x="97" y="561"/>
      <point x="76" y="583"/>
      <point x="76" y="608" type="curve" smooth="yes"/>
      <point x="76" y="649"/>
      <point x="128" y="627"/>
      <point x="128" y="679" type="curve" smooth="yes"/>
      <point x="128" y="710"/>
      <point x="109" y="724"/>
      <point x="86" y="724" type="curve" smooth="yes"/>
      <point x="50" y="724"/>
      <point x="29" y="700"/>
      <point x="29" y="657" type="curve" smooth="yes"/>
      <point x="29" y="615"/>
      <point x="50" y="561"/>
    </contour>
    <contour>
      <point x="157" y="558" type="line"/>
      <point x="169" y="558" type="line"/>
      <point x="192" y="598"/>
      <point x="235" y="667"/>
      <point x="253" y="704" type="curve"/>
      <point x="253" y="714" type="line"/>
      <point x="174" y="714" type="line"/>
      <point x="172" y="671"/>
      <point x="164" y="608"/>
      <point x="157" y="562" type="curve"/>
    </contour>
  </outline>
</glyph>
<glyph name="uni1FEE" format="2">
  <advance width="417"/>
  <unicode hex="1FEE"/>
  <anchor x="209" y="536" name="_top"/>
  <outline>
    <contour>
      <point x="179" y="632" type="line"/>
      <point x="192" y="632" type="line"/>
      <point x="224" y="676"/>
      <point x="267" y="748"/>
      <point x="278" y="783" type="curve"/>
      <point x="278" y="791" type="line"/>
      <point x="197" y="791" type="line"/>
      <point x="192" y="749"/>
      <point x="185" y="687"/>
      <point x="179" y="648" type="curve"/>
    </contour>
    <contour>
      <point x="84" y="621" type="curve" smooth="yes"/>
      <point x="104" y="621"/>
      <point x="122" y="637"/>
      <point x="122" y="677" type="curve" smooth="yes"/>
      <point x="122" y="718"/>
      <point x="104" y="733"/>
      <point x="84" y="733" type="curve" smooth="yes"/>
      <point x="63" y="733"/>
      <point x="46" y="718"/>
      <point x="46" y="677" type="curve" smooth="yes"/>
      <point x="46" y="637"/>
      <point x="63" y="621"/>
    </contour>
    <contour>
      <point x="334" y="621" type="curve" smooth="yes"/>
      <point x="354" y="621"/>
      <point x="371" y="637"/>
      <point x="371" y="677" type="curve" smooth="yes"/>
      <point x="371" y="718"/>
      <point x="354" y="733"/>
      <point x="334" y="733" type="curve" smooth="yes"/>
      <point x="310" y="733"/>
      <point x="295" y="718"/>
      <point x="295" y="677" type="curve" smooth="yes"/>
      <point x="295" y="637"/>
      <point x="310" y="621"/>
    </contour>
  </outline>
</glyph>
<glyph name="tripleprimeReversed" format="2">
  <advance width="370"/>
  <unicode hex="2037"/>
  <outline>
    <contour>
      <point x="330" y="479" type="line"/>
      <point x="330" y="714" type="line"/>
      <point x="240" y="714" type="line"/>
      <point x="315" y="479" type="line"/>
    </contour>
    <contour>
      <point x="220" y="479" type="line"/>
      <point x="220" y="714" type="line"/>
      <point x="130" y="714" type="line"/>
      <point x="205" y="479" type="line"/>
    </contour>
    <contour>
      <point x="110" y="479" type="line"/>
      <point x="110" y="714" type="line"/>
      <point x="20" y="714" type="line"/>
      <point x="95" y="479" type="line"/>
    </contour>
  </outline>
</glyph>
<glyph name="ninesuperior" format="2">
  <advance width="282"/>
  <unicode hex="2079"/>
  <outline>
    <contour>
      <point x="118" y="380" type="curve" smooth="yes"/>
      <point x="215" y="380"/>
      <point x="272" y="450"/>
      <point x="272" y="616" type="curve" smooth="yes"/>
      <point x="272" y="755"/>
      <point x="233" y="824"/>
      <point x="136" y="824" type="curve" smooth="yes"/>
      <point x="58" y="824"/>
      <point x="14" y="768"/>
      <point x="14" y="682" type="curve" smooth="yes"/>
      <point x="14" y="610"/>
      <point x="46" y="557"/>
      <point x="134" y="557" type="curve" smooth="yes"/>
      <point x="156" y="557"/>
      <point x="163" y="558"/>
      <point x="175" y="560" type="curve"/>
      <point x="174" y="436"/>
      <point x="164" y="390"/>
      <point x="137" y="390" type="curve" smooth="yes"/>
      <point x="102" y="390"/>
      <point x="89" y="414"/>
      <point x="89" y="492" type="curve"/>
      <point x="59" y="492"/>
      <point x="26" y="475"/>
      <point x="26" y="448" type="curve" smooth="yes"/>
      <point x="26" y="401"/>
      <point x="70" y="380"/>
    </contour>
    <contour>
      <point x="139" y="563" type="curve" smooth="yes"/>
      <point x="115" y="563"/>
      <point x="112" y="595"/>
      <point x="112" y="692" type="curve" smooth="yes"/>
      <point x="112" y="784"/>
      <point x="115" y="814"/>
      <point x="139" y="814" type="curve" smooth="yes"/>
      <point x="166" y="814"/>
      <point x="175" y="754"/>
      <point x="175" y="572" type="curve"/>
      <point x="164" y="568"/>
      <point x="152" y="563"/>
    </contour>
  </outline>
</glyph>
<glyph name="parenleftsuperior" format="2">
  <advance width="180"/>
  <unicode hex="207D"/>
  <outline>
    <contour>
      <point x="175" y="196" type="curve"/>
      <point x="175" y="206" type="line"/>
      <point x="107" y="269"/>
      <point x="88" y="335"/>
      <point x="88" y="491" type="curve" smooth="yes"/>
      <point x="88" y="644"/>
      <point x="107" y="714"/>
      <point x="175" y="778" type="curve"/>
      <point x="175" y="788" type="line"/>
      <point x="70" y="737"/>
      <point x="11" y="674"/>
      <point x="11" y="491" type="curve" smooth="yes"/>
      <point x="11" y="302"/>
      <point x="64" y="247"/>
    </contour>
  </outline>
</glyph>
<glyph name="uni20A8" format="2">
  <advance width="889"/>
  <unicode hex="20A8"/>
  <outline>
    <contour>
      <point x="16" y="0" type="line"/>
      <point x="279" y="0" type="line"/>
      <point x="279" y="10" type="line"/>
      <point x="262" y="10" type="line" smooth="yes"/>
      <point x="231" y="10"/>
      <point x="228" y="29"/>
      <point x="228" y="70" type="curve" smooth="yes"/>
      <point x="228" y="332" type="line"/>
      <point x="240" y="332" type="line"/>
      <point x="324" y="100" type="line" smooth="yes"/>
      <point x="351" y="25"/>
      <point x="377" y="0"/>
      <point x="501" y="0" type="curve" smooth="yes"/>
      <point x="528" y="0" type="line"/>
      <point x="528" y="10" type="line"/>
      <point x="526" y="10" type="line" smooth="yes"/>
      <point x="518" y="10"/>
      <point x="520" y="11"/>
      <point x="432" y="177" type="curve" smooth="yes"/>
      <point x="366" y="339" type="line"/>
      <point x="431" y="360"/>
      <point x="478" y="412"/>
      <point x="478" y="525" type="curve" smooth="yes"/>
      <point x="478" y="646"/>
      <point x="406" y="714"/>
      <point x="294" y="714" type="curve" smooth="yes"/>
      <point x="16" y="714" type="line"/>
      <point x="16" y="704" type="line"/>
      <point x="44" y="704" type="line" smooth="yes"/>
      <point x="86" y="704"/>
      <point x="81" y="685"/>
      <point x="81" y="643" type="curve" smooth="yes"/>
      <point x="81" y="70" type="line" smooth="yes"/>
      <point x="81" y="29"/>
      <point x="82" y="10"/>
      <point x="44" y="10" type="curve" smooth="yes"/>
      <point x="16" y="10" type="line"/>
    </contour>
    <contour>
      <point x="228" y="342" type="line"/>
      <point x="228" y="704" type="line"/>
      <point x="258" y="704" type="line" smooth="yes"/>
      <point x="305" y="704"/>
      <point x="323" y="651"/>
      <point x="323" y="541" type="curve" smooth="yes"/>
      <point x="323" y="402"/>
      <point x="306" y="342"/>
      <point x="260" y="342" type="curve" smooth="yes"/>
    </contour>
    <contour>
      <point x="698" y="-10" type="curve" smooth="yes"/>
      <point x="798" y="-10"/>
      <point x="862" y="57"/>
      <point x="862" y="163" type="curve" smooth="yes"/>
      <point x="862" y="257"/>
      <point x="809" y="296"/>
      <point x="731" y="333" type="curve" smooth="yes"/>
      <point x="663" y="365"/>
      <point x="625" y="383"/>
      <point x="625" y="449" type="curve" smooth="yes"/>
      <point x="625" y="526"/>
      <point x="678" y="538"/>
      <point x="700" y="538" type="curve" smooth="yes"/>
      <point x="745" y="538"/>
      <point x="766" y="494"/>
      <point x="766" y="388" type="curve"/>
      <point x="821" y="388"/>
      <point x="845" y="409"/>
      <point x="845" y="449" type="curve" smooth="yes"/>
      <point x="845" y="500"/>
      <point x="807" y="548"/>
      <point x="708" y="548" type="curve" smooth="yes"/>
      <point x="605" y="548"/>
      <point x="538" y="495"/>
      <point x="538" y="383" type="curve" smooth="yes"/>
      <point x="538" y="294"/>
      <point x="581" y="255"/>
      <point x="668" y="214" type="curve" smooth="yes"/>
      <point x="729" y="184"/>
      <point x="777" y="163"/>
      <point x="777" y="89" type="curve" smooth="yes"/>
      <point x="777" y="26"/>
      <point x="739" y="0"/>
      <point x="694" y="0" type="curve" smooth="yes"/>
      <point x="632" y="0"/>
      <point x="609" y="48"/>
      <point x="609" y="175" type="curve"/>
      <point x="567" y="175"/>
      <point x="534" y="159"/>
      <point x="534" y="97" type="curve" smooth="yes"/>
      <point x="534" y="39"/>
      <point x="563" y="-10"/>
    </contour>
  </outline>
</glyph>
<glyph name="uni20B3" format="2">
  <advance width="518"/>
  <unicode hex="20B3"/>
  <anchor x="260" y="714" name="top"/>
  <anchor x="260" y="0" name="bottom"/>
  <outline>
    <contour>
      <point x="18" y="370" type="line"/>
      <point x="506" y="370" type="line"/>
      <point x="506" y="380" type="line"/>
      <point x="18" y="380" type="line"/>
    </contour>
    <contour>
      <point x="18" y="222" type="line"/>
      <point x="506" y="222" type="line"/>
      <point x="506" y="232" type="line"/>
      <point x="18" y="232" type="line"/>
    </contour>
    <component base="Lambda"/>
  </outline>
</glyph>
<glyph name="spesmilo" format="2">
  <advance width="404"/>
  <unicode hex="20B7"/>
  <outline>
    <contour>
      <point x="77" y="-89" type="line"/>
      <point x="120" y="-89" type="line"/>
      <point x="120" y="-4" type="line"/>
      <point x="130" y="-6"/>
      <point x="142" y="-7"/>
      <point x="156" y="-8" type="curve"/>
      <point x="156" y="-89" type="line"/>
      <point x="198" y="-89" type="line"/>
      <point x="198" y="-10" type="line"/>
      <point x="210" y="-9"/>
      <point x="221" y="-8"/>
      <point x="232" y="-6" type="curve"/>
      <point x="232" y="-89" type="line"/>
      <point x="275" y="-89" type="line"/>
      <point x="275" y="6" type="line"/>
      <point x="347" y="36"/>
      <point x="394" y="97"/>
      <point x="394" y="227" type="curve" smooth="yes"/>
      <point x="394" y="346"/>
      <point x="333" y="392"/>
      <point x="269" y="430" type="curve" smooth="yes"/>
      <point x="195" y="471"/>
      <point x="118" y="502"/>
      <point x="118" y="609" type="curve" smooth="yes"/>
      <point x="118" y="690"/>
      <point x="168" y="712"/>
      <point x="206" y="712" type="curve" smooth="yes"/>
      <point x="247" y="712"/>
      <point x="275" y="685"/>
      <point x="275" y="526" type="curve"/>
      <point x="345" y="526"/>
      <point x="388" y="557"/>
      <point x="388" y="610" type="curve" smooth="yes"/>
      <point x="388" y="668"/>
      <point x="336" y="724"/>
      <point x="243" y="724" type="curve" smooth="yes"/>
      <point x="109" y="724"/>
      <point x="33" y="653"/>
      <point x="33" y="519" type="curve" smooth="yes"/>
      <point x="33" y="442"/>
      <point x="52" y="371"/>
      <point x="195" y="304" type="curve" smooth="yes"/>
      <point x="289" y="259"/>
      <point x="316" y="213"/>
      <point x="316" y="128" type="curve" smooth="yes"/>
      <point x="316" y="73"/>
      <point x="297" y="46"/>
      <point x="275" y="31" type="curve"/>
      <point x="275" y="137" type="line" smooth="yes"/>
      <point x="275" y="192"/>
      <point x="257" y="212"/>
      <point x="230" y="212" type="curve" smooth="yes"/>
      <point x="214" y="212"/>
      <point x="197" y="206"/>
      <point x="190" y="182" type="curve"/>
      <point x="190" y="182" type="line"/>
      <point x="182" y="204"/>
      <point x="170" y="212"/>
      <point x="152" y="212" type="curve" smooth="yes"/>
      <point x="135" y="212"/>
      <point x="119" y="204"/>
      <point x="115" y="181" type="curve"/>
      <point x="113" y="181" type="line"/>
      <point x="102" y="201"/>
      <point x="88" y="211"/>
      <point x="65" y="211" type="curve" smooth="yes"/>
      <point x="41" y="211"/>
      <point x="7" y="190"/>
      <point x="7" y="134" type="curve" smooth="yes"/>
      <point x="7" y="87"/>
      <point x="26" y="35"/>
      <point x="77" y="11" type="curve"/>
    </contour>
    <contour>
      <point x="77" y="22" type="line"/>
      <point x="59" y="31"/>
      <point x="16" y="56"/>
      <point x="16" y="134" type="curve" smooth="yes"/>
      <point x="16" y="182"/>
      <point x="34" y="201"/>
      <point x="53" y="201" type="curve" smooth="yes"/>
      <point x="75" y="201"/>
      <point x="77" y="182"/>
      <point x="77" y="154" type="curve" smooth="yes"/>
    </contour>
    <contour>
      <point x="156" y="3" type="line"/>
      <point x="141" y="4"/>
      <point x="130" y="5"/>
      <point x="120" y="7" type="curve"/>
      <point x="120" y="157" type="line" smooth="yes"/>
      <point x="120" y="187"/>
      <point x="128" y="200"/>
      <point x="140" y="200" type="curve" smooth="yes"/>
      <point x="150" y="200"/>
      <point x="156" y="189"/>
      <point x="156" y="157" type="curve" smooth="yes"/>
    </contour>
    <contour>
      <point x="198" y="3" type="curve"/>
      <point x="198" y="157" type="line" smooth="yes"/>
      <point x="198" y="190"/>
      <point x="207" y="200"/>
      <point x="216" y="200" type="curve" smooth="yes"/>
      <point x="228" y="200"/>
      <point x="232" y="189"/>
      <point x="232" y="157" type="curve" smooth="yes"/>
      <point x="232" y="8" type="line"/>
      <point x="221" y="5"/>
      <point x="210" y="3"/>
    </contour>
  </outline>
</glyph>
<glyph name="lbbarsymbol" format="2">
  <advance width="456"/>
  <unicode hex="2114"/>
  <outline>
    <contour>
      <point x="165" y="-12" type="curve" smooth="yes"/>
      <point x="194" y="-12"/>
      <point x="217" y="-1"/>
      <point x="242" y="17" type="curve"/>
      <point x="260" y="-1"/>
      <point x="285" y="-12"/>
      <point x="317" y="-12" type="curve" smooth="yes"/>
      <point x="403" y="-12"/>
      <point x="444" y="81"/>
      <point x="444" y="153" type="curve" smooth="yes"/>
      <point x="444" y="241"/>
      <point x="403" y="276"/>
      <point x="328" y="304" type="curve"/>
      <point x="366" y="538" type="line"/>
      <point x="277" y="538" type="line"/>
      <point x="245" y="339" type="line"/>
      <point x="231" y="345"/>
      <point x="211" y="350"/>
      <point x="194" y="356" type="curve"/>
      <point x="223" y="538" type="line"/>
      <point x="136" y="538" type="line"/>
      <point x="114" y="398" type="line"/>
      <point x="81" y="416"/>
      <point x="80" y="461"/>
      <point x="80" y="496" type="curve" smooth="yes"/>
      <point x="80" y="659"/>
      <point x="140" y="716"/>
      <point x="233" y="716" type="curve" smooth="yes"/>
      <point x="306" y="716"/>
      <point x="379" y="680"/>
      <point x="399" y="563" type="curve"/>
      <point x="433" y="567"/>
      <point x="438" y="583"/>
      <point x="438" y="597" type="curve" smooth="yes"/>
      <point x="438" y="627"/>
      <point x="415" y="657"/>
      <point x="389" y="677" type="curve" smooth="yes"/>
      <point x="341" y="711"/>
      <point x="295" y="726"/>
      <point x="241" y="726" type="curve" smooth="yes"/>
      <point x="106" y="726"/>
      <point x="15" y="658"/>
      <point x="15" y="540" type="curve" smooth="yes"/>
      <point x="15" y="481"/>
      <point x="33" y="421"/>
      <point x="111" y="382" type="curve"/>
      <point x="81" y="191" type="line" smooth="yes"/>
      <point x="78" y="166"/>
      <point x="73" y="129"/>
      <point x="73" y="98" type="curve" smooth="yes"/>
      <point x="73" y="25"/>
      <point x="111" y="-12"/>
    </contour>
    <contour>
      <point x="187" y="6" type="curve" smooth="yes"/>
      <point x="158" y="6"/>
      <point x="150" y="28"/>
      <point x="150" y="66" type="curve" smooth="yes"/>
      <point x="150" y="87"/>
      <point x="154" y="113"/>
      <point x="158" y="142" type="curve" smooth="yes"/>
      <point x="192" y="345" type="line"/>
      <point x="210" y="340"/>
      <point x="229" y="334"/>
      <point x="243" y="328" type="curve"/>
      <point x="222" y="190" type="line" smooth="yes"/>
      <point x="219" y="166"/>
      <point x="214" y="130"/>
      <point x="214" y="102" type="curve" smooth="yes"/>
      <point x="214" y="73"/>
      <point x="220" y="44"/>
      <point x="235" y="24" type="curve"/>
      <point x="216" y="10"/>
      <point x="200" y="6"/>
    </contour>
    <contour>
      <point x="324" y="-2" type="curve" smooth="yes"/>
      <point x="305" y="-2"/>
      <point x="294" y="13"/>
      <point x="294" y="54" type="curve" smooth="yes"/>
      <point x="294" y="78"/>
      <point x="297" y="106"/>
      <point x="302" y="138" type="curve" smooth="yes"/>
      <point x="327" y="292" type="line"/>
      <point x="363" y="271"/>
      <point x="378" y="224"/>
      <point x="378" y="154" type="curve" smooth="yes"/>
      <point x="378" y="61"/>
      <point x="350" y="-2"/>
    </contour>
  </outline>
</glyph>
<glyph name="uni2117" format="2">
  <advance width="612"/>
  <unicode hex="2117"/>
  <outline>
    <contour>
      <point x="177" y="141" type="line"/>
      <point x="308" y="141" type="line"/>
      <point x="308" y="151" type="line"/>
      <point x="308" y="151" type="line" smooth="yes"/>
      <point x="274" y="151"/>
      <point x="273" y="162"/>
      <point x="273" y="189" type="curve" smooth="yes"/>
      <point x="273" y="345" type="line"/>
      <point x="306" y="345" type="line" smooth="yes"/>
      <point x="384" y="345"/>
      <point x="417" y="395"/>
      <point x="417" y="461" type="curve" smooth="yes"/>
      <point x="417" y="534"/>
      <point x="376" y="569"/>
      <point x="293" y="569" type="curve" smooth="yes"/>
      <point x="177" y="569" type="line"/>
      <point x="177" y="559" type="line"/>
      <point x="187" y="559" type="line" smooth="yes"/>
      <point x="222" y="559"/>
      <point x="223" y="548"/>
      <point x="223" y="524" type="curve" smooth="yes"/>
      <point x="223" y="186" type="line" smooth="yes"/>
      <point x="223" y="162"/>
      <point x="222" y="151"/>
      <point x="187" y="151" type="curve" smooth="yes"/>
      <point x="177" y="151" type="line"/>
    </contour>
    <contour>
      <point x="273" y="355" type="line"/>
      <point x="273" y="559" type="line"/>
      <point x="300" y="559" type="line" smooth="yes"/>
      <point x="348" y="559"/>
      <point x="363" y="536"/>
      <point x="363" y="456" type="curve" smooth="yes"/>
      <point x="363" y="391"/>
      <point x="354" y="355"/>
      <point x="302" y="355" type="curve" smooth="yes"/>
    </contour>
    <contour>
      <point x="307" y="-10" type="curve" smooth="yes"/>
      <point x="471" y="-10"/>
      <point x="558" y="121"/>
      <point x="558" y="359" type="curve" smooth="yes"/>
      <point x="558" y="596"/>
      <point x="473" y="725"/>
      <point x="309" y="725" type="curve" smooth="yes"/>
      <point x="141" y="725"/>
      <point x="52" y="597"/>
      <point x="52" y="358" type="curve" smooth="yes"/>
      <point x="52" y="121"/>
      <point x="139" y="-10"/>
    </contour>
    <contour>
      <point x="309" y="0" type="curve" smooth="yes"/>
      <point x="143" y="0"/>
      <point x="64" y="129"/>
      <point x="64" y="360" type="curve" smooth="yes"/>
      <point x="64" y="590"/>
      <point x="148" y="715"/>
      <point x="307" y="715" type="curve" smooth="yes"/>
      <point x="464" y="715"/>
      <point x="546" y="589"/>
      <point x="546" y="358" type="curve" smooth="yes"/>
      <point x="546" y="126"/>
      <point x="466" y="0"/>
    </contour>
  </outline>
</glyph>
<glyph name="facsimile" format="2">
  <advance width="764"/>
  <unicode hex="213B"/>
  <outline>
    <contour>
      <point x="172" y="378" type="line"/>
      <point x="274" y="378" type="line"/>
      <point x="274" y="388" type="line"/>
      <point x="254" y="388" type="line" smooth="yes"/>
      <point x="245" y="388"/>
      <point x="239" y="390"/>
      <point x="239" y="403" type="curve" smooth="yes"/>
      <point x="239" y="410"/>
      <point x="242" y="418"/>
      <point x="245" y="430" type="curve" smooth="yes"/>
      <point x="261" y="499" type="line"/>
      <point x="313" y="499" type="line"/>
      <point x="326" y="425" type="line" smooth="yes"/>
      <point x="329" y="410"/>
      <point x="330" y="402"/>
      <point x="330" y="398" type="curve" smooth="yes"/>
      <point x="330" y="390"/>
      <point x="326" y="388"/>
      <point x="315" y="388" type="curve" smooth="yes"/>
      <point x="305" y="388" type="line"/>
      <point x="305" y="378" type="line"/>
      <point x="467" y="378" type="line"/>
      <point x="467" y="388" type="line"/>
      <point x="457" y="388" type="line" smooth="yes"/>
      <point x="448" y="388"/>
      <point x="444" y="397"/>
      <point x="436" y="428" type="curve" smooth="yes"/>
      <point x="375" y="711" type="line"/>
      <point x="296" y="711" type="line"/>
      <point x="230" y="418" type="line" smooth="yes"/>
      <point x="224" y="393"/>
      <point x="219" y="388"/>
      <point x="200" y="388" type="curve" smooth="yes"/>
      <point x="172" y="388" type="line"/>
    </contour>
    <contour>
      <point x="4" y="378" type="line"/>
      <point x="182" y="378" type="line"/>
      <point x="182" y="388" type="line"/>
      <point x="161" y="388" type="line" smooth="yes"/>
      <point x="150" y="388"/>
      <point x="145" y="394"/>
      <point x="145" y="422" type="curve" smooth="yes"/>
      <point x="145" y="547" type="line"/>
      <point x="217" y="547" type="line"/>
      <point x="217" y="557" type="line"/>
      <point x="145" y="557" type="line"/>
      <point x="145" y="701" type="line"/>
      <point x="172" y="701" type="line" smooth="yes"/>
      <point x="213" y="701"/>
      <point x="225" y="686"/>
      <point x="227" y="637" type="curve" smooth="yes"/>
      <point x="228" y="606" type="line"/>
      <point x="238" y="606" type="line"/>
      <point x="240" y="711" type="line"/>
      <point x="4" y="711" type="line"/>
      <point x="4" y="701" type="line"/>
      <point x="24" y="701" type="line" smooth="yes"/>
      <point x="30" y="701"/>
      <point x="31" y="692"/>
      <point x="31" y="672" type="curve" smooth="yes"/>
      <point x="31" y="419" type="line" smooth="yes"/>
      <point x="31" y="407"/>
      <point x="35" y="388"/>
      <point x="20" y="388" type="curve" smooth="yes"/>
      <point x="4" y="388" type="line"/>
    </contour>
    <contour>
      <point x="263" y="509" type="line"/>
      <point x="284" y="597" type="line" smooth="yes"/>
      <point x="288" y="614"/>
      <point x="286" y="623"/>
      <point x="291" y="651" type="curve"/>
      <point x="294" y="622"/>
      <point x="293" y="610"/>
      <point x="294" y="601" type="curve" smooth="yes"/>
      <point x="311" y="509" type="line"/>
    </contour>
    <contour>
      <point x="494" y="378" type="line"/>
      <point x="569" y="378" type="line"/>
      <point x="569" y="388" type="line"/>
      <point x="544" y="388"/>
      <point x="540" y="390"/>
      <point x="540" y="405" type="curve" smooth="yes"/>
      <point x="540" y="420"/>
      <point x="545" y="429"/>
      <point x="552" y="443" type="curve"/>
      <point x="584" y="518" type="line"/>
      <point x="610" y="455" type="line" smooth="yes"/>
      <point x="623" y="428"/>
      <point x="629" y="419"/>
      <point x="629" y="408" type="curve" smooth="yes"/>
      <point x="629" y="394"/>
      <point x="616" y="388"/>
      <point x="607" y="388" type="curve"/>
      <point x="607" y="378" type="line"/>
      <point x="781" y="378" type="line"/>
      <point x="781" y="388" type="line"/>
      <point x="779" y="388" type="line" smooth="yes"/>
      <point x="774" y="388"/>
      <point x="765" y="391"/>
      <point x="751" y="420" type="curve" smooth="yes"/>
      <point x="676" y="585" type="line"/>
      <point x="707" y="658" type="line" smooth="yes"/>
      <point x="724" y="693"/>
      <point x="728" y="701"/>
      <point x="745" y="701" type="curve" smooth="yes"/>
      <point x="753" y="701" type="line"/>
      <point x="753" y="711" type="line"/>
      <point x="671" y="711" type="line"/>
      <point x="671" y="701" type="line"/>
      <point x="695" y="701"/>
      <point x="700" y="698"/>
      <point x="700" y="684" type="curve" smooth="yes"/>
      <point x="700" y="669"/>
      <point x="695" y="660"/>
      <point x="687" y="646" type="curve"/>
      <point x="670" y="598" type="line"/>
      <point x="648" y="652" type="line" smooth="yes"/>
      <point x="642" y="663"/>
      <point x="639" y="673"/>
      <point x="639" y="684" type="curve" smooth="yes"/>
      <point x="639" y="695"/>
      <point x="644" y="701"/>
      <point x="649" y="701" type="curve"/>
      <point x="649" y="711" type="line"/>
      <point x="474" y="711" type="line"/>
      <point x="474" y="701" type="line"/>
      <point x="481" y="701" type="line" smooth="yes"/>
      <point x="493" y="701"/>
      <point x="507" y="689"/>
      <point x="518" y="665" type="curve" smooth="yes"/>
      <point x="580" y="529" type="line"/>
      <point x="533" y="430" type="line" smooth="yes"/>
      <point x="513" y="390"/>
      <point x="511" y="388"/>
      <point x="494" y="388" type="curve"/>
    </contour>
  </outline>
</glyph>
<glyph name="uni2C64" format="2">
  <advance width="545"/>
  <unicode hex="2C64"/>
  <anchor x="274" y="-232" name="bottom"/>
  <anchor x="274" y="714" name="top"/>
  <outline>
    <contour>
      <point x="217" y="-232" type="curve" smooth="yes"/>
      <point x="271" y="-232"/>
      <point x="303" y="-225"/>
      <point x="326" y="-218" type="curve"/>
      <point x="326" y="-208" type="line"/>
      <point x="309" y="-212"/>
      <point x="297" y="-214"/>
      <point x="284" y="-214" type="curve" smooth="yes"/>
      <point x="242" y="-214"/>
      <point x="228" y="-187"/>
      <point x="228" y="-129" type="curve" smooth="yes"/>
      <point x="228" y="332" type="line"/>
      <point x="229" y="332" type="line"/>
      <point x="338" y="100" type="line" smooth="yes"/>
      <point x="371" y="29"/>
      <point x="393" y="0"/>
      <point x="518" y="0" type="curve" smooth="yes"/>
      <point x="545" y="0" type="line"/>
      <point x="545" y="10" type="line"/>
      <point x="543" y="10" type="line" smooth="yes"/>
      <point x="535" y="10"/>
      <point x="536" y="11"/>
      <point x="448" y="177" type="curve" smooth="yes"/>
      <point x="364" y="339" type="line"/>
      <point x="448" y="360"/>
      <point x="495" y="412"/>
      <point x="495" y="525" type="curve" smooth="yes"/>
      <point x="495" y="646"/>
      <point x="439" y="714"/>
      <point x="277" y="714" type="curve" smooth="yes"/>
      <point x="16" y="714" type="line"/>
      <point x="16" y="704" type="line"/>
      <point x="44" y="704" type="line" smooth="yes"/>
      <point x="86" y="704"/>
      <point x="81" y="685"/>
      <point x="81" y="643" type="curve"/>
      <point x="81" y="-66" type="line" smooth="yes"/>
      <point x="81" y="-175"/>
      <point x="115" y="-232"/>
    </contour>
    <contour>
      <point x="228" y="342" type="line"/>
      <point x="228" y="704" type="line"/>
      <point x="258" y="704" type="line" smooth="yes"/>
      <point x="315" y="704"/>
      <point x="340" y="656"/>
      <point x="340" y="541" type="curve" smooth="yes"/>
      <point x="340" y="395"/>
      <point x="316" y="342"/>
      <point x="260" y="342" type="curve" smooth="yes"/>
    </contour>
  </outline>
</glyph>
<glyph name="leftlowparaphrasebracket" format="2">
  <advance width="360"/>
  <unicode hex="2E1C"/>
  <outline>
    <contour>
      <point x="284" y="-85" type="line"/>
      <point x="301" y="-74" type="line"/>
      <point x="77" y="295" type="line"/>
      <point x="59" y="285" type="line"/>
    </contour>
  </outline>
</glyph>
<glyph name="tildedotabove" format="2">
  <advance width="414"/>
  <unicode hex="2E1E"/>
  <outline>
    <contour>
      <point x="7" y="287" type="line"/>
      <point x="34" y="320"/>
      <point x="72" y="346"/>
      <point x="104" y="346" type="curve" smooth="yes"/>
      <point x="128" y="346"/>
      <point x="153" y="340"/>
      <point x="192" y="319" type="curve" smooth="yes"/>
      <point x="244" y="291"/>
      <point x="273" y="287"/>
      <point x="306" y="287" type="curve" smooth="yes"/>
      <point x="346" y="287"/>
      <point x="381" y="306"/>
      <point x="408" y="341" type="curve"/>
      <point x="408" y="418" type="line"/>
      <point x="381" y="385"/>
      <point x="343" y="359"/>
      <point x="309" y="359" type="curve" smooth="yes"/>
      <point x="286" y="359"/>
      <point x="262" y="365"/>
      <point x="222" y="386" type="curve" smooth="yes"/>
      <point x="169" y="414"/>
      <point x="141" y="418"/>
      <point x="108" y="418" type="curve" smooth="yes"/>
      <point x="69" y="418"/>
      <point x="34" y="400"/>
      <point x="7" y="365" type="curve"/>
    </contour>
    <contour>
      <point x="207" y="462" type="curve" smooth="yes"/>
      <point x="229" y="462"/>
      <point x="247" y="480"/>
      <point x="247" y="523" type="curve" smooth="yes"/>
      <point x="247" y="568"/>
      <point x="229" y="583"/>
      <point x="207" y="583" type="curve" smooth="yes"/>
      <point x="183" y="583"/>
      <point x="165" y="568"/>
      <point x="165" y="523" type="curve" smooth="yes"/>
      <point x="165" y="480"/>
      <point x="183" y="462"/>
    </contour>
  </outline>
</glyph>
<glyph name="twodotsoveronedotpunctuation" format="2">
  <advance width="425"/>
  <unicode hex="2E2A"/>
  <outline>
    <contour>
      <point x="80" y="293" type="curve" smooth="yes"/>
      <point x="123" y="293"/>
      <point x="159" y="315"/>
      <point x="159" y="383" type="curve" smooth="yes"/>
      <point x="159" y="454"/>
      <point x="123" y="472"/>
      <point x="80" y="472" type="curve" smooth="yes"/>
      <point x="34" y="472"/>
      <point x="-1" y="454"/>
      <point x="-1" y="383" type="curve" smooth="yes"/>
      <point x="-1" y="315"/>
      <point x="34" y="293"/>
    </contour>
    <contour>
      <point x="346" y="293" type="curve" smooth="yes"/>
      <point x="390" y="293"/>
      <point x="426" y="315"/>
      <point x="426" y="383" type="curve" smooth="yes"/>
      <point x="426" y="454"/>
      <point x="390" y="472"/>
      <point x="346" y="472" type="curve" smooth="yes"/>
      <point x="301" y="472"/>
      <point x="266" y="454"/>
      <point x="266" y="383" type="curve" smooth="yes"/>
      <point x="266" y="315"/>
      <point x="301" y="293"/>
    </contour>
    <contour>
      <point x="208" y="-14" type="curve" smooth="yes"/>
      <point x="250" y="-14"/>
      <point x="287" y="7"/>
      <point x="287" y="76" type="curve" smooth="yes"/>
      <point x="287" y="146"/>
      <point x="250" y="164"/>
      <point x="208" y="164" type="curve" smooth="yes"/>
      <point x="162" y="164"/>
      <point x="126" y="146"/>
      <point x="126" y="76" type="curve" smooth="yes"/>
      <point x="126" y="7"/>
      <point x="162" y="-14"/>
    </contour>
  </outline>
</glyph>
<glyph name="onedotovertwodotspunctuation" format="2">
  <advance width="425"/>
  <unicode hex="2E2B"/>
  <outline>
    <contour>
      <point x="206" y="303" type="curve" smooth="yes"/>
      <point x="245" y="303"/>
      <point x="275" y="324"/>
      <point x="275" y="384" type="curve" smooth="yes"/>
      <point x="275" y="442"/>
      <point x="245" y="462"/>
      <point x="206" y="462" type="curve" smooth="yes"/>
      <point x="167" y="462"/>
      <point x="136" y="442"/>
      <point x="136" y="384" type="curve" smooth="yes"/>
      <point x="136" y="324"/>
      <point x="167" y="303"/>
    </contour>
    <contour>
      <point x="96" y="-14" type="curve" smooth="yes"/>
      <point x="133" y="-14"/>
      <point x="166" y="6"/>
      <point x="166" y="65" type="curve" smooth="yes"/>
      <point x="166" y="125"/>
      <point x="133" y="144"/>
      <point x="96" y="144" type="curve" smooth="yes"/>
      <point x="57" y="144"/>
      <point x="26" y="125"/>
      <point x="26" y="65" type="curve" smooth="yes"/>
      <point x="26" y="6"/>
      <point x="57" y="-14"/>
    </contour>
    <contour>
      <point x="328" y="-14" type="curve" smooth="yes"/>
      <point x="365" y="-14"/>
      <point x="396" y="6"/>
      <point x="396" y="65" type="curve" smooth="yes"/>
      <point x="396" y="125"/>
      <point x="365" y="144"/>
      <point x="328" y="144" type="curve" smooth="yes"/>
      <point x="289" y="144"/>
      <point x="256" y="125"/>
      <point x="256" y="65" type="curve" smooth="yes"/>
      <point x="256" y="6"/>
      <point x="289" y="-14"/>
    </contour>
  </outline>
</glyph>
<glyph name="uni2E3F" format="2">
  <advance width="499"/>
  <unicode hex="2E3F"/>
  <outline>
    <contour>
      <point x="161" y="-111" type="line"/>
      <point x="289" y="-111" type="line"/>
      <point x="289" y="257" type="line"/>
      <point x="345" y="257" type="line"/>
      <point x="345" y="-111" type="line"/>
      <point x="470" y="-111" type="line"/>
      <point x="470" y="-101" type="line"/>
      <point x="476" y="-101" type="line" smooth="yes"/>
      <point x="407" y="-101"/>
      <point x="402" y="-79"/>
      <point x="402" y="-29" type="curve" smooth="yes"/>
      <point x="402" y="257" type="line"/>
      <point x="464" y="257" type="line"/>
      <point x="464" y="267" type="line"/>
      <point x="402" y="267" type="line"/>
      <point x="402" y="704" type="line"/>
      <point x="470" y="704" type="line"/>
      <point x="470" y="714" type="line"/>
      <point x="402" y="714" type="line"/>
      <point x="402" y="790" type="line"/>
      <point x="345" y="790" type="line"/>
      <point x="345" y="714" type="line"/>
      <point x="289" y="714" type="line"/>
      <point x="289" y="790" type="line"/>
      <point x="231" y="790" type="line"/>
      <point x="231" y="712" type="line"/>
      <point x="84" y="700"/>
      <point x="13" y="600"/>
      <point x="13" y="486" type="curve" smooth="yes"/>
      <point x="13" y="367"/>
      <point x="84" y="267"/>
      <point x="231" y="258" type="curve"/>
      <point x="231" y="-29" type="line" smooth="yes"/>
      <point x="231" y="-79"/>
      <point x="224" y="-101"/>
      <point x="155" y="-101" type="curve" smooth="yes"/>
      <point x="161" y="-101" type="line"/>
    </contour>
    <contour>
      <point x="231" y="271" type="line"/>
      <point x="179" y="285"/>
      <point x="162" y="338"/>
      <point x="162" y="490" type="curve" smooth="yes"/>
      <point x="162" y="639"/>
      <point x="179" y="689"/>
      <point x="231" y="700" type="curve"/>
    </contour>
    <contour>
      <point x="289" y="267" type="line"/>
      <point x="289" y="704" type="line"/>
      <point x="345" y="704" type="line"/>
      <point x="345" y="267" type="line"/>
    </contour>
  </outline>
</glyph>
<glyph name="uni2E42" format="2">
  <advance width="376"/>
  <unicode hex="2E42"/>
  <outline>
    <contour>
      <point x="334" y="-154" type="curve"/>
      <point x="334" y="-142" type="line"/>
      <point x="307" y="-137"/>
      <point x="241" y="-106"/>
      <point x="241" y="-55" type="curve" smooth="yes"/>
      <point x="241" y="4"/>
      <point x="327" y="-23"/>
      <point x="327" y="80" type="curve" smooth="yes"/>
      <point x="327" y="135"/>
      <point x="302" y="151"/>
      <point x="271" y="151" type="curve" smooth="yes"/>
      <point x="223" y="151"/>
      <point x="197" y="109"/>
      <point x="197" y="40" type="curve" smooth="yes"/>
      <point x="197" y="-43"/>
      <point x="234" y="-121"/>
    </contour>
    <contour>
      <point x="176" y="-154" type="curve"/>
      <point x="176" y="-142" type="line"/>
      <point x="150" y="-137"/>
      <point x="83" y="-106"/>
      <point x="83" y="-55" type="curve" smooth="yes"/>
      <point x="83" y="4"/>
      <point x="169" y="-23"/>
      <point x="169" y="80" type="curve" smooth="yes"/>
      <point x="169" y="135"/>
      <point x="145" y="151"/>
      <point x="113" y="151" type="curve" smooth="yes"/>
      <point x="65" y="151"/>
      <point x="39" y="109"/>
      <point x="39" y="40" type="curve" smooth="yes"/>
      <point x="39" y="-43"/>
      <point x="76" y="-121"/>
    </contour>
  </outline>
</glyph>
<glyph name="uniA64A" format="2">
  <advance width="584"/>
  <unicode hex="A64A"/>
  <outline>
    <contour>
      <point x="293" y="-15" type="curve" smooth="yes"/>
      <point x="487" y="-15"/>
      <point x="558" y="105"/>
      <point x="558" y="223" type="curve" smooth="yes"/>
      <point x="558" y="342"/>
      <point x="486" y="426"/>
      <point x="375" y="443" type="curve"/>
      <point x="465" y="644" type="line" smooth="yes"/>
      <point x="486" y="692"/>
      <point x="500" y="704"/>
      <point x="533" y="704" type="curve" smooth="yes"/>
      <point x="530" y="704" type="line"/>
      <point x="530" y="714" type="line"/>
      <point x="398" y="714" type="line"/>
      <point x="398" y="704" type="line"/>
      <point x="418" y="704" type="line" smooth="yes"/>
      <point x="448" y="704"/>
      <point x="467" y="700"/>
      <point x="467" y="679" type="curve" smooth="yes"/>
      <point x="467" y="669"/>
      <point x="462" y="656"/>
      <point x="453" y="637" type="curve" smooth="yes"/>
      <point x="345" y="399" type="line"/>
      <point x="226" y="639" type="line" smooth="yes"/>
      <point x="217" y="657"/>
      <point x="210" y="673"/>
      <point x="210" y="681" type="curve" smooth="yes"/>
      <point x="210" y="699"/>
      <point x="229" y="704"/>
      <point x="253" y="704" type="curve" smooth="yes"/>
      <point x="276" y="704" type="line"/>
      <point x="276" y="714" type="line"/>
      <point x="25" y="714" type="line"/>
      <point x="25" y="704" type="line"/>
      <point x="19" y="704" type="line" smooth="yes"/>
      <point x="44" y="704"/>
      <point x="52" y="694"/>
      <point x="68" y="664" type="curve" smooth="yes"/>
      <point x="184" y="434" type="line"/>
      <point x="90" y="405"/>
      <point x="27" y="329"/>
      <point x="27" y="223" type="curve" smooth="yes"/>
      <point x="27" y="94"/>
      <point x="100" y="-15"/>
    </contour>
    <contour>
      <point x="293" y="-5" type="curve" smooth="yes"/>
      <point x="202" y="-5"/>
      <point x="144" y="67"/>
      <point x="144" y="220" type="curve" smooth="yes"/>
      <point x="144" y="335"/>
      <point x="165" y="400"/>
      <point x="185" y="428" type="curve"/>
      <point x="278" y="251" type="line"/>
      <point x="256" y="201"/>
      <point x="242" y="180"/>
      <point x="242" y="155" type="curve" smooth="yes"/>
      <point x="242" y="123"/>
      <point x="263" y="96"/>
      <point x="302" y="96" type="curve" smooth="yes"/>
      <point x="344" y="96"/>
      <point x="363" y="120"/>
      <point x="363" y="150" type="curve" smooth="yes"/>
      <point x="363" y="160"/>
      <point x="360" y="169"/>
      <point x="355" y="183" type="curve"/>
      <point x="346" y="174"/>
      <point x="333" y="171"/>
      <point x="320" y="171" type="curve" smooth="yes"/>
      <point x="301" y="171"/>
      <point x="271" y="177"/>
      <point x="271" y="198" type="curve" smooth="yes"/>
      <point x="271" y="210"/>
      <point x="277" y="227"/>
      <point x="289" y="252" type="curve" smooth="yes"/>
      <point x="371" y="435" type="line"/>
      <point x="414" y="409"/>
      <point x="442" y="344"/>
      <point x="442" y="220" type="curve" smooth="yes"/>
      <point x="442" y="67"/>
      <point x="388" y="-5"/>
    </contour>
  </outline>
</glyph>
<glyph name="uniA65E" format="2">
  <advance width="654"/>
  <unicode hex="A65E"/>
  <outline>
    <contour>
      <point x="202" y="-240" type="line"/>
      <point x="480" y="-240" type="line"/>
      <point x="480" y="-230" type="line"/>
      <point x="475" y="-230" type="line" smooth="yes"/>
      <point x="404" y="-230"/>
      <point x="404" y="-209"/>
      <point x="404" y="-165" type="curve" smooth="yes"/>
      <point x="404" y="373" type="line"/>
      <point x="486" y="85" type="line" smooth="yes"/>
      <point x="486" y="80"/>
      <point x="493" y="60"/>
      <point x="493" y="48" type="curve" smooth="yes"/>
      <point x="493" y="17"/>
      <point x="473" y="10"/>
      <point x="457" y="10" type="curve" smooth="yes"/>
      <point x="419" y="10" type="line"/>
      <point x="418" y="0" type="line"/>
      <point x="654" y="0" type="line"/>
      <point x="655" y="10" type="line"/>
      <point x="653" y="10" type="line" smooth="yes"/>
      <point x="633" y="10"/>
      <point x="637" y="20"/>
      <point x="625" y="57" type="curve" smooth="yes"/>
      <point x="426" y="714" type="line"/>
      <point x="377" y="714" type="line"/>
      <point x="228" y="226" type="line" smooth="yes"/>
      <point x="192" y="105"/>
      <point x="145" y="75"/>
      <point x="101" y="75" type="curve" smooth="yes"/>
      <point x="67" y="75"/>
      <point x="49" y="87"/>
      <point x="45" y="111" type="curve"/>
      <point x="22" y="105"/>
      <point x="6" y="83"/>
      <point x="6" y="58" type="curve" smooth="yes"/>
      <point x="6" y="20"/>
      <point x="39" y="-6"/>
      <point x="80" y="-6" type="curve" smooth="yes"/>
      <point x="151" y="-6"/>
      <point x="201" y="54"/>
      <point x="239" y="195" type="curve" smooth="yes"/>
      <point x="278" y="333" type="line"/>
      <point x="278" y="-165" type="line" smooth="yes"/>
      <point x="278" y="-209"/>
      <point x="278" y="-230"/>
      <point x="207" y="-230" type="curve" smooth="yes"/>
      <point x="202" y="-230" type="line"/>
    </contour>
  </outline>
</glyph>
<glyph name="uniA66B" format="2">
  <advance width="555"/>
  <unicode hex="A66B"/>
  <outline>
    <contour>
      <point x="275" y="-10" type="curve" smooth="yes"/>
      <point x="443" y="-10"/>
      <point x="526" y="81"/>
      <point x="526" y="269" type="curve" smooth="yes"/>
      <point x="526" y="457"/>
      <point x="433" y="549"/>
      <point x="278" y="549" type="curve" smooth="yes"/>
      <point x="112" y="549"/>
      <point x="29" y="457"/>
      <point x="29" y="269" type="curve" smooth="yes"/>
      <point x="29" y="81"/>
      <point x="122" y="-10"/>
    </contour>
    <contour>
      <point x="225" y="207" type="curve" smooth="yes"/>
      <point x="244" y="207"/>
      <point x="265" y="219"/>
      <point x="265" y="272" type="curve" smooth="yes"/>
      <point x="265" y="324"/>
      <point x="244" y="336"/>
      <point x="225" y="336" type="curve" smooth="yes"/>
      <point x="200" y="336"/>
      <point x="186" y="324"/>
      <point x="186" y="272" type="curve" smooth="yes"/>
      <point x="186" y="219"/>
      <point x="200" y="207"/>
    </contour>
    <contour>
      <point x="277" y="0" type="curve" smooth="yes"/>
      <point x="195" y="0"/>
      <point x="167" y="70"/>
      <point x="167" y="271" type="curve" smooth="yes"/>
      <point x="167" y="469"/>
      <point x="195" y="539"/>
      <point x="276" y="539" type="curve" smooth="yes"/>
      <point x="359" y="539"/>
      <point x="389" y="469"/>
      <point x="389" y="271" type="curve" smooth="yes"/>
      <point x="389" y="70"/>
      <point x="360" y="0"/>
    </contour>
    <contour>
      <point x="329" y="207" type="curve" smooth="yes"/>
      <point x="349" y="207"/>
      <point x="369" y="219"/>
      <point x="369" y="272" type="curve" smooth="yes"/>
      <point x="369" y="324"/>
      <point x="349" y="336"/>
      <point x="329" y="336" type="curve" smooth="yes"/>
      <point x="302" y="336"/>
      <point x="290" y="324"/>
      <point x="290" y="272" type="curve" smooth="yes"/>
      <point x="290" y="219"/>
      <point x="302" y="207"/>
    </contour>
  </outline>
</glyph>
<glyph name="uniA67D" format="2">
  <unicode hex="A67D"/>
  <anchor x="0" y="536" name="_top"/>
  <outline>
    <contour>
      <point x="13" y="606" type="line"/>
      <point x="75" y="606" type="line"/>
      <point x="93" y="817" type="line"/>
      <point x="34" y="817" type="line"/>
      <point x="23" y="689" type="line"/>
      <point x="-14" y="690"/>
      <point x="-32" y="703"/>
      <point x="-32" y="766" type="curve" smooth="yes"/>
      <point x="-32" y="805"/>
      <point x="-30" y="810"/>
      <point x="-30" y="817" type="curve"/>
      <point x="-92" y="817" type="line"/>
      <point x="-92" y="808"/>
      <point x="-93" y="797"/>
      <point x="-93" y="788" type="curve" smooth="yes"/>
      <point x="-93" y="723"/>
      <point x="-65" y="681"/>
      <point x="22" y="679" type="curve"/>
    </contour>
  </outline>
</glyph>
